<?xml version="1.0" encoding="UTF-8" standalone="no"?><!DOCTYPE svg PUBLIC "-//W3C//DTD SVG 1.1//EN" "http://www.w3.org/Graphics/SVG/1.1/DTD/svg11.dtd"><svg width="100%" height="100%" viewBox="0 0 100 244" version="1.1" xmlns="http://www.w3.org/2000/svg" xmlns:xlink="http://www.w3.org/1999/xlink" xml:space="preserve" xmlns:serif="http://www.serif.com/" style="fill-rule:evenodd;clip-rule:evenodd;stroke-linejoin:round;stroke-miterlimit:2;"><g><g><path d="M46.468,199.697c-1.253,-0.626 -3.082,-0.727 -4.084,-0.227l-41.748,20.874c-0.195,0.098 -0.636,-0.185 -0.636,-0.022c0,0.162 0.016,0.574 0.016,0.69c0,0.464 0.272,0.973 1.074,1.374l40.84,20.42c1.252,0.626 3.082,0.728 4.084,0.227l41.747,-20.874c0.421,-0.21 0.629,-0.493 0.636,-0.797c0.006,-0.212 0.007,-0.597 0,-0.872c-0.007,-0.279 -0.729,-0.193 -1.089,-0.373l-40.84,-20.42Z" style="fill:#8c8c8c;"/><path d="M46.468,198.86c-1.253,-0.626 -3.082,-0.727 -4.084,-0.226l-41.748,20.873c-1.002,0.501 -0.798,1.416 0.454,2.042l40.84,20.42c1.252,0.626 3.082,0.728 4.084,0.227l41.747,-20.874c1.002,-0.5 0.799,-1.415 -0.453,-2.042l-40.84,-20.42Z" style="fill:#ccc;"/></g><g><g><g><path d="M44.437,220.833l2.277,-1.316l0,-218.201l-2.277,1.311l0,218.206Z" style="fill:#b3b3b3;"/><path d="M42.159,1.316l2.278,-1.316l2.277,1.316l-2.277,1.311l-2.278,-1.311Z" style="fill:#e6e6e6;"/><path d="M44.437,220.833l-2.278,-1.316l0,-218.201l2.278,1.311l0,218.206Z" style="fill:#8c8c8c;"/></g><path d="M45.218,2.179l0,158.565l54.289,31.781l0,-159.258l-54.289,-31.088Z" style="fill:#fff;"/><g><path d="M81.123,51.646c0.109,-0.295 -0.087,-0.808 -0.382,-0.978l-9.077,-5.237c-0.17,-0.099 -0.295,-0.044 -0.361,0.081c-0.044,0.159 -0.016,0.377 0.098,0.601l6.423,12.267c0.208,0.399 0.557,0.508 0.667,0.213c0,0 0.082,-2.103 0.813,-4.041c0.732,-1.934 1.819,-2.906 1.819,-2.906" style="fill:#ff1a21;fill-rule:nonzero;"/><path d="M70.855,29.799c-0.267,-0.306 -0.568,-0.207 -0.568,0.18l0,12.109c0,0.218 0.098,0.442 0.219,0.601c0.136,0.136 0.295,0.191 0.409,0.104l6.423,-4.856c0.202,-0.153 0.137,-0.661 -0.136,-0.967c0,0 -1.612,-1.037 -3.381,-3.036c-1.764,-1.999 -2.966,-4.135 -2.966,-4.135" style="fill:#00983e;fill-rule:nonzero;"/><path d="M58.916,36.593c-0.109,0.295 0.087,0.809 0.382,0.978l9.078,5.238c0.169,0.098 0.294,0.044 0.36,-0.082c0.038,-0.158 0.016,-0.377 -0.098,-0.601l-6.423,-12.267c-0.208,-0.399 -0.557,-0.508 -0.667,-0.207c0,0 -0.087,2.097 -0.819,4.036c-0.732,1.933 -1.813,2.905 -1.813,2.905" style="fill:#1f191a;fill-rule:nonzero;"/><path d="M69.184,58.44c0.268,0.306 0.562,0.213 0.562,-0.18l0,-12.109c0,-0.218 -0.092,-0.442 -0.218,-0.6c-0.131,-0.137 -0.289,-0.191 -0.404,-0.104l-6.423,4.855c-0.208,0.153 -0.137,0.661 0.131,0.967c0,0 1.617,1.043 3.381,3.037c1.769,1.999 2.971,4.134 2.971,4.134" style="fill:#1f191a;fill-rule:nonzero;"/><path d="M62.761,28.674c-0.268,-0.005 -0.339,0.421 -0.131,0.814l6.417,12.267c0.121,0.224 0.273,0.349 0.41,0.371c0.126,-0.016 0.218,-0.131 0.218,-0.355l0,-12.108c0,-0.388 -0.294,-0.825 -0.568,-0.831c0,0 -1.196,0.749 -2.965,0.705c-1.77,-0.044 -3.381,-0.863 -3.381,-0.863" style="fill:#1f191a;fill-rule:nonzero;"/><path d="M61.576,48.926c0.114,0.421 0.464,0.715 0.672,0.563l6.417,-4.856c0.12,-0.087 0.142,-0.284 0.098,-0.486c-0.065,-0.208 -0.191,-0.404 -0.355,-0.497l-9.082,-5.243c-0.29,-0.17 -0.492,0.109 -0.377,0.535c0,0 1.081,2.223 1.813,5.003c0.732,2.78 0.814,4.981 0.814,4.981" style="fill:#1f191a;fill-rule:nonzero;"/><path d="M77.278,59.565c0.268,0.006 0.339,-0.42 0.131,-0.813l-6.423,-12.267c-0.114,-0.224 -0.267,-0.344 -0.404,-0.366c-0.126,0.016 -0.218,0.125 -0.218,0.349l0,12.109c0,0.388 0.295,0.825 0.568,0.83c0,0 1.196,-0.748 2.965,-0.705c1.77,0.044 3.381,0.863 3.381,0.863" style="fill:#1f191a;fill-rule:nonzero;"/><path d="M84.28,44.994l2.786,1.611l0,5.461c-0.552,0.181 -1.229,0.197 -2.038,0.055c-0.803,-0.142 -1.556,-0.415 -2.255,-0.819c-1.016,-0.585 -1.928,-1.409 -2.737,-2.463c-0.808,-1.054 -1.436,-2.234 -1.895,-3.534c-0.453,-1.305 -0.683,-2.605 -0.683,-3.911c0,-1.294 0.235,-2.321 0.71,-3.086c0.476,-0.764 1.136,-1.196 1.972,-1.294c0.841,-0.098 1.786,0.153 2.84,0.765c0.765,0.437 1.529,1.065 2.3,1.884c0.77,0.819 1.414,1.688 1.938,2.611l-1.829,1.906c-0.328,-0.623 -0.716,-1.191 -1.158,-1.699c-0.442,-0.513 -0.863,-0.885 -1.262,-1.114c-0.415,-0.235 -0.786,-0.311 -1.119,-0.229c-0.339,0.087 -0.601,0.322 -0.787,0.699c-0.186,0.377 -0.278,0.868 -0.278,1.474c0,0.623 0.098,1.235 0.289,1.835c0.191,0.601 0.453,1.142 0.787,1.612c0.338,0.475 0.715,0.835 1.136,1.076c0.355,0.202 0.781,0.3 1.283,0.295l0,-3.135Z" style="fill:#1f191a;fill-rule:nonzero;"/></g></g><path d="M68.785,69.637l-8.87,-5.118l0,96.263l8.87,5.117l0,-96.262Z" style="fill:#d9d9d9;"/><path d="M77.835,74.547l-4.954,-2.862l0,66.196l4.954,2.862l0,-66.196Z" style="fill:#d9d9d9;"/></g></g></svg>