<?xml version="1.0" encoding="UTF-8" standalone="no"?><!DOCTYPE svg PUBLIC "-//W3C//DTD SVG 1.1//EN" "http://www.w3.org/Graphics/SVG/1.1/DTD/svg11.dtd"><svg width="100%" height="100%" viewBox="0 0 152 228" version="1.1" xmlns="http://www.w3.org/2000/svg" xmlns:xlink="http://www.w3.org/1999/xlink" xml:space="preserve" xmlns:serif="http://www.serif.com/" style="fill-rule:evenodd;clip-rule:evenodd;stroke-linejoin:round;stroke-miterlimit:2;"><g><path d="M46.468,183.699c-1.253,-0.626 -3.082,-0.728 -4.084,-0.227l-41.748,20.874c-0.195,0.098 -0.636,-0.185 -0.636,-0.022c0,0.162 0.016,0.574 0.016,0.69c0,0.464 0.272,0.973 1.074,1.374l40.84,20.42c1.252,0.626 3.082,0.728 4.084,0.227l41.747,-20.874c0.421,-0.21 0.629,-0.493 0.636,-0.797c0.006,-0.212 0.007,-0.598 0,-0.872c-0.007,-0.279 -0.729,-0.193 -1.089,-0.373l-40.84,-20.42Z" style="fill:#8c8c8c;"/><path d="M46.468,182.862c-1.253,-0.626 -3.082,-0.728 -4.084,-0.227l-41.748,20.874c-1.002,0.501 -0.798,1.416 0.454,2.042l40.84,20.42c1.252,0.626 3.082,0.728 4.084,0.227l41.747,-20.874c1.002,-0.501 0.799,-1.416 -0.453,-2.042l-40.84,-20.42Z" style="fill:#ccc;"/><path d="M45.628,121.917l-3.234,-1.617l0,83.162l3.234,1.617l0,-83.162Z" style="fill:#8d8b8b;"/><path d="M137.653,85.755l-95.291,79.836l-0.344,-89.102c-0.15,-38.711 5.422,-52.026 23.995,-68.004c19.922,-17.139 55.173,-6.471 73.136,15.565c17.612,21.605 14.692,46.643 -1.496,61.705Z" style="fill:#f2f2f2;fill-rule:nonzero;"/><path d="M46.013,162.533l-3.651,3.058l-0.344,-89.102c-0.15,-38.711 5.422,-52.026 23.995,-68.004c19.922,-17.139 55.173,-6.471 73.136,15.565c15.979,19.602 15.057,42.03 2.657,57.27c11.003,-14.512 11.468,-35.32 -3.404,-53.563c-17.146,-21.034 -50.796,-31.218 -69.813,-14.858c-17.728,15.252 -23.047,27.962 -22.904,64.915l0.328,84.719Z" style="fill:#d9d9d9;fill-rule:nonzero;"/><g><path id="path8" d="M124.283,47.592c0.032,-0.059 0.048,-0.131 0.048,-0.212c0,-0.331 -0.272,-0.739 -0.603,-0.904c-0.003,-0.001 -0.005,-0.003 -0.007,-0.004l-13.461,-6.73c-0.015,-0.009 -0.03,-0.017 -0.045,-0.025c-0.289,-0.144 -0.527,-0.026 -0.527,0.263c0,0.155 0.069,0.337 0.187,0.497l9.519,14.263c0.113,0.171 0.268,0.313 0.429,0.394c0.247,0.123 0.469,0.083 0.561,-0.1c0.28,-3.322 1.644,-5.928 3.898,-7.447" style="fill:#e42026;fill-rule:nonzero;"/><path id="path10" d="M109.067,22.312c-0.075,-0.07 -0.155,-0.126 -0.237,-0.167c-0.331,-0.165 -0.603,-0.029 -0.603,0.301c0,0.002 0,0.005 0,0.007l0,13.44c-0.001,0.015 -0.002,0.029 -0.002,0.044c0,0.289 0.238,0.645 0.527,0.79c0.155,0.077 0.302,0.083 0.402,0.015l9.52,-4.746c0.114,-0.056 0.179,-0.178 0.179,-0.339c0,-0.246 -0.151,-0.544 -0.38,-0.75c-1.723,-1.004 -3.414,-2.256 -5.013,-3.711c-1.594,-1.463 -3.076,-3.11 -4.394,-4.885" style="fill:#1c9747;fill-rule:nonzero;"/><path id="path12" d="M91.369,28.657c-0.032,0.059 -0.049,0.131 -0.049,0.212c0,0.331 0.273,0.739 0.604,0.904c0.001,0.001 0.003,0.002 0.005,0.003l13.462,6.731c0.014,0.008 0.028,0.015 0.042,0.022c0.289,0.145 0.528,0.026 0.528,-0.263c0,-0.154 -0.068,-0.335 -0.186,-0.494l-9.518,-14.264c-0.114,-0.172 -0.269,-0.314 -0.431,-0.395c-0.247,-0.124 -0.47,-0.084 -0.561,0.1c-0.143,1.649 -0.55,3.133 -1.207,4.401c-0.666,1.258 -1.573,2.285 -2.689,3.043" style="fill:#191919;fill-rule:nonzero;"/><path id="path14" d="M106.585,53.936c0.074,0.07 0.155,0.126 0.236,0.167c0.331,0.165 0.603,0.03 0.603,-0.301c0,-0.002 0,-0.003 0,-0.005l0,-13.441c0.002,-0.014 0.002,-0.028 0.002,-0.042c0,-0.289 -0.238,-0.647 -0.528,-0.791c-0.154,-0.078 -0.302,-0.083 -0.402,-0.016l-9.518,4.746c-0.115,0.056 -0.179,0.178 -0.179,0.339c0,0.246 0.151,0.544 0.38,0.75c1.722,1.004 3.413,2.256 5.011,3.711c1.596,1.462 3.08,3.11 4.4,4.884" style="fill:#191919;fill-rule:nonzero;"/><path id="path16" d="M97.066,20.249c-0.229,-0.023 -0.38,0.124 -0.38,0.37c0,0.161 0.064,0.347 0.179,0.518l9.519,14.265c0.101,0.168 0.248,0.309 0.403,0.386c0.289,0.145 0.528,0.026 0.528,-0.263c0,-0.014 -0.001,-0.029 -0.002,-0.044l0,-13.441c0,-0.001 0,-0.003 0,-0.004c0,-0.331 -0.273,-0.739 -0.604,-0.904c-0.079,-0.04 -0.158,-0.064 -0.232,-0.07c-1.32,0.455 -2.803,0.619 -4.398,0.486c-1.599,-0.144 -3.289,-0.582 -5.012,-1.3" style="fill:#191919;fill-rule:nonzero;"/><path id="path18" d="M95.31,42.611c0.091,0.275 0.314,0.538 0.561,0.662c0.162,0.081 0.317,0.093 0.431,0.035l9.518,-4.753c0.118,-0.041 0.186,-0.154 0.186,-0.308c0,-0.289 -0.238,-0.647 -0.528,-0.791c-0.014,-0.007 -0.028,-0.014 -0.042,-0.02l-13.462,-6.731c-0.002,0 -0.003,-0.001 -0.005,-0.002c-0.331,-0.166 -0.603,-0.03 -0.603,0.301c0,0.081 0.016,0.169 0.048,0.26c1.116,1.876 2.023,3.811 2.688,5.737c0.657,1.925 1.064,3.816 1.207,5.607" style="fill:#191919;fill-rule:nonzero;"/><path id="path20" d="M118.584,56c0.229,0.023 0.381,-0.124 0.381,-0.37c0,-0.161 -0.065,-0.348 -0.18,-0.518l-9.518,-14.265c-0.1,-0.168 -0.247,-0.309 -0.402,-0.386c-0.29,-0.145 -0.528,-0.026 -0.528,0.263c0,0.014 0.001,0.029 0.002,0.044l0,13.44c0,0.002 0,0.005 0,0.007c0,0.33 0.272,0.739 0.603,0.904c0.081,0.041 0.162,0.065 0.236,0.07c2.651,-0.925 5.944,-0.641 9.411,0.813" style="fill:#191919;fill-rule:nonzero;"/><path id="path22" d="M128.969,40.527l4.123,2.062l0,6.066c-0.814,0.145 -1.82,0.097 -3.017,-0.142c-1.083,-0.201 -2.211,-0.583 -3.347,-1.136c-1.507,-0.753 -2.858,-1.756 -4.053,-3.009c-1.169,-1.213 -2.141,-2.638 -2.81,-4.117c-0.677,-1.491 -1.016,-2.961 -1.016,-4.411c-0.04,-2.788 1.508,-4.574 3.981,-4.591c1.244,-0.027 2.647,0.351 4.209,1.132c1.164,0.586 2.32,1.372 3.412,2.321c1.14,0.985 2.097,2.016 2.872,3.092l-2.721,1.936c-0.492,-0.734 -1.072,-1.415 -1.71,-2.005c-0.589,-0.562 -1.228,-1.026 -1.875,-1.361c-0.586,-0.299 -1.162,-0.426 -1.659,-0.363c-0.496,0.062 -0.897,0.304 -1.158,0.697c-0.282,0.424 -0.424,0.978 -0.414,1.615c-0.011,0.637 0.134,1.346 0.424,2.065c0.266,0.659 0.671,1.305 1.171,1.869c0.504,0.564 1.087,1.018 1.68,1.306c0.525,0.262 1.162,0.415 1.911,0.458l0,-3.483l-0.003,-0.001Z" style="fill:#191919;fill-rule:nonzero;"/></g><path d="M97.251,51.644l-49.442,44.131l9.858,12.008l49.442,-44.132l-9.858,-12.007Z" style="fill:#d9d9d9;"/><path d="M111.269,69.008l-35.384,31.583l7.055,8.593l35.384,-31.583l-7.055,-8.593Z" style="fill:#d9d9d9;"/></g></svg>