<?xml version="1.0" encoding="UTF-8" standalone="no"?><!DOCTYPE svg PUBLIC "-//W3C//DTD SVG 1.1//EN" "http://www.w3.org/Graphics/SVG/1.1/DTD/svg11.dtd"><svg width="100%" height="100%" viewBox="0 0 97 275" version="1.1" xmlns="http://www.w3.org/2000/svg" xmlns:xlink="http://www.w3.org/1999/xlink" xml:space="preserve" xmlns:serif="http://www.serif.com/" style="fill-rule:evenodd;clip-rule:evenodd;stroke-linejoin:round;stroke-miterlimit:2;"><g><g><path d="M46.468,230.927c-1.253,-0.626 -3.082,-0.727 -4.084,-0.227l-41.748,20.874c-0.195,0.098 -0.636,-0.185 -0.636,-0.022c0,0.162 0.016,0.574 0.016,0.69c0,0.464 0.272,0.973 1.074,1.374l40.84,20.42c1.252,0.626 3.082,0.728 4.084,0.227l41.747,-20.874c0.421,-0.21 0.629,-0.493 0.636,-0.797c0.006,-0.212 0.007,-0.598 0,-0.872c-0.007,-0.279 -0.729,-0.193 -1.089,-0.373l-40.84,-20.42Z" style="fill:#8c8c8c;"/><path d="M46.468,230.09c-1.253,-0.626 -3.082,-0.727 -4.084,-0.226l-41.748,20.873c-1.002,0.501 -0.798,1.416 0.454,2.042l40.84,20.42c1.252,0.626 3.082,0.728 4.084,0.227l41.747,-20.874c1.002,-0.501 0.799,-1.415 -0.453,-2.042l-40.84,-20.42Z" style="fill:#ccc;"/></g><g><path d="M43.691,161.995l-3.39,-1.695l0,87.153l3.39,1.695l0,-87.153Z" style="fill:#1a1a1a;"/><g><g><path d="M96.549,5.653c-20.546,-10.272 -34.68,-6.567 -43.531,11.296c-8.751,17.665 -12.673,70.806 -12.673,92.847c0,28.863 -0.044,101.437 -0.044,101.437l56.248,14.828l0,-220.408Z" style="fill:#f2f2f2;fill-rule:nonzero;"/><g><path id="path8" d="M74.927,50.976c-0.079,-0.072 -0.163,-0.132 -0.248,-0.174c-0.346,-0.173 -0.631,-0.03 -0.631,0.317c0,0.002 0,0.004 0,0.007l0,14.107c-0.001,0.015 -0.002,0.03 -0.002,0.046c0,0.303 0.249,0.677 0.551,0.828c0.163,0.081 0.318,0.087 0.422,0.014l9.961,-4.995c0.12,-0.058 0.187,-0.187 0.187,-0.356c0,-0.258 -0.158,-0.571 -0.398,-0.786c-3.628,-2.108 -7.074,-5.26 -9.847,-9.009" style="fill:#e42026;fill-rule:nonzero;"/><path id="path10" d="M56.406,57.662c-0.033,0.062 -0.05,0.138 -0.05,0.223c0,0.347 0.285,0.775 0.631,0.948c0.003,0.001 0.005,0.002 0.008,0.004l14.085,7.042c0.015,0.009 0.031,0.018 0.047,0.025c0.302,0.152 0.551,0.027 0.551,-0.276c0,-0.162 -0.071,-0.352 -0.195,-0.519l-9.962,-14.957c-0.118,-0.18 -0.28,-0.328 -0.449,-0.412c-0.258,-0.129 -0.491,-0.088 -0.586,0.105c-0.15,1.73 -0.576,3.289 -1.263,4.621c-0.698,1.322 -1.648,2.401 -2.817,3.197" style="fill:#1c9747;fill-rule:nonzero;"/><path id="path12" d="M72.33,84.172c0.078,0.072 0.163,0.132 0.248,0.174c0.346,0.173 0.631,0.03 0.631,-0.317c0,-0.001 0,-0.003 0,-0.005l0,-14.108c0.001,-0.014 0.002,-0.028 0.002,-0.043c0,-0.303 -0.25,-0.678 -0.553,-0.829c-0.162,-0.081 -0.315,-0.087 -0.42,-0.016l-9.961,4.995c-0.121,0.058 -0.189,0.187 -0.189,0.356c0,0.259 0.159,0.573 0.4,0.788c1.802,1.052 3.571,2.363 5.244,3.887c1.668,1.532 3.219,3.258 4.598,5.118" style="fill:#191919;fill-rule:nonzero;"/><path id="path14" d="M90.85,77.485c0.033,-0.061 0.05,-0.137 0.05,-0.222c0,-0.347 -0.285,-0.775 -0.631,-0.948c-0.002,-0.001 -0.004,-0.002 -0.006,-0.003l-14.086,-7.043c-0.015,-0.009 -0.03,-0.017 -0.045,-0.024c-0.303,-0.152 -0.552,-0.027 -0.552,0.277c0,0.162 0.071,0.351 0.194,0.518l9.962,14.956c0.118,0.18 0.28,0.328 0.449,0.412c0.258,0.129 0.491,0.088 0.586,-0.105c0.15,-1.73 0.576,-3.288 1.263,-4.62c0.697,-1.324 1.646,-2.405 2.813,-3.204" style="fill:#191919;fill-rule:nonzero;"/><path id="path16" d="M60.533,72.302c0.096,0.288 0.329,0.563 0.587,0.692c0.168,0.084 0.33,0.098 0.449,0.037l9.961,-4.996c0.124,-0.043 0.195,-0.162 0.195,-0.324c0,-0.303 -0.25,-0.678 -0.553,-0.829c-0.015,-0.008 -0.03,-0.015 -0.045,-0.021l-14.086,-7.043c-0.002,-0.001 -0.003,-0.002 -0.005,-0.002c-0.346,-0.174 -0.631,-0.031 -0.631,0.316c0,0.084 0.017,0.175 0.049,0.268c1.168,1.967 2.117,3.996 2.814,6.016c0.687,2.02 1.113,4.004 1.263,5.884" style="fill:#191919;fill-rule:nonzero;"/><path id="path18" d="M84.888,86.32c0.241,0.025 0.4,-0.129 0.4,-0.388c0,-0.17 -0.068,-0.367 -0.189,-0.546l-9.968,-14.959c-0.105,-0.176 -0.259,-0.324 -0.421,-0.405c-0.303,-0.151 -0.552,-0.026 -0.552,0.277c0,0.015 0,0.03 0.001,0.045l0,14.108c0,0.002 0,0.003 0,0.005c0,0.347 0.285,0.775 0.632,0.948c0.085,0.043 0.169,0.068 0.247,0.073c1.382,-0.478 2.934,-0.652 4.604,-0.515c1.673,0.148 3.442,0.606 5.244,1.357" style="fill:#191919;fill-rule:nonzero;"/><path id="path20" d="M86.724,62.847c-0.096,-0.288 -0.329,-0.563 -0.587,-0.692c-0.168,-0.084 -0.33,-0.098 -0.449,-0.037l-9.961,4.995c-0.124,0.043 -0.195,0.162 -0.195,0.324c0,0.303 0.25,0.678 0.553,0.829c0.015,0.008 0.03,0.015 0.045,0.021l14.085,7.043c0.002,0.001 0.005,0.002 0.007,0.003c0.347,0.174 0.632,0.031 0.632,-0.316c0,-0.085 -0.017,-0.178 -0.051,-0.273c-2.358,-3.957 -3.786,-8.122 -4.079,-11.902" style="fill:#191919;fill-rule:nonzero;"/><path id="path22" d="M65.067,41.136l0,-4.322l6.358,3.179c0.578,1.143 1.055,2.436 1.431,3.878c0.358,1.314 0.548,2.591 0.565,3.79c0,1.579 -0.344,2.823 -1.031,3.732c-0.658,0.896 -1.642,1.423 -2.841,1.524c-1.208,0.106 -2.571,-0.221 -4.09,-0.98c-2.902,-1.408 -5.585,-4.373 -6.898,-7.621c-0.68,-1.644 -1.02,-3.284 -1.019,-4.92c0.003,-1.219 0.222,-2.321 0.644,-3.255c0.435,-0.977 1.014,-1.69 1.736,-2.141l3.454,4.578c-0.512,0.26 -0.921,0.663 -1.205,1.19c-0.28,0.477 -0.431,1.071 -0.443,1.744c-0.007,0.611 0.162,1.299 0.488,1.982c0.326,0.683 0.789,1.334 1.338,1.882c0.592,0.592 1.247,1.069 1.909,1.389c0.673,0.349 1.34,0.53 1.942,0.527c0.551,-0.004 1.016,-0.196 1.345,-0.555c0.327,-0.364 0.497,-0.891 0.488,-1.516c0,-0.551 -0.174,-1.305 -0.521,-2.264l-3.65,-1.825l0,0.004Z" style="fill:#191919;fill-rule:nonzero;"/></g><g><path d="M59.946,90.419l0,106.254l12.718,6.36l0,-106.255l-12.718,-6.359Z" style="fill:#d9d9d9;"/><path d="M78.208,99.844l0,76.043l9.102,4.551l0,-76.043l-9.102,-4.551Z" style="fill:#d9d9d9;"/></g><path d="M96.549,8.79c-18.554,-8.037 -31.52,-3.744 -39.829,13.026c-8.751,17.664 -12.673,70.805 -12.673,92.846c0,24.855 -0.032,82.119 -0.041,97.547l-3.705,-0.976c0,0 0.044,-72.574 0.044,-101.437c0,-22.041 3.922,-75.182 12.673,-92.847c8.851,-17.863 22.985,-21.568 43.531,-11.296l0,3.137Z" style="fill:#d9d9d9;fill-rule:nonzero;"/></g></g></g></g></svg>