<?xml version="1.0" encoding="utf-8"?>
<!-- Generator: Adobe Illustrator 21.0.0, SVG Export Plug-In . SVG Version: 6.00 Build 0)  -->
<svg version="1.1" id="Livello_1" xmlns="http://www.w3.org/2000/svg" xmlns:xlink="http://www.w3.org/1999/xlink" x="0px" y="0px"
	 viewBox="0 0 453.5 453.5" style="enable-background:new 0 0 453.5 453.5;" xml:space="preserve">
<style type="text/css">
	.st0{fill:#C73437;}
	.st1{fill:#289548;}
	.st2{fill:#242021;}
</style>
<g>
	<path class="st0" d="M351.9,242.8c1.6-4-1.3-8.3-5.6-8.3H212.5c-2.5,0-4.3,1.4-5.3,3.2c-0.6,2-0.3,4.3,1.5,6l94.6,94.6
		c3,3,8.2,2,9.8-2c0,0,1.2-23.8,12-49.8C336,260.5,351.9,242.8,351.9,242.8"/>
	<path class="st1" d="M200.6,66.8c-4-1.6-8.3,1.3-8.3,5.6v133.8c0,2.5,1.4,4.3,3.2,5.3c2,0.6,4.3,0.3,6-1.5l94.7-94.7
		c3-3,2-8.2-2-9.8c0,0-23.8-1.2-49.8-12C218.3,82.8,200.6,66.8,200.6,66.8"/>
	<path class="st2" d="M24.7,218.1c-1.6,4,1.3,8.3,5.6,8.3h133.8c2.4,0,4.3-1.4,5.3-3.2c0.6-2,0.3-4.3-1.5-6l-94.6-94.6
		c-3-3-8.2-2-9.9,2c0,0-1.2,23.8-12,49.8C40.6,200.5,24.7,218.1,24.7,218.1"/>
	<path class="st2" d="M176,394.1c4,1.7,8.3-1.3,8.3-5.6V254.7c0-2.5-1.4-4.3-3.2-5.3c-2-0.6-4.3-0.3-6,1.5l-94.6,94.7
		c-3,3-2,8.2,2,9.8c0,0,23.8,1.2,49.8,12C158.3,378.2,176,394.1,176,394.1"/>
	<path class="st2" d="M81.3,106c-4,1.6-5,6.8-2,9.8l94.7,94.7c1.7,1.7,4,2.1,6,1.5c1.8-1,3.2-2.8,3.2-5.3V72.9
		c0-4.3-4.4-7.2-8.3-5.6c0,0-17.7,15.9-43.7,26.7C105.1,104.8,81.3,106,81.3,106"/>
	<path class="st2" d="M63.9,337.5c1.6,4,6.8,5,9.9,2l94.6-94.6c1.7-1.7,2.1-4,1.5-6c-1-1.8-2.8-3.2-5.3-3.2H30.7
		c-4.3,0-7.2,4.4-5.6,8.3c0,0,15.9,17.7,26.7,43.7C62.7,313.7,63.9,337.5,63.9,337.5"/>
	<path class="st2" d="M295.3,354.9c4-1.6,5-6.8,2-9.8l-94.6-94.7c-1.7-1.7-4-2.1-6-1.5c-1.8,1-3.2,2.8-3.2,5.3v133.8
		c0,4.3,4.4,7.2,8.3,5.6c0,0,17.7-15.9,43.7-26.7C271.5,356.1,295.3,354.9,295.3,354.9"/>
	<path class="st2" d="M398.5,149.1h41v60.4c-8.1,5.5-18.1,10-30,13.6c-11.9,3.6-23,5.4-33.3,5.4c-15,0-28.4-3.3-40.3-9.8
		c-11.9-6.5-21.2-15.5-27.9-27c-6.7-11.5-10.1-24.4-10.1-38.9c0-14.3,3.5-27.2,10.5-38.6c7-11.5,16.7-20.4,29.1-26.9
		c12.4-6.5,26.3-9.7,41.8-9.7c11.3,0,22.6,2.1,33.9,6.2c11.3,4.1,20.9,9.6,28.6,16.5l-27,32.8c-4.8-4.8-10.5-8.6-17-11.4
		c-6.5-2.8-12.8-4.2-18.7-4.2c-6,0-11.5,1.5-16.5,4.6c-4.9,3.1-8.8,7.3-11.5,12.7c-2.7,5.4-4.1,11.4-4.1,18.1c0,6.9,1.4,13,4.2,18.4
		c2.8,5.4,6.7,9.7,11.7,12.8c4.9,3.1,10.5,4.6,16.7,4.6c5.2,0,11.5-1.6,19-4.9V149.1L398.5,149.1z"/>
</g>
</svg>
