<?xml version="1.0" standalone="no"?>
<!DOCTYPE svg PUBLIC "-//W3C//DTD SVG 1.1//EN" "http://www.w3.org/Graphics/SVG/1.1/DTD/svg11.dtd" >
<svg xmlns="http://www.w3.org/2000/svg">
<metadata>Generated by IcoMoon</metadata>
<defs>
<font id="icomoon" horiz-adv-x="1024">
<font-face units-per-em="1024" ascent="960" descent="-64" />
<missing-glyph horiz-adv-x="1024" />
<glyph unicode="&#x20;" horiz-adv-x="512" d="" />
<glyph unicode="&#xe900;" glyph-name="account" d="M640 640c0-70.692-57.308-128-128-128s-128 57.308-128 128c0 70.692 57.308 128 128 128s128-57.308 128-128zM127.936 128c62.752 150.272 211.136 256 384.064 256s321.312-105.728 384.064-256h-144.608c-51.712 77.152-139.68 128-239.456 128s-187.744-50.848-239.456-128h-144.608z" />
<glyph unicode="&#xe901;" glyph-name="addaccount" d="M896 640c0-70.692-57.308-128-128-128s-128 57.308-128 128c0 70.692 57.308 128 128 128s128-57.308 128-128zM528.544 128h-144.608c62.752 150.272 211.136 256 384.064 256 44.64 0 87.68-7.040 128-20.096v-137.888c-38.56 19.2-82.048 29.984-128 29.984-99.776 0-187.744-50.848-239.456-128zM128 640h128v128h128v-128h128v-128h-128v-128h-128v128h-128v128z" />
<glyph unicode="&#xe902;" glyph-name="addtocart" d="M800 192c0-35.346-28.654-64-64-64s-64 28.654-64 64c0 35.346 28.654 64 64 64s64-28.654 64-64zM480 192c0-35.346-28.654-64-64-64s-64 28.654-64 64c0 35.346 28.654 64 64 64s64-28.654 64-64zM256 640h-128v128h128l128-128h466.976c10.592 0 20.544-4.992 26.88-13.504 6.304-8.48 8.256-19.488 5.216-29.632-20.64-68.8-60.32-201.056-76.224-254.048-4.064-13.536-16.512-22.816-30.656-22.816-77.632 0-322.752 0-400.384 0-14.144 0-26.592 9.28-30.656 22.816-21.952 73.152-89.152 297.184-89.152 297.184zM608 512v64h-64v-64h-64v-64h64v-64h64v64h64v64h-64z" />
<glyph unicode="&#xe903;" glyph-name="arrow" d="M540.932 206.227c-6.243-9.996-17.161-16.035-28.932-16.035s-22.688 6.039-28.932 16.035c-63.185 101.090-213.2 341.106-279.626 447.381-6.551 10.508-6.926 23.78-0.887 34.629 6.005 10.849 17.434 17.57 29.819 17.57 129.68 0 429.572 0 559.252 0 12.385 0 23.814-6.721 29.819-17.57 6.039-10.849 5.663-24.121-0.887-34.629-66.427-106.276-216.441-346.291-279.626-447.381z" />
<glyph unicode="&#xe904;" glyph-name="cart" d="M800 192c0-35.346-28.654-64-64-64s-64 28.654-64 64c0 35.346 28.654 64 64 64s64-28.654 64-64zM480 192c0-35.346-28.654-64-64-64s-64 28.654-64 64c0 35.346 28.654 64 64 64s64-28.654 64-64zM256 640h-128v128h128l128-128h466.976c10.592 0 20.544-4.992 26.88-13.504 6.304-8.48 8.256-19.488 5.216-29.632-20.64-68.8-60.32-201.056-76.224-254.048-4.064-13.536-16.512-22.816-30.656-22.816-77.632 0-322.752 0-400.384 0-14.144 0-26.592 9.28-30.656 22.816-21.952 73.152-89.152 297.184-89.152 297.184z" />
<glyph unicode="&#xe905;" glyph-name="closed" d="M512 544l224 224 96-96-224-224 224-224-96-96-224 224-224-224-96 96 224 224-224 224 96 96 224-224z" />
<glyph unicode="&#xe906;" glyph-name="contact" d="M832 128l-192 192h-448v448h640v-640zM640 512h-320v-64h320v64zM704 640h-384v-64h384v64z" />
<glyph unicode="&#xe907;" glyph-name="creditcard" d="M896 480v-224c0-16.96-6.752-33.248-18.752-45.248s-28.288-18.752-45.248-18.752c-144.64 0-495.36 0-640 0-16.96 0-33.248 6.752-45.248 18.752s-18.752 28.288-18.752 45.248v224h768zM128 576v64c0 16.96 6.752 33.248 18.752 45.248s28.288 18.752 45.248 18.752c144.64 0 495.36 0 640 0 16.96 0 33.248-6.752 45.248-18.752s18.752-28.288 18.752-45.248v-64h-768z" />
<glyph unicode="&#xe908;" glyph-name="delete" d="M192 736h256v32h128v-32h256v-64h-640v64zM768 608v-480h-512v480h512zM416 544h-64v-352h64v352zM672 544h-64v-352h64v352zM544 544h-64v-352h64v352z" />
<glyph unicode="&#xe909;" glyph-name="duplicate" d="M576 768h320v-128h-320v128zM128 256h320v-128h-320v128zM128 640h128v128h128v-128h128v-128h-128v-128h-128v128h-128v128zM896 256h-128v-128h-128v128h-128v128h128v128h128v-128h128v-128z" />
<glyph unicode="&#xe90a;" glyph-name="fast" d="M832 768v-640h-640v640h640zM768 704h-512v-512h512v512zM480 608h64v-128h160v-64h-224v192z" />
<glyph unicode="&#xe90b;" glyph-name="fax" d="M832 645.056v-485.056h-416v576h320l96-90.944zM480 672v-448h288v393.536l-57.504 54.464h-230.496zM512 608h192v-32h-192v32zM512 544h224v-32h-224v32zM512 480h160v-32h-160v32zM512 416h192v-32h-192v32zM640 288h96v-32h-96v32zM357.76 628.512c-1.632-9.824-10.144-17.024-20.128-17.024-3.36 0-6.944 0-10.56 0-16.48 0.032-30.848-11.232-34.72-27.232-23.84-100.512-22.112-192.288-0.288-277.28 4.192-15.52 18.272-26.304 34.368-26.304 4.512-0.128 9.024-0.128 13.088-0.128 9.12 0 17.12-6.016 19.616-14.784 5.792-20.224 16.288-56.992 23.68-82.848 4.608-16.192-4.608-33.056-20.736-37.984-13.888-4.256-30.944-9.472-46.88-14.336-29.472-9.024-60.96 6.144-72.192 34.784-32.576 87.392-51.008 185.408-51.008 288.928 0 98.208 16.576 191.488 46.336 275.36 10.048 27.2 38.56 42.976 67.040 37.12 14.848-2.88 30.688-6.144 43.808-8.832 16.288-3.36 27.008-18.944 24.288-35.328-4.768-28.48-11.808-70.784-15.712-94.112z" />
<glyph unicode="&#xe90c;" glyph-name="hamburgher" d="M128 768h512v-128h-512v128zM128 512h768v-128h-768v128zM128 256h640v-128h-640v128z" />
<glyph unicode="&#xe90d;" glyph-name="mail" d="M896 641.44c0 16.576-6.592 32.512-18.336 44.224-11.712 11.744-27.648 18.336-44.224 18.336-144.224 0-498.656 0-642.88 0-16.576 0-32.512-6.592-44.224-18.336-11.744-11.712-18.336-27.648-18.336-44.224 0-98.464 0-288.416 0-386.88 0-16.576 6.592-32.512 18.336-44.224 11.712-11.744 27.648-18.336 44.224-18.336 144.224 0 498.656 0 642.88 0 16.576 0 32.512 6.592 44.224 18.336 11.744 11.712 18.336 27.648 18.336 44.224 0 98.464 0 288.416 0 386.88zM128 608c0 0 259.328-151.264 351.744-205.184 19.936-11.616 44.576-11.616 64.512 0 92.416 53.92 351.744 205.184 351.744 205.184v-96c0 0-259.328-151.264-351.744-205.184-19.936-11.616-44.576-11.616-64.512 0-92.416 53.92-351.744 205.184-351.744 205.184v96z" />
<glyph unicode="&#xe90e;" glyph-name="modify" d="M127.232 63.232l76.952 192.384 115.432-115.432-192.384-76.952zM627.432 678.86l-352.448-346.292 121.588-115.432 346.292 346.292-115.432 115.432zM881.184 701.756c8.62 8.62 8.62 22.548 0 31.168-22.084 22.084-62.18 62.18-84.264 84.264-8.62 8.62-22.548 8.62-31.168 0-22.508-22.508-61.372-61.372-61.372-61.372l115.432-115.432c0 0 38.86 38.86 61.372 61.372z" />
<glyph unicode="&#xe90f;" glyph-name="money" d="M192 672h640.8c11.552-0.16 22.4-3.36 31.712-8.864 4.608-2.72 8.896-6.048 12.736-9.888s7.168-8.128 9.888-12.736c5.504-9.312 8.704-20.16 8.864-31.712v-0.8c0-71.040 0-248.96 0-320 0-0.128 0-0.256 0-0.416v0-0.384c-0.16-11.552-3.36-22.4-8.864-31.712-2.72-4.608-6.048-8.896-9.888-12.736s-8.128-7.168-12.736-9.888c-9.312-5.504-20.16-8.704-31.712-8.864v0h-0.8c-144.64 0-495.36 0-640 0v0 0h-0.8c-11.552 0.16-22.4 3.36-31.712 8.864-4.608 2.72-8.896 6.048-12.736 9.888s-7.168 8.128-9.888 12.736c-5.504 9.312-8.704 20.16-8.864 31.712v0 0.384c0 0.16 0 0.288 0 0.416 0 71.040 0 248.96 0 320 0 0.128 0 0.256 0 0.416v0 0.384c0.16 11.552 3.36 22.4 8.864 31.712 2.72 4.608 6.048 8.896 9.888 12.736s8.128 7.168 12.736 9.888c9.312 5.504 20.16 8.704 31.712 8.864v0h0.8zM256 608c0-35.328-28.672-64-64-64 0 0 0-192 0-192 35.328 0 64-28.672 64-64h512c0 35.328 28.672 64 64 64 0 0 0 192 0 192-35.328 0-64 28.672-64 64h-512zM608 448c0-53.019-42.981-96-96-96s-96 42.981-96 96c0 53.019 42.981 96 96 96s96-42.981 96-96z" />
<glyph unicode="&#xe910;" glyph-name="new" d="M256 256h640v-128h-640v128zM576 768h320v-128h-320v128zM640 512h256v-128h-256v128zM128 640h128v128h128v-128h128v-128h-128v-128h-128v128h-128v128z" />
<glyph unicode="&#xe911;" glyph-name="phone" d="M381.728 685.563c6.824-9.792 5.658-23.121-2.81-31.55-7.066-7.104-15.775-15.812-23.725-23.765-13.854-13.807-16.661-35.204-6.863-52.142 79.966-137.168 181.003-233.751 298.336-298.895 16.783-9.111 37.533-6.104 51.022 7.384 8.83 8.672 18.547 18.426 26.090 25.931 7.666 7.71 19.471 9.435 29.063 4.333 27.74-14.73 85.018-45.198 121.747-64.79 8.868-4.695 15.495-12.807 18.342-22.44s1.69-20.031-3.211-28.824c-14.61-26.332-35.322-63.55-52.226-94.015-17.343-31.233-55.073-44.796-88.351-31.793-132.912 54.233-261.127 137.85-373.244 249.965-106.178 106.178-186.743 226.723-240.855 352.167-13.051 31.233-2.287 67.319 25.772 86.306 26.575 18.224 59.131 40.261 82.491 56.039 16.979 11.481 39.98 7.225 51.703-9.595 25.249-36.17 66.554-95.416 86.707-124.324z" />
<glyph unicode="&#xe912;" glyph-name="pinmaps" d="M291.432 409.6c0 0 0 0 0 0 36.748-57.6 220.568-345.6 220.568-345.6s177.332 264.692 222.144 347.904c25.036 46.464 46.656 95.192 46.656 151.296 0 148.34-120.46 268.8-268.8 268.8s-268.8-120.46-268.8-268.8c0-57.1 17.856-110.056 48.232-153.6zM512 755.2c105.984 0 192-86.016 192-192s-86.016-192-192-192c-105.984 0-192 86.016-192 192s86.016 192 192 192zM588.8 563.2c0-42.414-34.386-76.8-76.8-76.8s-76.8 34.386-76.8 76.8c0 42.414 34.386 76.8 76.8 76.8s76.8-34.386 76.8-76.8z" />
<glyph unicode="&#xe913;" glyph-name="quality" d="M476.32 431.488c3.264-3.328 7.712-5.216 12.384-5.216 4.64-0.032 9.12 1.824 12.416 5.12 22.496 22.528 69.568 69.696 91.232 91.392 2.976 3.008 7.072 4.704 11.328 4.704 4.224 0 8.32-1.696 11.296-4.704 4.96-4.96 10.784-10.784 15.744-15.744 6.24-6.272 6.24-16.384 0-22.624-28.096-28.128-100.992-101.152-129.92-130.144-3.232-3.232-7.584-5.024-12.128-5.024s-8.896 1.792-12.128 5.024c-11.232 11.232-26.208 26.24-26.208 26.24s-34.592 34.688-53.056 53.152c-6.24 6.24-6.24 16.384 0 22.624 5.056 5.056 11.008 11.040 16.096 16.128 3.008 3.008 7.104 4.704 11.392 4.704 4.256-0.032 8.352-1.76 11.328-4.8 11.296-11.456 28.576-29.024 40.224-40.832zM624.48 719.52l-112.48 112.48-112.48-112.48h-159.040v-159.040l-112.48-112.48 112.48-112.48v-159.040h159.040l112.48-112.48 112.48 112.48h159.040v159.040l112.48 112.48-112.48 112.48v159.040h-159.040zM512 640c105.952 0 192-86.048 192-192s-86.048-192-192-192c-105.952 0-192 86.048-192 192s86.048 192 192 192z" />
<glyph unicode="&#xe914;" glyph-name="ship" d="M384 208c0-44.183-35.817-80-80-80s-80 35.817-80 80c0 44.183 35.817 80 80 80s80-35.817 80-80zM800 208c0-44.183-35.817-80-80-80s-80 35.817-80 80c0 44.183 35.817 80 80 80s80-35.817 80-80zM544 352h352v-64h-768c0 0 0 285.312 0 416 0 16.96 6.752 33.248 18.752 45.248s28.288 18.752 45.248 18.752c116.672 0 352 0 352 0v-416zM864 562.272c0 8.512-3.392 16.672-9.408 22.688-23.84 23.744-86.336 86.016-110.112 109.696-6.016 5.984-14.112 9.344-22.592 9.344-32.544 0-113.888 0-113.888 0v-288h256c0 0 0 107.968 0 146.272z" />
<glyph unicode="&#xe915;" glyph-name="validate" d="M449.745 403.221l298.136 298.136 104.269-104.309-402.405-402.405-277.893 277.893 104.269 104.309 173.622-173.622z" />
<glyph unicode="&#xea82;" glyph-name="share2" d="M776 304c-33.872 0-64.44-14.052-86.26-36.622l-323.252 161.63c0.986 6.188 1.512 12.53 1.512 18.996s-0.526 12.804-1.512 18.996l323.252 161.63c21.82-22.57 52.388-36.62 86.26-36.62 66.277 0 120 53.725 120 120s-53.725 120-120 120-120-53.725-120-120c0-6.468 0.528-12.804 1.512-18.996l-323.252-161.63c-21.82 22.57-52.388 36.622-86.26 36.622-66.277 0-120-53.725-120-120s53.725-120 120-120c33.872 0 64.44 14.052 86.26 36.62l323.252-161.63c-0.984-6.186-1.512-12.528-1.512-18.996 0-66.277 53.725-120 120-120s120 53.725 120 120c0 66.276-53.725 120-120 120z" />
<glyph unicode="&#xea90;" glyph-name="facebook" d="M584 688h120v144h-120c-92.634 0-168-75.366-168-168v-72h-96v-144h96v-384h144v384h120l24 144h-144v72c0 13.010 10.99 24 24 24z" />
<glyph unicode="&#xea92;" glyph-name="instagram" d="M512 762.832c102.592 0 114.744-0.448 155.088-2.248 37.496-1.648 57.744-7.952 71.248-13.2 17.848-6.898 30.748-15.296 44.096-28.648 13.496-13.496 21.75-26.248 28.8-44.096 5.248-13.496 11.552-33.896 13.2-71.248 1.8-40.496 2.248-52.648 2.248-155.088s-0.448-114.744-2.248-155.088c-1.648-37.496-7.952-57.744-13.2-71.248-6.898-17.848-15.296-30.748-28.648-44.096-13.496-13.496-26.248-21.75-44.096-28.8-13.496-5.248-33.896-11.552-71.248-13.2-40.496-1.8-52.648-2.248-155.088-2.248s-114.744 0.448-155.088 2.248c-37.496 1.648-57.744 7.952-71.248 13.2-17.848 6.898-30.748 15.296-44.096 28.648-13.496 13.496-21.75 26.248-28.8 44.096-5.248 13.496-11.552 33.896-13.2 71.248-1.8 40.496-2.248 52.648-2.248 155.088s0.448 114.744 2.248 155.088c1.648 37.496 7.952 57.744 13.2 71.248 6.898 17.848 15.296 30.748 28.648 44.096 13.496 13.496 26.248 21.75 44.096 28.8 13.496 5.248 33.896 11.552 71.248 13.2 40.345 1.8 52.496 2.248 155.088 2.248zM512 831.976c-104.241 0-117.293-0.448-158.24-2.248-40.8-1.8-68.848-8.4-93.144-17.848-25.349-9.897-46.8-22.95-68.096-44.4-21.448-21.296-34.496-42.745-44.4-67.944-9.448-24.448-16.048-52.344-17.848-93.144-1.8-41.096-2.248-54.144-2.248-158.392s0.448-117.293 2.248-158.24c1.8-40.8 8.4-68.848 17.848-93.144 9.897-25.349 22.95-46.8 44.4-68.096 21.296-21.296 42.745-34.496 67.944-44.248 24.448-9.448 52.344-16.048 93.144-17.848 40.945-1.8 53.998-2.248 158.24-2.248s117.293 0.448 158.24 2.248c40.8 1.8 68.848 8.4 93.144 17.848 25.2 9.752 46.648 22.95 67.944 44.248s34.496 42.745 44.248 67.944c9.448 24.448 16.048 52.344 17.848 93.144 1.8 40.945 2.248 53.998 2.248 158.24s-0.448 117.293-2.248 158.24c-1.8 40.8-8.4 68.848-17.848 93.144-9.448 25.496-22.496 46.944-43.945 68.248-21.296 21.296-42.745 34.496-67.944 44.248-24.448 9.448-52.344 16.048-93.144 17.848-41.096 1.952-54.144 2.4-158.392 2.4v0zM512 645.24c-108.896 0-197.24-88.344-197.24-197.24s88.344-197.24 197.24-197.24 197.24 88.344 197.24 197.24c0 108.896-88.344 197.24-197.24 197.24zM512 320.056c-70.648 0-127.944 57.296-127.944 127.944s57.296 127.944 127.944 127.944c70.648 0 127.944-57.296 127.944-127.944s-57.296-127.944-127.944-127.944zM763.083 653.039c0-25.43-20.618-46.048-46.048-46.048s-46.048 20.618-46.048 46.048c0 25.43 20.618 46.048 46.048 46.048s46.048-20.618 46.048-46.048z" />
<glyph unicode="&#xea96;" glyph-name="twitter" d="M866.359 645.662c-26.026-11.63-54.119-19.378-83.468-22.844 30.042 17.995 53.019 46.507 63.949 80.427-28.099-16.612-59.247-28.792-92.324-35.296-26.576 28.242-64.365 45.821-106.17 45.821-80.283 0-145.343-65.060-145.343-145.343 0-11.347 1.25-22.427 3.734-33.083-120.843 6.091-227.983 63.949-299.683 151.991-12.461-21.459-19.659-46.507-19.659-73.085 0-50.386 25.61-94.957 64.646-120.983-23.81 0.693-46.237 7.333-65.887 18.13 0-0.55 0-1.25 0-1.799 0-70.458 50.106-129.282 116.686-142.577-12.18-3.32-25.058-5.119-38.339-5.119-9.414 0-18.412 0.966-27.409 2.633 18.545-57.718 72.257-99.806 135.796-101.049-49.836-39.039-112.402-62.288-180.639-62.288-11.763 0-23.258 0.693-34.74 2.078 64.502-41.388 140.911-65.332 222.998-65.332 267.427 0 413.742 221.613 413.742 413.742 0 6.365-0.135 12.596-0.417 18.828 28.375 20.344 53.019 45.954 72.53 75.162z" />
<glyph unicode="&#xead1;" glyph-name="pinterest" d="M512 831.917c-212.034 0-383.917-171.877-383.917-383.917 0-162.707 101.258-301.525 244.057-357.43-3.289 30.292-6.403 77.028 1.382 110.084 6.924 29.942 45.005 190.743 45.005 190.743s-11.424 23.023-11.424 56.945c0 53.314 30.983 93.298 69.409 93.298 32.715 0 48.636-24.58 48.636-54.005 0-32.889-20.941-82.216-31.849-127.741-9.176-38.252 19.043-69.409 56.772-69.409 68.196 0 120.642 72.007 120.642 175.861 0 91.909-66.12 156.129-160.284 156.129-109.218 0-173.265-81.874-173.265-166.687 0-33.060 12.636-68.369 28.56-87.586 3.114-3.805 3.636-7.094 2.598-11.076-2.94-12.115-9.348-38.252-10.733-43.62-1.732-7.094-5.537-8.484-12.806-5.196-47.944 22.331-77.892 92.432-77.892 148.686 0 121.165 87.928 232.285 253.574 232.285 133.107 0 236.613-94.855 236.613-221.726 0-132.241-83.431-238.861-199.227-238.861-38.943 0-75.468 20.25-87.928 44.139 0 0-19.212-73.215-23.889-91.217-8.652-33.406-32.024-75.121-47.772-100.567 36.004-11.076 74.081-17.136 113.723-17.136 212.034 0 383.917 171.877 383.917 383.917 0 212.208-171.877 384.085-383.917 384.085z" />
</font>
</defs>
</svg>
