<?xml version="1.0" encoding="UTF-8" standalone="no"?>
<!DOCTYPE svg PUBLIC "-//W3C//DTD SVG 1.1//EN" "http://www.w3.org/Graphics/SVG/1.1/DTD/svg11.dtd">
<svg width="100%" height="100%" viewBox="0 0 32 32" version="1.1" xmlns="http://www.w3.org/2000/svg" xmlns:xlink="http://www.w3.org/1999/xlink" xml:space="preserve" xmlns:serif="http://www.serif.com/" style="fill-rule:evenodd;clip-rule:evenodd;stroke-linejoin:round;stroke-miterlimit:2;">
    <g transform="matrix(1,0,0,1,-82,0)">
        <rect id="account" x="82" y="0" width="32" height="32" style="fill:none;"/>
        <g id="account1" serif:id="account">
            <g transform="matrix(1.14286,0,0,1.14286,-16.8571,-0.857143)">
                <circle cx="100.5" cy="9.5" r="3.5"/>
            </g>
            <g transform="matrix(1.14286,0,0,1.14286,-16.8571,-0.857143)">
                <circle cx="100.5" cy="9.5" r="3.5"/>
            </g>
            <path d="M85.998,26C87.959,21.304 92.596,18 98,18C103.404,18 108.041,21.304 110.002,26L105.483,26C103.867,23.589 101.118,22 98,22C94.882,22 92.133,23.589 90.517,26L85.998,26Z"/>
            <path d="M85.998,26C87.959,21.304 92.596,18 98,18C103.404,18 108.041,21.304 110.002,26L105.483,26C103.867,23.589 101.118,22 98,22C94.882,22 92.133,23.589 90.517,26L85.998,26Z"/>
        </g>
    </g>
</svg>
