<svg viewBox="0 0 500 500" xmlns="http://www.w3.org/2000/svg" fill-rule="evenodd" clip-rule="evenodd" stroke-linecap="round" stroke-linejoin="round" stroke-miterlimit="1.5"><path fill="none" d="M0 0h500v500H0z"/><clipPath id="a"><path d="M0 0h500v500H0z"/></clipPath><g clip-path="url(#a)"><path fill="none" d="M32.5 35h435v435h-435z"/><path d="M243.121 38.967a13.78 13.78 0 0113.758 0c29.487 17.029 145.116 83.787 174.603 100.816a13.743 13.743 0 016.879 11.907v201.62c0 4.912-2.622 9.454-6.879 11.907-29.487 17.029-145.116 83.787-174.603 100.816a13.78 13.78 0 01-13.758 0c-29.487-17.029-145.116-83.787-174.603-100.816a13.743 13.743 0 01-6.879-11.907V151.69c0-4.912 2.622-9.454 6.879-11.907 29.487-17.029 145.116-83.787 174.603-100.816z" fill="url(#_Linear2)"/><path d="M227.223 454.485l7.68-4.431V104.31l-7.68 4.431v345.744z" fill="#b3b3b3"/><path d="M219.55 104.31l7.673-4.431 7.68 4.431-7.68 4.431-7.673-4.431z" fill="#e6e6e6"/><path d="M227.223 454.404l-7.673-4.35V104.31l7.673 4.431v345.663z" fill="#8c8c8c"/><path d="M241.3 369.95s2.419 39.301-1.079 47.85c-3.503 8.549-3.039 12.58-3.271 19.575-.232 6.995 2.175 15.225 2.175 15.225M232.664 448.25V125.422s.023-12.505 3.95-8.584c3.926 3.927 3.596 12.777 3.596 12.777" fill="none" stroke="#fff" stroke-width="2.9"/><path d="M241.3 148.1s.249-5.957-2.587-11.554c-2.836-5.597 2.871-11.112 4.762-5.846 1.891 5.266.278 6.432 0 8.7-.278 2.268.4 5.377-2.175 8.7z" fill="none" stroke="#fff" stroke-width="2.9"/><path d="M422.585 248.475v96.906c0 4.408-2.349 8.474-6.16 10.678l-102.834 59.369L250 378.018l-13.05-7.621V141.575l185.635 106.9z" fill="#fff"/><path d="M245.65 375.512V146.586l-8.7-5.011v228.822l8.7 5.115z" fill="#ccc"/><g fill-rule="nonzero"><path d="M397.981 310.703c.371-.969-.284-2.651-1.247-3.207l-29.928-17.279c-.551-.319-.963-.145-1.183.279-.139.51-.064 1.235.325 1.978l21.164 40.437c.684 1.299 1.833 1.665 2.204.685 0 0 .273-6.926 2.685-13.3 2.413-6.38 5.98-9.593 5.98-9.593" fill="#ff1a21"/><path d="M364.15 238.708c-.888-1.01-1.868-.696-1.868.585v39.904c0 .737.308 1.462.719 1.996.447.435.957.632 1.346.336l21.164-15.996c.679-.517.453-2.187-.435-3.19 0 0-5.318-3.434-11.147-10.017-5.829-6.583-9.779-13.618-9.779-13.618" fill="#00983e"/><path d="M324.803 261.101c-.372.969.278 2.651 1.247 3.208l29.928 17.284c.551.313.962.139 1.183-.284.133-.511.064-1.236-.331-1.978l-21.158-40.438c-.685-1.299-1.839-1.664-2.204-.684 0 0-.279 6.925-2.691 13.299-2.413 6.38-5.974 9.593-5.974 9.593M358.634 333.097c.887 1.003 1.868.702 1.868-.586v-39.904c0-.731-.314-1.462-.725-1.995-.441-.435-.952-.632-1.34-.342l-21.164 16.008c-.685.51-.453 2.18.435 3.184 0 0 5.318 3.433 11.141 10.016 5.829 6.583 9.785 13.619 9.785 13.619M337.47 234.99c-.893-.023-1.12 1.386-.441 2.685l21.164 40.438c.389.742.899 1.137 1.346 1.212.412-.058.719-.429.719-1.16v-39.904c0-1.288-.974-2.72-1.868-2.743 0 0-3.949 2.47-9.773 2.325-5.829-.145-11.147-2.847-11.147-2.847M333.566 301.736c.366 1.398 1.526 2.372 2.204 1.856l21.165-15.996c.388-.296.458-.934.324-1.607-.22-.678-.632-1.328-1.183-1.641l-29.928-17.278c-.963-.557-1.618.365-1.247 1.769 0 0 3.561 7.325 5.98 16.489 2.413 9.164 2.685 16.408 2.685 16.408M385.314 336.815c.887.023 1.119-1.387.435-2.686l-21.158-40.437c-.389-.743-.899-1.137-1.346-1.213-.412.058-.719.43-.719 1.166v39.904c0 1.282.98 2.72 1.867 2.744 0 0 3.95-2.477 9.779-2.326 5.829.145 11.142 2.848 11.142 2.848M408.404 288.791l9.17 5.295v18.009c-1.81.592-4.049.65-6.705.186a22.573 22.573 0 01-7.442-2.703c-3.352-1.932-6.356-4.64-9.013-8.12-2.662-3.48-4.744-7.366-6.246-11.658-1.508-4.292-2.262-8.584-2.262-12.888 0-4.263.783-7.65 2.354-10.161 1.566-2.518 3.736-3.944 6.496-4.275 2.767-.325 5.887.51 9.362 2.517 2.517 1.456 5.046 3.527 7.58 6.218 2.535 2.697 4.663 5.562 6.386 8.601l-6.038 6.293a29.566 29.566 0 00-3.805-5.614c-1.461-1.682-2.853-2.9-4.17-3.66-1.357-.783-2.581-1.032-3.689-.748-1.107.278-1.966 1.044-2.581 2.285-.614 1.241-.922 2.871-.922 4.878 0 2.053.313 4.066.94 6.043.632 1.984 1.502 3.759 2.61 5.313 1.108 1.566 2.349 2.744 3.729 3.538 1.172.679 2.581 1.004 4.246.975v-10.324z" fill="#1f191a"/></g><path d="M395.267 373.929l-113.976-65.801v25.015l94.296 54.445 19.68-13.659zM361.453 395.035l-72.657-41.946v10.382l63.957 36.923 8.7-5.359z" fill="#e6e6e6"/><path d="M238.412 113.799c2.192 1.328 3.973 4.901 3.973 7.969 0 3.074-1.781 4.483-3.973 3.155-2.199-1.328-3.979-4.901-3.979-7.969 0-3.068 1.78-4.483 3.979-3.155z" fill="url(#_Linear3)"/><path d="M236.637 114.727c2.198 1.328 3.979 4.901 3.979 7.969 0 3.068-1.781 4.483-3.979 3.155-2.193-1.328-3.973-4.901-3.973-7.969 0-3.074 1.78-4.483 3.973-3.155z" fill="gray"/><path d="M236.155 119.616l-6.82-3.932v3.056l6.82 3.933v-3.057z" fill="#404040"/><g><path d="M250 25l194.856 112.5v225L250 475 55.144 362.5v-225L250 25zm0 25l173.205 100v200L250 450 76.795 350V150L250 50z" fill="url(#_Linear4)"/><path d="M250 25l194.856 112.5v225L250 475 55.144 362.5v-225L250 25zm0 25l173.205 100v200L250 450 76.795 350V150L250 50z" fill="url(#_Linear5)"/><g><path d="M250 25l194.856 112.5v225L250 475 55.144 362.5v-225L250 25zm0 25l173.205 100v200L250 450 76.795 350V150L250 50z" fill="url(#_Linear6)"/><path d="M250 25l194.856 112.5v225L250 475 55.144 362.5v-225L250 25zm0 25l173.205 100v200L250 450 76.795 350V150L250 50z" fill="url(#_Linear7)"/></g></g></g><defs><linearGradient id="_Linear2" x1="0" y1="0" x2="1" y2="0" gradientUnits="userSpaceOnUse" gradientTransform="rotate(90 27.196 129.622) scale(365.398)"><stop offset="0" stop-color="#d4d4d4"/><stop offset="1" stop-color="#fff"/></linearGradient><linearGradient id="_Linear3" x1="0" y1="0" x2="1" y2="0" gradientUnits="userSpaceOnUse" gradientTransform="rotate(90 62.394 176.632) scale(10.3982)"><stop offset="0" stop-color="#e9e9e9"/><stop offset="1" stop-color="gray"/></linearGradient><linearGradient id="_Linear4" x1="0" y1="0" x2="1" y2="0" gradientUnits="userSpaceOnUse" gradientTransform="scale(371.561) rotate(39.302 -.312 .597)"><stop offset="0" stop-color="#08415c"/><stop offset="1" stop-color="#207ca8"/></linearGradient><linearGradient id="_Linear5" x1="0" y1="0" x2="1" y2="0" gradientUnits="userSpaceOnUse" gradientTransform="scale(371.561) rotate(39.302 -.312 .597)"><stop offset="0" stop-color="#08415c"/><stop offset="1" stop-color="#207ca8"/></linearGradient><linearGradient id="_Linear6" x1="0" y1="0" x2="1" y2="0" gradientUnits="userSpaceOnUse" gradientTransform="scale(371.561) rotate(39.302 -.312 .597)"><stop offset="0" stop-color="#08415c"/><stop offset="1" stop-color="#207ca8"/></linearGradient><linearGradient id="_Linear7" x1="0" y1="0" x2="1" y2="0" gradientUnits="userSpaceOnUse" gradientTransform="scale(371.561) rotate(39.302 -.312 .597)"><stop offset="0" stop-color="#08415c"/><stop offset="1" stop-color="#207ca8"/></linearGradient></defs></svg>