<?xml version="1.0" encoding="UTF-8" standalone="no"?>
<!DOCTYPE svg PUBLIC "-//W3C//DTD SVG 1.1//EN" "http://www.w3.org/Graphics/SVG/1.1/DTD/svg11.dtd">
<svg width="100%" height="100%" viewBox="0 0 32 32" version="1.1" xmlns="http://www.w3.org/2000/svg" xmlns:xlink="http://www.w3.org/1999/xlink" xml:space="preserve" xmlns:serif="http://www.serif.com/" style="fill-rule:evenodd;clip-rule:evenodd;stroke-linejoin:round;stroke-miterlimit:2;">
    <g transform="matrix(1,0,0,1,-656,0)">
        <rect id="delete" x="656" y="0" width="32" height="32" style="fill:none;"/>
        <g id="delete1" serif:id="delete">
            <g transform="matrix(1,0,0,1,0,1)">
                <path d="M662,6L670,6L670,5L674,5L674,6L682,6L682,8L662,8L662,6Z"/>
            </g>
            <g transform="matrix(1,0,0,1,0,-1)">
                <path d="M680,12L680,27L664,27L664,12L680,12ZM669,14L667,14L667,25L669,25L669,14ZM677,14L675,14L675,25L677,25L677,14ZM673,14L671,14L671,25L673,25L673,14Z"/>
            </g>
        </g>
    </g>
</svg>
