<?xml version="1.0" encoding="UTF-8" standalone="no"?>
<!DOCTYPE svg PUBLIC "-//W3C//DTD SVG 1.1//EN" "http://www.w3.org/Graphics/SVG/1.1/DTD/svg11.dtd">
<svg width="100%" height="100%" viewBox="0 0 32 32" version="1.1" xmlns="http://www.w3.org/2000/svg" xmlns:xlink="http://www.w3.org/1999/xlink" xml:space="preserve" xmlns:serif="http://www.serif.com/" style="fill-rule:evenodd;clip-rule:evenodd;stroke-linejoin:round;stroke-miterlimit:2;">
    <g transform="matrix(1,0,0,1,-574,0)">
        <rect id="duplicate" x="574" y="0" width="32" height="32" style="fill:none;"/>
        <g id="duplicate1" serif:id="duplicate">
            <g transform="matrix(0.416667,0,0,1,419.5,-16)">
                <rect x="414" y="22" width="24" height="4"/>
            </g>
            <g transform="matrix(-0.416667,-5.10269e-17,1.22465e-16,-1,760.5,48)">
                <rect x="414" y="22" width="24" height="4"/>
            </g>
            <g transform="matrix(1,0,0,1,410,0)">
                <path d="M168,10L172,10L172,6L176,6L176,10L180,10L180,14L176,14L176,18L172,18L172,14L168,14L168,10Z"/>
            </g>
            <g transform="matrix(-1,-1.22465e-16,1.22465e-16,-1,770,32)">
                <path d="M168,10L172,10L172,6L176,6L176,10L180,10L180,14L176,14L176,18L172,18L172,14L168,14L168,10Z"/>
            </g>
            <g transform="matrix(1,0,0,1,410,0)">
                <path d="M168,10L172,10L172,6L176,6L176,10L180,10L180,14L176,14L176,18L172,18L172,14L168,14L168,10Z"/>
            </g>
            <g transform="matrix(-1,-1.22465e-16,1.22465e-16,-1,770,32)">
                <path d="M168,10L172,10L172,6L176,6L176,10L180,10L180,14L176,14L176,18L172,18L172,14L168,14L168,10Z"/>
            </g>
        </g>
    </g>
</svg>
