<svg viewBox="0 0 100 244" xmlns="http://www.w3.org/2000/svg" fill-rule="evenodd" clip-rule="evenodd" stroke-linejoin="round" stroke-miterlimit="2"><path d="M46.468 199.697c-1.253-.626-3.082-.727-4.084-.227L.636 220.344c-.195.098-.636-.185-.636-.022 0 .162.016.574.016.69 0 .464.272.973 1.074 1.374l40.84 20.42c1.252.626 3.082.728 4.084.227l41.747-20.874c.421-.21.629-.493.636-.797.006-.212.007-.597 0-.872-.007-.279-.729-.193-1.089-.373l-40.84-20.42z" fill="#8c8c8c"/><path d="M46.468 198.86c-1.253-.626-3.082-.727-4.084-.226L.636 219.507c-1.002.501-.798 1.416.454 2.042l40.84 20.42c1.252.626 3.082.728 4.084.227l41.747-20.874c1.002-.5.799-1.415-.453-2.042l-40.84-20.42z" fill="#ccc"/><g><path d="M44.437 220.833l2.277-1.316V1.316l-2.277 1.311v218.206z" fill="#b3b3b3"/><path d="M42.159 1.316L44.437 0l2.277 1.316-2.277 1.311-2.278-1.311z" fill="#e6e6e6"/><path d="M44.437 220.833l-2.278-1.316V1.316l2.278 1.311v218.206z" fill="#8c8c8c"/><path d="M45.218 2.179v158.565l54.289 31.781V33.267L45.218 2.179z" fill="#fff"/><g fill-rule="nonzero"><path d="M81.123 51.646c.109-.295-.087-.808-.382-.978l-9.077-5.237c-.17-.099-.295-.044-.361.081-.044.159-.016.377.098.601l6.423 12.267c.208.399.557.508.667.213 0 0 .082-2.103.813-4.041.732-1.934 1.819-2.906 1.819-2.906" fill="#ff1a21"/><path d="M70.855 29.799c-.267-.306-.568-.207-.568.18v12.109c0 .218.098.442.219.601.136.136.295.191.409.104l6.423-4.856c.202-.153.137-.661-.136-.967 0 0-1.612-1.037-3.381-3.036-1.764-1.999-2.966-4.135-2.966-4.135" fill="#00983e"/><path d="M58.916 36.593c-.109.295.087.809.382.978l9.078 5.238c.169.098.294.044.36-.082a.903.903 0 00-.098-.601l-6.423-12.267c-.208-.399-.557-.508-.667-.207 0 0-.087 2.097-.819 4.036-.732 1.933-1.813 2.905-1.813 2.905M69.184 58.44c.268.306.562.213.562-.18V46.151c0-.218-.092-.442-.218-.6-.131-.137-.289-.191-.404-.104l-6.423 4.855c-.208.153-.137.661.131.967 0 0 1.617 1.043 3.381 3.037a27.177 27.177 0 012.971 4.134M62.761 28.674c-.268-.005-.339.421-.131.814l6.417 12.267c.121.224.273.349.41.371.126-.016.218-.131.218-.355V29.663c0-.388-.294-.825-.568-.831 0 0-1.196.749-2.965.705-1.77-.044-3.381-.863-3.381-.863M61.576 48.926c.114.421.464.715.672.563l6.417-4.856c.12-.087.142-.284.098-.486-.065-.208-.191-.404-.355-.497l-9.082-5.243c-.29-.17-.492.109-.377.535 0 0 1.081 2.223 1.813 5.003.732 2.78.814 4.981.814 4.981M77.278 59.565c.268.006.339-.42.131-.813l-6.423-12.267c-.114-.224-.267-.344-.404-.366-.126.016-.218.125-.218.349v12.109c0 .388.295.825.568.83 0 0 1.196-.748 2.965-.705 1.77.044 3.381.863 3.381.863M84.28 44.994l2.786 1.611v5.461c-.552.181-1.229.197-2.038.055a6.862 6.862 0 01-2.255-.819c-1.016-.585-1.928-1.409-2.737-2.463a12.725 12.725 0 01-1.895-3.534 11.85 11.85 0 01-.683-3.911c0-1.294.235-2.321.71-3.086.476-.764 1.136-1.196 1.972-1.294.841-.098 1.786.153 2.84.765.765.437 1.529 1.065 2.3 1.884.77.819 1.414 1.688 1.938 2.611l-1.829 1.906a8.893 8.893 0 00-1.158-1.699c-.442-.513-.863-.885-1.262-1.114-.415-.235-.786-.311-1.119-.229-.339.087-.601.322-.787.699-.186.377-.278.868-.278 1.474 0 .623.098 1.235.289 1.835a5.8 5.8 0 00.787 1.612c.338.475.715.835 1.136 1.076.355.202.781.3 1.283.295v-3.135z" fill="#1f191a"/></g><path d="M68.785 69.637l-8.87-5.118v96.263l8.87 5.117V69.637zM77.835 74.547l-4.954-2.862v66.196l4.954 2.862V74.547z" fill="#d9d9d9"/></g></svg>