<svg viewBox="0 0 2642 1867" xmlns="http://www.w3.org/2000/svg" fill-rule="evenodd" clip-rule="evenodd" stroke-linejoin="round" stroke-miterlimit="2"><path fill="none" d="M.846 0h2640.292v1866.86H.846z"/><path d="M1720.405 1539.062l4.135-.48c.288 2.403 1.01 4.134 2.067 5.143 1.057 1.058 2.451 1.587 4.182 1.587 2.115 0 3.942-.77 5.48-2.26 1.49-1.49 2.26-3.22 2.26-5.144 0-1.73-.577-3.124-1.73-4.23-1.106-1.106-2.645-1.635-4.568-1.635-.24 0-.673.049-1.394.097l.77-3.558c.384.096.768.096 1.153.096 2.404 0 4.279-.577 5.577-1.778 1.346-1.154 1.97-2.596 1.97-4.327 0-1.586-.528-2.933-1.586-3.99-1.106-1.106-2.404-1.635-3.942-1.635-1.538 0-2.884.577-4.086 1.635-1.202 1.106-2.02 2.692-2.356 4.711l-4.182-.865c.721-2.837 2.019-5 3.99-6.538 1.971-1.587 4.279-2.356 6.923-2.356 2.836 0 5.095.865 6.874 2.548 1.73 1.73 2.596 3.846 2.596 6.298 0 1.826-.48 3.413-1.394 4.759-.962 1.346-2.404 2.5-4.279 3.365 1.346.817 2.356 1.779 3.029 2.885.673 1.153.961 2.451.961 3.893 0 3.077-1.153 5.77-3.46 8.029-2.308 2.26-5.049 3.365-8.27 3.365-3.076 0-5.624-.865-7.547-2.596-1.923-1.779-2.98-4.086-3.173-7.019zM1747.914 1536.803c0-2.885.433-5.865 1.298-8.846.866-3.028 1.827-5.432 2.885-7.21 1.057-1.828 2.163-3.222 3.317-4.231 1.153-1.01 2.26-1.779 3.365-2.26 1.106-.48 2.355-.72 3.702-.72 2.595 0 4.807 1.009 6.537 2.932 1.78 1.97 2.645 4.807 2.645 8.509 0 3.797-.577 7.547-1.827 11.249-1.442 4.423-3.413 7.74-6.01 9.951-1.97 1.683-4.182 2.5-6.73 2.5-2.596 0-4.759-1.01-6.538-3.029-1.778-2.019-2.644-4.951-2.644-8.845zm4.087 1.105c0 2.116.384 3.75 1.057 4.952.962 1.634 2.404 2.452 4.279 2.452 1.634 0 3.124-.77 4.47-2.212 1.923-2.115 3.414-5.192 4.375-9.23.962-4.038 1.442-7.355 1.442-9.903 0-2.5-.432-4.278-1.394-5.384-.961-1.106-2.211-1.635-3.75-1.635-1.105 0-2.163.289-3.172.866-.962.577-1.875 1.586-2.789 2.98-1.25 1.971-2.355 4.952-3.317 8.942-.769 3.365-1.201 6.105-1.201 8.172zM1774.644 1536.803c0-2.885.433-5.865 1.298-8.846.865-3.028 1.827-5.432 2.885-7.21 1.057-1.828 2.163-3.222 3.317-4.231 1.153-1.01 2.26-1.779 3.365-2.26 1.105-.48 2.355-.72 3.701-.72 2.596 0 4.808 1.009 6.538 2.932 1.78 1.97 2.644 4.807 2.644 8.509 0 3.797-.576 7.547-1.826 11.249-1.443 4.423-3.414 7.74-6.01 9.951-1.97 1.683-4.182 2.5-6.73 2.5-2.596 0-4.76-1.01-6.538-3.029-1.778-2.019-2.644-4.951-2.644-8.845zm4.086 1.105c0 2.116.385 3.75 1.058 4.952.962 1.634 2.404 2.452 4.279 2.452 1.634 0 3.124-.77 4.47-2.212 1.923-2.115 3.414-5.192 4.375-9.23.962-4.038 1.442-7.355 1.442-9.903 0-2.5-.432-4.278-1.394-5.384-.961-1.106-2.211-1.635-3.75-1.635-1.105 0-2.163.289-3.172.866-.962.577-1.875 1.586-2.789 2.98-1.25 1.971-2.355 4.952-3.317 8.942-.769 3.365-1.202 6.105-1.202 8.172zM1816.768 1539.014l4.23.433c-1.058 3.125-2.548 5.432-4.519 6.97-1.97 1.49-4.182 2.26-6.682 2.26-2.74 0-4.904-.914-6.586-2.644-1.683-1.73-2.548-4.183-2.548-7.355 0-2.693.529-5.385 1.634-8.029 1.058-2.596 2.596-4.615 4.616-6.009 2.019-1.346 4.326-2.019 6.922-2.019 2.644 0 4.76.721 6.346 2.26 1.538 1.49 2.355 3.509 2.355 6.009l-4.182.24c0-1.538-.48-2.788-1.394-3.702-.865-.865-2.067-1.346-3.558-1.346-1.682 0-3.172.577-4.422 1.635-1.25 1.106-2.212 2.74-2.933 4.903-.72 2.212-1.057 4.327-1.057 6.394 0 2.115.432 3.702 1.394 4.76.913 1.057 2.067 1.586 3.461 1.586 1.394 0 2.692-.529 3.942-1.539 1.298-1.057 2.26-2.644 2.98-4.807zM1823.597 1548.1l5.192-24.95h4.23l-.865 4.134c1.587-1.779 3.029-2.98 4.279-3.653 1.202-.673 2.596-1.01 4.038-1.01 1.538 0 2.836.385 3.894 1.202 1.01.817 1.682 1.97 2.019 3.461 1.298-1.586 2.596-2.74 4.038-3.51 1.394-.768 2.836-1.153 4.423-1.153 2.067 0 3.605.48 4.663 1.442 1.058 1.01 1.586 2.404 1.586 4.183 0 .769-.192 2.019-.576 3.797l-3.366 16.057h-4.23l3.413-16.49c.337-1.345.48-2.307.48-2.884 0-.817-.288-1.442-.768-1.923-.53-.48-1.25-.72-2.212-.72-1.25 0-2.548.384-3.846 1.153-1.346.77-2.355 1.779-3.076 3.029-.721 1.25-1.394 3.173-1.923 5.769l-2.548 12.066h-4.23l3.509-16.826c.24-1.153.384-1.97.384-2.451 0-.818-.24-1.443-.769-1.971-.48-.481-1.154-.77-1.97-.77-1.203 0-2.5.385-3.799 1.154-1.346.77-2.403 1.875-3.22 3.221-.818 1.394-1.539 3.317-2.068 5.865l-2.451 11.778h-4.23zM1729.347 1600.833l5.432-26.008c-2.355 1.875-5.673 3.365-9.903 4.471l.817-3.846a39.354 39.354 0 006.25-3.317c2.019-1.346 3.605-2.548 4.615-3.557a11.243 11.243 0 001.779-2.308h2.451l-7.163 34.565h-4.278zM1747.914 1589.536c0-2.885.433-5.865 1.298-8.846.866-3.029 1.827-5.432 2.885-7.21 1.057-1.828 2.163-3.222 3.317-4.231 1.153-1.01 2.26-1.78 3.365-2.26 1.106-.48 2.355-.72 3.702-.72 2.595 0 4.807 1.009 6.537 2.932 1.78 1.97 2.645 4.807 2.645 8.509 0 3.797-.577 7.547-1.827 11.249-1.442 4.423-3.413 7.74-6.01 9.951-1.97 1.683-4.182 2.5-6.73 2.5-2.596 0-4.759-1.01-6.538-3.029-1.778-2.019-2.644-4.951-2.644-8.845zm4.087 1.105c0 2.116.384 3.75 1.057 4.952.962 1.634 2.404 2.452 4.279 2.452 1.634 0 3.124-.77 4.47-2.212 1.923-2.115 3.414-5.192 4.375-9.23.962-4.038 1.442-7.355 1.442-9.903 0-2.5-.432-4.279-1.394-5.384-.961-1.106-2.211-1.635-3.75-1.635-1.105 0-2.163.289-3.172.866-.962.576-1.875 1.586-2.789 2.98-1.25 1.971-2.355 4.952-3.317 8.942-.769 3.365-1.201 6.105-1.201 8.172zM1774.644 1589.536c0-2.885.433-5.865 1.298-8.846.865-3.029 1.827-5.432 2.885-7.21 1.057-1.828 2.163-3.222 3.317-4.231 1.153-1.01 2.26-1.78 3.365-2.26 1.105-.48 2.355-.72 3.701-.72 2.596 0 4.808 1.009 6.538 2.932 1.78 1.97 2.644 4.807 2.644 8.509 0 3.797-.576 7.547-1.826 11.249-1.443 4.423-3.414 7.74-6.01 9.951-1.97 1.683-4.182 2.5-6.73 2.5-2.596 0-4.76-1.01-6.538-3.029-1.778-2.019-2.644-4.951-2.644-8.845zm4.086 1.105c0 2.116.385 3.75 1.058 4.952.962 1.634 2.404 2.452 4.279 2.452 1.634 0 3.124-.77 4.47-2.212 1.923-2.115 3.414-5.192 4.375-9.23.962-4.038 1.442-7.355 1.442-9.903 0-2.5-.432-4.279-1.394-5.384-.961-1.106-2.211-1.635-3.75-1.635-1.105 0-2.163.289-3.172.866-.962.576-1.875 1.586-2.789 2.98-1.25 1.971-2.355 4.952-3.317 8.942-.769 3.365-1.202 6.105-1.202 8.172zM1816.768 1591.747l4.23.433c-1.058 3.124-2.548 5.432-4.519 6.97-1.97 1.49-4.182 2.26-6.682 2.26-2.74 0-4.904-.914-6.586-2.644-1.683-1.73-2.548-4.183-2.548-7.356 0-2.692.529-5.384 1.634-8.028 1.058-2.596 2.596-4.615 4.616-6.009 2.019-1.346 4.326-2.02 6.922-2.02 2.644 0 4.76.722 6.346 2.26 1.538 1.49 2.355 3.51 2.355 6.01l-4.182.24c0-1.538-.48-2.788-1.394-3.702-.865-.865-2.067-1.346-3.558-1.346-1.682 0-3.172.577-4.422 1.635-1.25 1.105-2.212 2.74-2.933 4.903-.72 2.212-1.057 4.327-1.057 6.394 0 2.115.432 3.702 1.394 4.76.913 1.057 2.067 1.586 3.461 1.586 1.394 0 2.692-.53 3.942-1.539 1.298-1.057 2.26-2.644 2.98-4.807zM1823.597 1600.833l5.192-24.95h4.23l-.865 4.134c1.587-1.779 3.029-2.98 4.279-3.654 1.202-.673 2.596-1.01 4.038-1.01 1.538 0 2.836.386 3.894 1.203 1.01.817 1.682 1.97 2.019 3.461 1.298-1.586 2.596-2.74 4.038-3.51 1.394-.768 2.836-1.153 4.423-1.153 2.067 0 3.605.48 4.663 1.442 1.058 1.01 1.586 2.404 1.586 4.183 0 .769-.192 2.019-.576 3.797l-3.366 16.057h-4.23l3.413-16.49c.337-1.345.48-2.307.48-2.884 0-.817-.288-1.442-.768-1.923-.53-.48-1.25-.72-2.212-.72-1.25 0-2.548.384-3.846 1.153-1.346.77-2.355 1.779-3.076 3.029-.721 1.25-1.394 3.172-1.923 5.768l-2.548 12.067h-4.23l3.509-16.826c.24-1.154.384-1.97.384-2.452 0-.817-.24-1.442-.769-1.97-.48-.481-1.154-.77-1.97-.77-1.203 0-2.5.385-3.799 1.154-1.346.77-2.403 1.875-3.22 3.22-.818 1.395-1.539 3.318-2.068 5.866l-2.451 11.778h-4.23z" fill-rule="nonzero"/><g><path d="M1680.955 1507.476l22.252 16.822h-10.205v24.242h-24.09v-24.242h-10.208l22.251-16.822z" fill="#58595b" fill-rule="nonzero"/></g><g><path d="M1701.485 1587.009l-16.822 22.253v-10.207h-24.24v-24.091h24.24v-10.207l16.822 22.252z" fill="#58595b" fill-rule="nonzero"/></g><g><path d="M1905.779 687.927h-261.764v523.53h261.764v-523.53zm-258.766 3v517.53h255.768v-517.53h-255.768z" fill="#231f20"/><path d="M1644.011 687.923h13.089v785.294h-13.089z"/><path d="M1690.56 1460.132v13.088h-80v-13.088z"/><path d="M1736.059 736.178l.373 2.237c-.717.144-1.348.23-1.922.23-.918 0-1.635-.144-2.122-.43a2.398 2.398 0 01-1.062-1.148c-.2-.487-.315-1.462-.315-2.982v-8.547h-1.836v-1.98h1.836v-3.67l2.495-1.52v5.19h2.553v1.98h-2.553v8.69c0 .717.057 1.176.144 1.377a.9.9 0 00.43.487c.2.144.487.201.86.201.287 0 .66-.029 1.119-.115zM1748.704 733.654l2.61.316c-.43 1.52-1.176 2.696-2.295 3.556-1.118.832-2.524 1.262-4.245 1.262-2.18 0-3.9-.688-5.19-2.007-1.263-1.348-1.894-3.241-1.894-5.65 0-2.496.631-4.446 1.922-5.823 1.29-1.376 2.954-2.065 5.019-2.065 1.979 0 3.614.66 4.876 2.037 1.262 1.348 1.893 3.24 1.893 5.707 0 .143-.03.373-.03.66h-11.098c.114 1.635.573 2.896 1.405 3.757.832.86 1.864 1.29 3.097 1.29.918 0 1.721-.229 2.38-.717.632-.487 1.177-1.261 1.55-2.323zm-8.29-4.072h8.318c-.114-1.262-.43-2.18-.946-2.811-.803-.975-1.864-1.463-3.126-1.463-1.176 0-2.151.402-2.926 1.176-.803.775-1.233 1.807-1.32 3.098zM1753.468 733.999l2.495-.373c.144.975.517 1.75 1.148 2.294.66.516 1.548.774 2.696.774 1.147 0 2.007-.229 2.58-.688.546-.487.832-1.032.832-1.663 0-.574-.258-1.033-.745-1.348-.344-.23-1.205-.517-2.581-.86-1.836-.46-3.127-.861-3.844-1.205-.717-.344-1.233-.803-1.606-1.406a3.726 3.726 0 01-.573-2.007c0-.66.172-1.262.459-1.836a4.166 4.166 0 011.233-1.405c.401-.287.946-.545 1.606-.746.688-.2 1.405-.287 2.18-.287 1.176 0 2.208.172 3.097.488.86.344 1.52.803 1.95 1.377.402.573.689 1.348.86 2.294l-2.466.344c-.114-.774-.43-1.376-.975-1.807-.545-.43-1.29-.63-2.266-.63-1.176 0-1.979.2-2.495.573-.487.373-.745.832-.745 1.348 0 .315.114.63.315.889.2.258.545.488.975.66.258.086.975.315 2.209.66 1.806.458 3.04.86 3.757 1.147.688.315 1.233.745 1.634 1.319.402.602.603 1.32.603 2.18 0 .831-.23 1.634-.717 2.351-.488.746-1.205 1.32-2.123 1.721-.917.43-1.979.631-3.154.631-1.922 0-3.385-.401-4.417-1.204-1.004-.803-1.635-2.008-1.922-3.585zM1767.808 733.999l2.495-.373c.144.975.517 1.75 1.148 2.294.66.516 1.548.774 2.695.774 1.148 0 2.008-.229 2.582-.688.545-.487.831-1.032.831-1.663 0-.574-.258-1.033-.745-1.348-.344-.23-1.205-.517-2.581-.86-1.836-.46-3.127-.861-3.844-1.205-.717-.344-1.233-.803-1.606-1.406a3.726 3.726 0 01-.573-2.007c0-.66.172-1.262.459-1.836a4.166 4.166 0 011.233-1.405c.401-.287.946-.545 1.606-.746.688-.2 1.405-.287 2.18-.287 1.175 0 2.208.172 3.097.488.86.344 1.52.803 1.95 1.377.402.573.689 1.348.86 2.294l-2.466.344c-.115-.774-.43-1.376-.975-1.807-.545-.43-1.29-.63-2.266-.63-1.176 0-1.979.2-2.495.573-.487.373-.746.832-.746 1.348 0 .315.115.63.316.889.2.258.545.488.975.66.258.086.975.315 2.208.66 1.807.458 3.04.86 3.758 1.147.688.315 1.233.745 1.634 1.319.402.602.603 1.32.603 2.18 0 .831-.23 1.634-.717 2.351-.488.746-1.205 1.32-2.123 1.721-.917.43-1.979.631-3.155.631-1.921 0-3.384-.401-4.416-1.204-1.004-.803-1.635-2.008-1.922-3.585zM1792.903 738.444v-2.18c-1.176 1.664-2.724 2.524-4.732 2.524-.86 0-1.692-.172-2.438-.516-.774-.344-1.348-.746-1.72-1.262-.345-.516-.603-1.147-.775-1.864-.086-.488-.144-1.29-.144-2.352v-9.235h2.524v8.26c0 1.32.058 2.208.144 2.667.172.66.487 1.176 1.004 1.549.516.373 1.147.573 1.921.573.746 0 1.463-.2 2.123-.573.66-.402 1.118-.918 1.405-1.578.287-.688.401-1.634.401-2.925v-7.973h2.524v14.885h-2.237zM1804.608 736.178l.373 2.237c-.717.144-1.348.23-1.921.23-.918 0-1.635-.144-2.123-.43a2.398 2.398 0 01-1.06-1.148c-.202-.487-.316-1.462-.316-2.982v-8.547h-1.836v-1.98h1.836v-3.67l2.495-1.52v5.19h2.552v1.98h-2.552v8.69c0 .717.057 1.176.143 1.377a.9.9 0 00.43.487c.201.144.488.201.86.201.288 0 .66-.029 1.12-.115zM1806.125 731.016c0-2.754.775-4.79 2.295-6.138 1.29-1.09 2.84-1.635 4.675-1.635 2.065 0 3.728.66 5.019 2.008 1.29 1.348 1.95 3.184 1.95 5.535 0 1.922-.287 3.442-.86 4.532a6.115 6.115 0 01-2.496 2.552 7.436 7.436 0 01-3.613.918c-2.065 0-3.757-.688-5.048-2.007-1.262-1.348-1.922-3.27-1.922-5.765zm2.61 0c0 1.893.402 3.327 1.233 4.273.832.947 1.865 1.405 3.127 1.405 1.262 0 2.294-.458 3.126-1.405.832-.975 1.262-2.409 1.262-4.36 0-1.835-.43-3.24-1.262-4.187-.832-.946-1.864-1.434-3.126-1.434-1.262 0-2.295.488-3.127 1.434-.831.947-1.233 2.352-1.233 4.274zM1730.577 772.861h-2.524V756.8c-.602.574-1.405 1.147-2.41 1.72-.974.603-1.863 1.033-2.638 1.32v-2.438c1.406-.66 2.639-1.462 3.7-2.409 1.061-.946 1.807-1.864 2.237-2.753h1.635v20.621zM1737.034 762.737c0-2.438.23-4.388.745-5.851.488-1.491 1.234-2.639 2.209-3.442 1.004-.803 2.237-1.204 3.728-1.204 1.09 0 2.065.23 2.897.66a5.75 5.75 0 012.065 1.921c.545.832.946 1.864 1.262 3.069.315 1.204.459 2.81.459 4.847 0 2.409-.23 4.36-.746 5.822-.487 1.491-1.233 2.639-2.208 3.442-.975.803-2.237 1.204-3.729 1.204-1.979 0-3.527-.717-4.675-2.122-1.348-1.721-2.007-4.503-2.007-8.346zm2.58 0c0 3.355.402 5.621 1.177 6.74.803 1.09 1.778 1.663 2.925 1.663 1.147 0 2.123-.573 2.926-1.692.774-1.119 1.176-3.356 1.176-6.711 0-3.385-.402-5.622-1.176-6.74-.803-1.119-1.779-1.664-2.954-1.664-1.148 0-2.094.488-2.782 1.463-.86 1.262-1.291 3.556-1.291 6.94zM1752.984 762.737c0-2.438.23-4.388.745-5.851.488-1.491 1.234-2.639 2.209-3.442 1.004-.803 2.237-1.204 3.728-1.204 1.09 0 2.065.23 2.897.66a5.75 5.75 0 012.065 1.921c.545.832.946 1.864 1.262 3.069.315 1.204.459 2.81.459 4.847 0 2.409-.23 4.36-.746 5.822-.488 1.491-1.233 2.639-2.208 3.442-.976.803-2.237 1.204-3.729 1.204-1.979 0-3.528-.717-4.675-2.122-1.348-1.721-2.007-4.503-2.007-8.346zm2.58 0c0 3.355.402 5.621 1.177 6.74.803 1.09 1.778 1.663 2.925 1.663 1.147 0 2.123-.573 2.926-1.692.774-1.119 1.175-3.356 1.175-6.711 0-3.385-.401-5.622-1.175-6.74-.803-1.119-1.779-1.664-2.955-1.664-1.147 0-2.093.488-2.782 1.463-.86 1.262-1.29 3.556-1.29 6.94zM1767.93 772.861l5.449-7.744-5.048-7.141h3.155l2.295 3.499c.43.66.774 1.233 1.032 1.663.402-.602.803-1.147 1.147-1.634l2.495-3.528h3.012l-5.134 7.027 5.535 7.858h-3.097l-3.069-4.618-.803-1.262-3.9 5.88h-3.07zM1796.495 770.452v2.409h-13.566c0-.602.086-1.205.316-1.75.344-.917.889-1.835 1.635-2.724.774-.918 1.864-1.95 3.298-3.126 2.237-1.807 3.757-3.27 4.531-4.331.775-1.09 1.176-2.094 1.176-3.04 0-1.004-.344-1.836-1.06-2.524-.718-.688-1.664-1.033-2.812-1.033-1.204 0-2.18.373-2.896 1.09-.746.717-1.09 1.75-1.119 3.04l-2.581-.286c.172-1.922.832-3.385 2.008-4.417 1.147-1.004 2.696-1.52 4.646-1.52 1.979 0 3.527.545 4.675 1.635 1.147 1.09 1.72 2.466 1.72 4.072 0 .832-.143 1.635-.487 2.41-.344.802-.89 1.634-1.664 2.523-.803.86-2.093 2.065-3.9 3.614-1.52 1.262-2.495 2.122-2.925 2.581-.43.46-.775.918-1.062 1.377h10.067zM1799.223 762.737c0-2.438.23-4.388.746-5.851.488-1.491 1.233-2.639 2.209-3.442 1.003-.803 2.237-1.204 3.728-1.204 1.09 0 2.065.23 2.897.66a5.75 5.75 0 012.065 1.921c.545.832.946 1.864 1.262 3.069.315 1.204.459 2.81.459 4.847 0 2.409-.23 4.36-.746 5.822-.488 1.491-1.233 2.639-2.209 3.442-.975.803-2.237 1.204-3.728 1.204-1.979 0-3.528-.717-4.675-2.122-1.348-1.721-2.008-4.503-2.008-8.346zm2.582 0c0 3.355.401 5.621 1.176 6.74.803 1.09 1.778 1.663 2.925 1.663 1.147 0 2.122-.573 2.925-1.692.775-1.119 1.176-3.356 1.176-6.711 0-3.385-.401-5.622-1.176-6.74-.803-1.119-1.778-1.664-2.954-1.664-1.147 0-2.093.488-2.782 1.463-.86 1.262-1.29 3.556-1.29 6.94zM1815.173 762.737c0-2.438.23-4.388.746-5.851.488-1.491 1.233-2.639 2.208-3.442 1.004-.803 2.238-1.204 3.729-1.204 1.09 0 2.065.23 2.897.66a5.75 5.75 0 012.065 1.921c.545.832.946 1.864 1.262 3.069.315 1.204.458 2.81.458 4.847 0 2.409-.229 4.36-.745 5.822-.488 1.491-1.233 2.639-2.209 3.442-.975.803-2.237 1.204-3.728 1.204-1.979 0-3.528-.717-4.675-2.122-1.348-1.721-2.008-4.503-2.008-8.346zm2.582 0c0 3.355.401 5.621 1.176 6.74.803 1.09 1.778 1.663 2.925 1.663 1.147 0 2.122-.573 2.925-1.692.775-1.119 1.176-3.356 1.176-6.711 0-3.385-.401-5.622-1.176-6.74-.803-1.119-1.778-1.664-2.954-1.664-1.147 0-2.093.488-2.782 1.463-.86 1.262-1.29 3.556-1.29 6.94z" fill="#231f20" fill-rule="nonzero"/></g><g><path d="M2086.407 1539.062l4.134-.48c.289 2.403 1.01 4.134 2.067 5.143 1.058 1.058 2.452 1.587 4.183 1.587 2.115 0 3.942-.77 5.48-2.26 1.49-1.49 2.26-3.22 2.26-5.144 0-1.73-.577-3.124-1.731-4.23-1.106-1.106-2.644-1.635-4.567-1.635-.24 0-.673.049-1.394.097l.769-3.558c.384.096.769.096 1.154.096 2.403 0 4.278-.577 5.576-1.778 1.346-1.154 1.971-2.596 1.971-4.327 0-1.586-.529-2.933-1.586-3.99-1.106-1.106-2.404-1.635-3.942-1.635-1.539 0-2.885.577-4.087 1.635-1.201 1.106-2.019 2.692-2.355 4.711l-4.183-.865c.722-2.837 2.02-5 3.99-6.538 1.972-1.587 4.28-2.356 6.923-2.356 2.836 0 5.096.865 6.875 2.548 1.73 1.73 2.596 3.846 2.596 6.298 0 1.826-.481 3.413-1.395 4.759-.961 1.346-2.403 2.5-4.278 3.365 1.346.817 2.356 1.779 3.029 2.885.673 1.153.961 2.451.961 3.893 0 3.077-1.154 5.77-3.461 8.029-2.308 2.26-5.048 3.365-8.269 3.365-3.077 0-5.624-.865-7.547-2.596-1.923-1.779-2.98-4.086-3.173-7.019zM2113.916 1536.803c0-2.885.433-5.865 1.298-8.846.865-3.028 1.827-5.432 2.884-7.21 1.058-1.828 2.164-3.222 3.317-4.231 1.154-1.01 2.26-1.779 3.365-2.26 1.106-.48 2.356-.72 3.702-.72 2.596 0 4.807 1.009 6.538 2.932 1.779 1.97 2.644 4.807 2.644 8.509 0 3.797-.577 7.547-1.827 11.249-1.442 4.423-3.413 7.74-6.009 9.951-1.97 1.683-4.182 2.5-6.73 2.5-2.596 0-4.76-1.01-6.538-3.029-1.779-2.019-2.644-4.951-2.644-8.845zm4.086 1.105c0 2.116.385 3.75 1.058 4.952.961 1.634 2.403 2.452 4.278 2.452 1.635 0 3.125-.77 4.471-2.212 1.923-2.115 3.413-5.192 4.375-9.23.961-4.038 1.442-7.355 1.442-9.903 0-2.5-.433-4.278-1.394-5.384-.962-1.106-2.212-1.635-3.75-1.635-1.106 0-2.163.289-3.173.866-.961.577-1.875 1.586-2.788 2.98-1.25 1.971-2.356 4.952-3.317 8.942-.77 3.365-1.202 6.105-1.202 8.172zM2140.646 1536.803c0-2.885.432-5.865 1.298-8.846.865-3.028 1.827-5.432 2.884-7.21 1.058-1.828 2.163-3.222 3.317-4.231 1.154-1.01 2.26-1.779 3.365-2.26 1.106-.48 2.356-.72 3.702-.72 2.596 0 4.807 1.009 6.538 2.932 1.779 1.97 2.644 4.807 2.644 8.509 0 3.797-.577 7.547-1.827 11.249-1.442 4.423-3.413 7.74-6.009 9.951-1.971 1.683-4.182 2.5-6.73 2.5-2.596 0-4.76-1.01-6.538-3.029-1.779-2.019-2.644-4.951-2.644-8.845zm4.086 1.105c0 2.116.385 3.75 1.058 4.952.961 1.634 2.403 2.452 4.278 2.452 1.635 0 3.125-.77 4.47-2.212 1.924-2.115 3.414-5.192 4.376-9.23.961-4.038 1.442-7.355 1.442-9.903 0-2.5-.433-4.278-1.394-5.384-.962-1.106-2.212-1.635-3.75-1.635-1.106 0-2.163.289-3.173.866-.961.577-1.875 1.586-2.788 2.98-1.25 1.971-2.356 4.952-3.317 8.942-.77 3.365-1.202 6.105-1.202 8.172zM2182.77 1539.014l4.23.433c-1.058 3.125-2.548 5.432-4.52 6.97-1.97 1.49-4.182 2.26-6.682 2.26-2.74 0-4.903-.914-6.586-2.644-1.682-1.73-2.547-4.183-2.547-7.355 0-2.693.528-5.385 1.634-8.029 1.058-2.596 2.596-4.615 4.615-6.009 2.02-1.346 4.327-2.019 6.923-2.019 2.644 0 4.759.721 6.345 2.26 1.539 1.49 2.356 3.509 2.356 6.009l-4.182.24c0-1.538-.481-2.788-1.395-3.702-.865-.865-2.067-1.346-3.557-1.346-1.683 0-3.173.577-4.423 1.635-1.25 1.106-2.211 2.74-2.932 4.903-.721 2.212-1.058 4.327-1.058 6.394 0 2.115.433 3.702 1.394 4.76.914 1.057 2.067 1.586 3.462 1.586 1.394 0 2.692-.529 3.942-1.539 1.298-1.057 2.259-2.644 2.98-4.807zM2189.599 1548.1l5.192-24.95h4.23l-.865 4.134c1.586-1.779 3.028-2.98 4.278-3.653 1.202-.673 2.596-1.01 4.038-1.01 1.539 0 2.837.385 3.894 1.202 1.01.817 1.683 1.97 2.02 3.461 1.297-1.586 2.595-2.74 4.038-3.51 1.394-.768 2.836-1.153 4.422-1.153 2.068 0 3.606.48 4.664 1.442 1.057 1.01 1.586 2.404 1.586 4.183 0 .769-.192 2.019-.577 3.797l-3.365 16.057h-4.23l3.413-16.49c.336-1.345.48-2.307.48-2.884 0-.817-.288-1.442-.769-1.923-.529-.48-1.25-.72-2.211-.72-1.25 0-2.548.384-3.846 1.153-1.346.77-2.356 1.779-3.077 3.029-.72 1.25-1.394 3.173-1.923 5.769l-2.548 12.066h-4.23l3.51-16.826c.24-1.153.384-1.97.384-2.451 0-.818-.24-1.443-.77-1.971-.48-.481-1.153-.77-1.97-.77-1.202 0-2.5.385-3.798 1.154-1.346.77-2.404 1.875-3.22 3.221-.818 1.394-1.54 3.317-2.068 5.865l-2.452 11.778h-4.23z" fill-rule="nonzero"/><g><path d="M2090.733 1600.833c.385-2.308 1.154-5.096 2.404-8.365 1.442-3.942 3.365-7.836 5.72-11.682 2.356-3.894 5-7.21 7.885-9.999h-17.162l.817-3.894h21.97l-.77 3.894c-3.75 3.269-7.019 7.5-9.807 12.643-3.22 5.961-5.432 11.778-6.634 17.403h-4.423zM2113.868 1590.978l4.326-.385c-.048.577-.048.962-.048 1.106 0 1.01.24 2.067.77 3.125.528 1.01 1.25 1.827 2.115 2.403.913.53 1.875.818 2.884.818 1.298 0 2.644-.481 3.99-1.346 1.394-.914 2.5-2.26 3.317-3.99.866-1.731 1.298-3.462 1.298-5.144 0-1.923-.577-3.462-1.73-4.664-1.106-1.153-2.596-1.73-4.471-1.73-1.25 0-2.404.288-3.51.913-1.105.577-2.115 1.49-3.076 2.692l-3.702-.288 5.192-17.595h16.778l-.818 3.894h-13.076l-2.596 8.75c1.01-.722 1.971-1.25 3.029-1.587a9.916 9.916 0 013.125-.529c2.644 0 4.807.865 6.49 2.596 1.682 1.779 2.548 4.134 2.548 7.163 0 2.644-.577 5.096-1.731 7.307-1.154 2.212-2.74 3.942-4.807 5.144-2.02 1.202-4.183 1.779-6.538 1.779-1.971 0-3.702-.433-5.24-1.346-1.539-.866-2.644-2.116-3.414-3.654-.769-1.586-1.153-3.125-1.153-4.711 0-.144 0-.385.048-.721zM2156.03 1591.747l4.23.433c-1.058 3.124-2.548 5.432-4.52 6.97-1.97 1.49-4.182 2.26-6.681 2.26-2.74 0-4.904-.914-6.586-2.644-1.683-1.73-2.548-4.183-2.548-7.356 0-2.692.528-5.384 1.634-8.028 1.058-2.596 2.596-4.615 4.615-6.009 2.02-1.346 4.327-2.02 6.923-2.02 2.644 0 4.759.722 6.345 2.26 1.539 1.49 2.356 3.51 2.356 6.01l-4.182.24c0-1.538-.481-2.788-1.395-3.702-.865-.865-2.067-1.346-3.557-1.346-1.682 0-3.173.577-4.423 1.635-1.25 1.105-2.211 2.74-2.932 4.903-.721 2.212-1.058 4.327-1.058 6.394 0 2.115.433 3.702 1.394 4.76.914 1.057 2.068 1.586 3.462 1.586 1.394 0 2.692-.53 3.942-1.539 1.298-1.057 2.26-2.644 2.98-4.807zM2162.859 1600.833l5.192-24.95h4.23l-.865 4.134c1.586-1.779 3.029-2.98 4.278-3.654 1.202-.673 2.596-1.01 4.039-1.01 1.538 0 2.836.386 3.894 1.203 1.01.817 1.682 1.97 2.019 3.461 1.298-1.586 2.596-2.74 4.038-3.51 1.394-.768 2.836-1.153 4.423-1.153 2.067 0 3.605.48 4.663 1.442 1.057 1.01 1.586 2.404 1.586 4.183 0 .769-.192 2.019-.577 3.797l-3.365 16.057h-4.23l3.413-16.49c.336-1.345.48-2.307.48-2.884 0-.817-.288-1.442-.769-1.923-.528-.48-1.25-.72-2.211-.72-1.25 0-2.548.384-3.846 1.153-1.346.77-2.355 1.779-3.077 3.029-.72 1.25-1.394 3.172-1.923 5.768l-2.547 12.067h-4.23l3.508-16.826c.24-1.154.385-1.97.385-2.452 0-.817-.24-1.442-.77-1.97-.48-.481-1.153-.77-1.97-.77-1.202 0-2.5.385-3.798 1.154-1.346.77-2.404 1.875-3.22 3.22-.818 1.395-1.54 3.318-2.068 5.866l-2.452 11.778h-4.23z" fill-rule="nonzero"/></g><g><path d="M2046.957 1507.476l22.252 16.822h-10.205v24.242h-24.091v-24.242h-10.207l22.25-16.822z" fill="#58595b" fill-rule="nonzero"/></g><g><path d="M2067.487 1587.009l-16.822 22.253v-10.207h-24.241v-24.091h24.24v-10.207l16.823 22.252z" fill="#58595b" fill-rule="nonzero"/></g><g><path d="M2095.829 1460.132v13.088h-80v-13.088z"/><path d="M2232.518 687.927h-183.235v523.53h183.235v-523.53zm-180.234 3v517.53h177.232v-517.53h-177.232z" fill="#231f20"/><path d="M2049.28 687.923h13.088v785.294h-13.088z"/><path d="M2102.067 736.178l.373 2.237c-.717.144-1.348.23-1.921.23-.918 0-1.635-.144-2.123-.43a2.398 2.398 0 01-1.061-1.148c-.2-.487-.316-1.462-.316-2.982v-8.547h-1.835v-1.98h1.835v-3.67l2.496-1.52v5.19h2.552v1.98h-2.552v8.69c0 .717.057 1.176.143 1.377a.9.9 0 00.43.487c.201.144.488.201.86.201.288 0 .66-.029 1.12-.115zM2114.712 733.654l2.61.316c-.43 1.52-1.176 2.696-2.294 3.556-1.119.832-2.524 1.262-4.245 1.262-2.18 0-3.9-.688-5.191-2.007-1.262-1.348-1.893-3.241-1.893-5.65 0-2.496.63-4.446 1.921-5.823 1.291-1.376 2.955-2.065 5.02-2.065 1.978 0 3.613.66 4.875 2.037 1.262 1.348 1.893 3.24 1.893 5.707 0 .143-.029.373-.029.66h-11.099c.115 1.635.574 2.896 1.405 3.757.832.86 1.865 1.29 3.098 1.29.918 0 1.72-.229 2.38-.717.631-.487 1.176-1.261 1.55-2.323zm-8.289-4.072h8.318c-.115-1.262-.43-2.18-.947-2.811-.803-.975-1.864-1.463-3.126-1.463-1.176 0-2.15.402-2.925 1.176-.803.775-1.233 1.807-1.32 3.098zM2119.477 733.999l2.495-.373c.143.975.516 1.75 1.147 2.294.66.516 1.549.774 2.696.774 1.147 0 2.008-.229 2.581-.688.545-.487.832-1.032.832-1.663 0-.574-.258-1.033-.746-1.348-.344-.23-1.204-.517-2.58-.86-1.836-.46-3.127-.861-3.844-1.205-.717-.344-1.233-.803-1.606-1.406a3.726 3.726 0 01-.574-2.007c0-.66.172-1.262.46-1.836a4.166 4.166 0 011.232-1.405c.402-.287.947-.545 1.606-.746.689-.2 1.406-.287 2.18-.287 1.176 0 2.209.172 3.098.488.86.344 1.52.803 1.95 1.377.401.573.688 1.348.86 2.294l-2.466.344c-.115-.774-.43-1.376-.975-1.807-.545-.43-1.29-.63-2.266-.63-1.176 0-1.979.2-2.495.573-.488.373-.746.832-.746 1.348 0 .315.115.63.316.889.2.258.544.488.975.66.258.086.975.315 2.208.66 1.807.458 3.04.86 3.757 1.147.689.315 1.233.745 1.635 1.319.402.602.602 1.32.602 2.18 0 .831-.23 1.634-.717 2.351-.487.746-1.204 1.32-2.122 1.721-.918.43-1.979.631-3.155.631-1.922 0-3.384-.401-4.417-1.204-1.004-.803-1.634-2.008-1.921-3.585zM2133.817 733.999l2.495-.373c.143.975.516 1.75 1.147 2.294.66.516 1.549.774 2.696.774 1.147 0 2.008-.229 2.581-.688.545-.487.832-1.032.832-1.663 0-.574-.258-1.033-.746-1.348-.344-.23-1.204-.517-2.58-.86-1.836-.46-3.127-.861-3.844-1.205-.717-.344-1.233-.803-1.606-1.406a3.726 3.726 0 01-.574-2.007c0-.66.172-1.262.46-1.836a4.166 4.166 0 011.232-1.405c.402-.287.947-.545 1.606-.746.689-.2 1.406-.287 2.18-.287 1.176 0 2.209.172 3.098.488.86.344 1.52.803 1.95 1.377.401.573.688 1.348.86 2.294l-2.466.344c-.115-.774-.43-1.376-.975-1.807-.545-.43-1.291-.63-2.266-.63-1.176 0-1.98.2-2.495.573-.488.373-.746.832-.746 1.348 0 .315.115.63.315.889.201.258.545.488.976.66.258.086.975.315 2.208.66 1.807.458 3.04.86 3.757 1.147.688.315 1.233.745 1.635 1.319.401.602.602 1.32.602 2.18 0 .831-.23 1.634-.717 2.351-.487.746-1.204 1.32-2.122 1.721-.918.43-1.98.631-3.155.631-1.922 0-3.384-.401-4.417-1.204-1.004-.803-1.635-2.008-1.921-3.585zM2158.912 738.444v-2.18c-1.176 1.664-2.725 2.524-4.733 2.524-.86 0-1.692-.172-2.437-.516-.775-.344-1.348-.746-1.721-1.262-.344-.516-.602-1.147-.775-1.864-.086-.488-.143-1.29-.143-2.352v-9.235h2.524v8.26c0 1.32.057 2.208.143 2.667.172.66.488 1.176 1.004 1.549s1.147.573 1.922.573c.745 0 1.462-.2 2.122-.573.66-.402 1.119-.918 1.405-1.578.287-.688.402-1.634.402-2.925v-7.973h2.524v14.885h-2.237zM2170.617 736.178l.373 2.237c-.717.144-1.348.23-1.922.23-.918 0-1.635-.144-2.122-.43a2.398 2.398 0 01-1.061-1.148c-.201-.487-.316-1.462-.316-2.982v-8.547h-1.835v-1.98h1.835v-3.67l2.495-1.52v5.19h2.553v1.98h-2.553v8.69c0 .717.058 1.176.144 1.377a.9.9 0 00.43.487c.2.144.488.201.86.201.287 0 .66-.029 1.119-.115zM2172.134 731.016c0-2.754.774-4.79 2.294-6.138 1.29-1.09 2.84-1.635 4.675-1.635 2.065 0 3.729.66 5.02 2.008 1.29 1.348 1.95 3.184 1.95 5.535 0 1.922-.287 3.442-.86 4.532a6.115 6.115 0 01-2.496 2.552 7.436 7.436 0 01-3.614.918c-2.065 0-3.757-.688-5.048-2.007-1.261-1.348-1.921-3.27-1.921-5.765zm2.61 0c0 1.893.401 3.327 1.233 4.273.832.947 1.864 1.405 3.126 1.405 1.262 0 2.295-.458 3.126-1.405.832-.975 1.262-2.409 1.262-4.36 0-1.835-.43-3.24-1.262-4.187-.831-.946-1.864-1.434-3.126-1.434-1.262 0-2.294.488-3.126 1.434-.832.947-1.233 2.352-1.233 4.274zM2095.206 755.022v-2.438h13.307v1.979c-1.319 1.377-2.61 3.24-3.9 5.535a34.689 34.689 0 00-2.983 7.113c-.487 1.72-.803 3.614-.946 5.65h-2.61c.028-1.606.373-3.556.975-5.85a29.754 29.754 0 012.61-6.626c1.118-2.122 2.323-3.9 3.614-5.363h-10.067zM2111.012 767.47l2.639-.202c.2 1.29.63 2.237 1.348 2.897.717.66 1.577.975 2.581.975 1.233 0 2.266-.459 3.098-1.376.831-.918 1.261-2.123 1.261-3.643 0-1.434-.401-2.581-1.204-3.413-.832-.803-1.864-1.233-3.184-1.233-.803 0-1.548.172-2.208.545a4.564 4.564 0 00-1.52 1.434l-2.38-.287 1.978-10.554h10.21v2.409h-8.173l-1.119 5.506c1.233-.86 2.524-1.29 3.872-1.29 1.807 0 3.327.63 4.56 1.864 1.233 1.262 1.836 2.84 1.836 4.79 0 1.864-.545 3.47-1.635 4.818-1.29 1.663-3.098 2.495-5.392 2.495-1.864 0-3.384-.516-4.56-1.549-1.176-1.06-1.864-2.437-2.008-4.187zM2125.958 772.861l5.45-7.744-5.048-7.141h3.155l2.294 3.499c.43.66.775 1.233 1.033 1.663.401-.602.803-1.147 1.147-1.634l2.495-3.528h3.011l-5.133 7.027 5.535 7.858h-3.097l-3.07-4.618-.802-1.262-3.9 5.88h-3.07zM2154.524 770.452v2.409h-13.566c0-.602.086-1.205.315-1.75.345-.917.89-1.835 1.635-2.724.775-.918 1.864-1.95 3.298-3.126 2.238-1.807 3.758-3.27 4.532-4.331.774-1.09 1.176-2.094 1.176-3.04 0-1.004-.344-1.836-1.061-2.524s-1.664-1.033-2.811-1.033c-1.205 0-2.18.373-2.897 1.09-.745.717-1.09 1.75-1.118 3.04l-2.581-.286c.172-1.922.831-3.385 2.007-4.417 1.147-1.004 2.696-1.52 4.646-1.52 1.98 0 3.528.545 4.675 1.635 1.147 1.09 1.721 2.466 1.721 4.072 0 .832-.143 1.635-.487 2.41-.345.802-.89 1.634-1.664 2.523-.803.86-2.094 2.065-3.9 3.614-1.52 1.262-2.496 2.122-2.926 2.581-.43.46-.774.918-1.061 1.377h10.067zM2157.252 762.737c0-2.438.23-4.388.746-5.851.487-1.491 1.233-2.639 2.208-3.442 1.004-.803 2.237-1.204 3.729-1.204 1.09 0 2.065.23 2.896.66a5.75 5.75 0 012.065 1.921c.545.832.947 1.864 1.262 3.069.316 1.204.46 2.81.46 4.847 0 2.409-.23 4.36-.747 5.822-.487 1.491-1.233 2.639-2.208 3.442-.975.803-2.237 1.204-3.728 1.204-1.98 0-3.528-.717-4.675-2.122-1.348-1.721-2.008-4.503-2.008-8.346zm2.581 0c0 3.355.402 5.621 1.176 6.74.803 1.09 1.778 1.663 2.926 1.663 1.147 0 2.122-.573 2.925-1.692.774-1.119 1.176-3.356 1.176-6.711 0-3.385-.402-5.622-1.176-6.74-.803-1.119-1.778-1.664-2.954-1.664-1.147 0-2.094.488-2.782 1.463-.86 1.262-1.29 3.556-1.29 6.94zM2173.202 762.737c0-2.438.23-4.388.746-5.851.487-1.491 1.233-2.639 2.208-3.442 1.004-.803 2.237-1.204 3.729-1.204 1.09 0 2.064.23 2.896.66a5.75 5.75 0 012.065 1.921c.545.832.947 1.864 1.262 3.069.316 1.204.459 2.81.459 4.847 0 2.409-.23 4.36-.746 5.822-.487 1.491-1.233 2.639-2.208 3.442-.975.803-2.237 1.204-3.728 1.204-1.98 0-3.528-.717-4.675-2.122-1.348-1.721-2.008-4.503-2.008-8.346zm2.581 0c0 3.355.402 5.621 1.176 6.74.803 1.09 1.778 1.663 2.926 1.663 1.147 0 2.122-.573 2.925-1.692.774-1.119 1.176-3.356 1.176-6.711 0-3.385-.402-5.622-1.176-6.74-.803-1.119-1.778-1.664-2.954-1.664-1.147 0-2.094.488-2.782 1.463-.86 1.262-1.29 3.556-1.29 6.94z" fill="#231f20" fill-rule="nonzero"/></g></g><g><path d="M1000.133 1548.1l1.827-8.797h-14.038l.914-4.183 19.277-21.44h3.461l-4.566 21.873h4.807l-.77 3.75h-4.807l-1.875 8.797h-4.23zm2.644-12.547l2.98-14.374-12.835 14.374h9.855zM1015.912 1536.803c0-2.885.433-5.865 1.298-8.846.865-3.028 1.827-5.432 2.885-7.21 1.057-1.828 2.163-3.222 3.317-4.231 1.153-1.01 2.26-1.779 3.365-2.26 1.105-.48 2.355-.72 3.701-.72 2.596 0 4.808 1.009 6.538 2.932 1.78 1.97 2.644 4.807 2.644 8.509 0 3.797-.576 7.547-1.826 11.249-1.443 4.423-3.414 7.74-6.01 9.951-1.97 1.683-4.182 2.5-6.73 2.5-2.596 0-4.76-1.01-6.538-3.029-1.778-2.019-2.644-4.951-2.644-8.845zm4.086 1.105c0 2.116.385 3.75 1.058 4.952.962 1.634 2.404 2.452 4.279 2.452 1.634 0 3.124-.77 4.47-2.212 1.923-2.115 3.414-5.192 4.375-9.23.962-4.038 1.442-7.355 1.442-9.903 0-2.5-.432-4.278-1.394-5.384-.961-1.106-2.211-1.635-3.75-1.635-1.105 0-2.163.289-3.172.866-.962.577-1.875 1.586-2.789 2.98-1.25 1.971-2.355 4.952-3.317 8.942-.769 3.365-1.202 6.105-1.202 8.172zM1042.642 1536.803c0-2.885.433-5.865 1.298-8.846.865-3.028 1.827-5.432 2.884-7.21 1.058-1.828 2.164-3.222 3.318-4.231 1.153-1.01 2.259-1.779 3.365-2.26 1.105-.48 2.355-.72 3.701-.72 2.596 0 4.808 1.009 6.538 2.932 1.779 1.97 2.644 4.807 2.644 8.509 0 3.797-.577 7.547-1.826 11.249-1.443 4.423-3.414 7.74-6.01 9.951-1.97 1.683-4.182 2.5-6.73 2.5-2.596 0-4.76-1.01-6.538-3.029-1.779-2.019-2.644-4.951-2.644-8.845zm4.086 1.105c0 2.116.385 3.75 1.058 4.952.961 1.634 2.404 2.452 4.278 2.452 1.635 0 3.125-.77 4.471-2.212 1.923-2.115 3.413-5.192 4.375-9.23.961-4.038 1.442-7.355 1.442-9.903 0-2.5-.433-4.278-1.394-5.384-.961-1.106-2.211-1.635-3.75-1.635-1.105 0-2.163.289-3.173.866-.961.577-1.874 1.586-2.788 2.98-1.25 1.971-2.355 4.952-3.317 8.942-.769 3.365-1.202 6.105-1.202 8.172zM1084.765 1539.014l4.23.433c-1.057 3.125-2.547 5.432-4.518 6.97-1.971 1.49-4.182 2.26-6.682 2.26-2.74 0-4.904-.914-6.586-2.644-1.683-1.73-2.548-4.183-2.548-7.355 0-2.693.529-5.385 1.634-8.029 1.058-2.596 2.596-4.615 4.615-6.009 2.02-1.346 4.327-2.019 6.923-2.019 2.644 0 4.76.721 6.346 2.26 1.538 1.49 2.355 3.509 2.355 6.009l-4.182.24c0-1.538-.48-2.788-1.394-3.702-.866-.865-2.067-1.346-3.558-1.346-1.682 0-3.173.577-4.422 1.635-1.25 1.106-2.212 2.74-2.933 4.903-.721 2.212-1.058 4.327-1.058 6.394 0 2.115.433 3.702 1.395 4.76.913 1.057 2.067 1.586 3.46 1.586 1.395 0 2.693-.529 3.943-1.539 1.298-1.057 2.26-2.644 2.98-4.807zM1091.595 1548.1l5.192-24.95h4.23l-.865 4.134c1.587-1.779 3.029-2.98 4.279-3.653 1.202-.673 2.596-1.01 4.038-1.01 1.538 0 2.836.385 3.894 1.202 1.01.817 1.682 1.97 2.019 3.461 1.298-1.586 2.596-2.74 4.038-3.51 1.394-.768 2.836-1.153 4.423-1.153 2.067 0 3.605.48 4.663 1.442 1.057 1.01 1.586 2.404 1.586 4.183 0 .769-.192 2.019-.577 3.797l-3.365 16.057h-4.23l3.413-16.49c.337-1.345.48-2.307.48-2.884 0-.817-.288-1.442-.768-1.923-.53-.48-1.25-.72-2.212-.72-1.25 0-2.548.384-3.846 1.153-1.346.77-2.355 1.779-3.076 3.029-.721 1.25-1.394 3.173-1.923 5.769l-2.548 12.066h-4.23l3.509-16.826c.24-1.153.384-1.97.384-2.451 0-.818-.24-1.443-.769-1.971-.48-.481-1.154-.77-1.97-.77-1.203 0-2.5.385-3.799 1.154-1.346.77-2.403 1.875-3.22 3.221-.818 1.394-1.539 3.317-2.068 5.865l-2.451 11.778h-4.23z" fill-rule="nonzero"/><g><path d="M997.345 1600.833l5.432-26.008c-2.356 1.875-5.673 3.365-9.903 4.471l.817-3.846a39.354 39.354 0 006.25-3.317c2.019-1.346 3.605-2.548 4.615-3.557a11.243 11.243 0 001.778-2.308h2.452l-7.163 34.565h-4.278zM1015.912 1589.536c0-2.885.433-5.865 1.298-8.846.865-3.029 1.827-5.432 2.885-7.21 1.057-1.828 2.163-3.222 3.317-4.231 1.153-1.01 2.26-1.78 3.365-2.26 1.105-.48 2.355-.72 3.701-.72 2.596 0 4.808 1.009 6.538 2.932 1.78 1.97 2.644 4.807 2.644 8.509 0 3.797-.576 7.547-1.826 11.249-1.443 4.423-3.414 7.74-6.01 9.951-1.97 1.683-4.182 2.5-6.73 2.5-2.596 0-4.76-1.01-6.538-3.029-1.778-2.019-2.644-4.951-2.644-8.845zm4.086 1.105c0 2.116.385 3.75 1.058 4.952.962 1.634 2.404 2.452 4.279 2.452 1.634 0 3.124-.77 4.47-2.212 1.923-2.115 3.414-5.192 4.375-9.23.962-4.038 1.442-7.355 1.442-9.903 0-2.5-.432-4.279-1.394-5.384-.961-1.106-2.211-1.635-3.75-1.635-1.105 0-2.163.289-3.172.866-.962.576-1.875 1.586-2.789 2.98-1.25 1.971-2.355 4.952-3.317 8.942-.769 3.365-1.202 6.105-1.202 8.172zM1042.642 1589.536c0-2.885.433-5.865 1.298-8.846.865-3.029 1.827-5.432 2.884-7.21 1.058-1.828 2.164-3.222 3.318-4.231 1.153-1.01 2.259-1.78 3.365-2.26 1.105-.48 2.355-.72 3.701-.72 2.596 0 4.808 1.009 6.538 2.932 1.779 1.97 2.644 4.807 2.644 8.509 0 3.797-.577 7.547-1.826 11.249-1.443 4.423-3.414 7.74-6.01 9.951-1.97 1.683-4.182 2.5-6.73 2.5-2.596 0-4.76-1.01-6.538-3.029-1.779-2.019-2.644-4.951-2.644-8.845zm4.086 1.105c0 2.116.385 3.75 1.058 4.952.961 1.634 2.404 2.452 4.278 2.452 1.635 0 3.125-.77 4.471-2.212 1.923-2.115 3.413-5.192 4.375-9.23.961-4.038 1.442-7.355 1.442-9.903 0-2.5-.433-4.279-1.394-5.384-.961-1.106-2.211-1.635-3.75-1.635-1.105 0-2.163.289-3.173.866-.961.576-1.874 1.586-2.788 2.98-1.25 1.971-2.355 4.952-3.317 8.942-.769 3.365-1.202 6.105-1.202 8.172zM1084.765 1591.747l4.23.433c-1.057 3.124-2.547 5.432-4.518 6.97-1.971 1.49-4.182 2.26-6.682 2.26-2.74 0-4.904-.914-6.586-2.644-1.683-1.73-2.548-4.183-2.548-7.356 0-2.692.529-5.384 1.634-8.028 1.058-2.596 2.596-4.615 4.615-6.009 2.02-1.346 4.327-2.02 6.923-2.02 2.644 0 4.76.722 6.346 2.26 1.538 1.49 2.355 3.51 2.355 6.01l-4.182.24c0-1.538-.48-2.788-1.394-3.702-.866-.865-2.067-1.346-3.558-1.346-1.682 0-3.173.577-4.422 1.635-1.25 1.105-2.212 2.74-2.933 4.903-.721 2.212-1.058 4.327-1.058 6.394 0 2.115.433 3.702 1.395 4.76.913 1.057 2.067 1.586 3.46 1.586 1.395 0 2.693-.53 3.943-1.539 1.298-1.057 2.26-2.644 2.98-4.807zM1091.595 1600.833l5.192-24.95h4.23l-.865 4.134c1.587-1.779 3.029-2.98 4.279-3.654 1.202-.673 2.596-1.01 4.038-1.01 1.538 0 2.836.386 3.894 1.203 1.01.817 1.682 1.97 2.019 3.461 1.298-1.586 2.596-2.74 4.038-3.51 1.394-.768 2.836-1.153 4.423-1.153 2.067 0 3.605.48 4.663 1.442 1.057 1.01 1.586 2.404 1.586 4.183 0 .769-.192 2.019-.577 3.797l-3.365 16.057h-4.23l3.413-16.49c.337-1.345.48-2.307.48-2.884 0-.817-.288-1.442-.768-1.923-.53-.48-1.25-.72-2.212-.72-1.25 0-2.548.384-3.846 1.153-1.346.77-2.355 1.779-3.076 3.029-.721 1.25-1.394 3.172-1.923 5.768l-2.548 12.067h-4.23l3.509-16.826c.24-1.154.384-1.97.384-2.452 0-.817-.24-1.442-.769-1.97-.48-.481-1.154-.77-1.97-.77-1.203 0-2.5.385-3.799 1.154-1.346.77-2.403 1.875-3.22 3.22-.818 1.395-1.539 3.318-2.068 5.866l-2.451 11.778h-4.23z" fill-rule="nonzero"/></g><g><path d="M948.953 1507.476l22.252 16.822H961v24.242h-24.09v-24.242h-10.208l22.251-16.822z" fill="#58595b" fill-rule="nonzero"/></g><g><path d="M969.483 1587.009l-16.822 22.253v-10.207h-24.24v-24.091h24.24v-10.207l16.822 22.252z" fill="#58595b" fill-rule="nonzero"/></g><g><path d="M958.558 1460.132v13.088h-80v-13.088z"/><path d="M1173.777 426.162H912.013v654.412h261.764V426.162zm-258.766 3v648.409h255.768V429.162H915.01z" fill="#231f20"/><path d="M912.01 426.16h13.088v1047.06h-13.089z"/><path d="M1004.057 474.478l.372 2.237c-.717.144-1.348.23-1.921.23-.918 0-1.635-.144-2.122-.43a2.398 2.398 0 01-1.062-1.148c-.2-.487-.315-1.462-.315-2.982v-8.547h-1.836v-1.98h1.836v-3.67l2.495-1.52v5.19h2.553v1.98h-2.553v8.69c0 .717.057 1.176.143 1.377a.9.9 0 00.43.487c.201.144.488.201.861.201.287 0 .66-.029 1.119-.115zM1016.701 471.954l2.61.316c-.43 1.52-1.176 2.696-2.294 3.556-1.119.832-2.524 1.262-4.245 1.262-2.18 0-3.9-.688-5.19-2.007-1.263-1.348-1.894-3.241-1.894-5.65 0-2.496.631-4.446 1.922-5.823 1.29-1.376 2.954-2.065 5.019-2.065 1.979 0 3.614.66 4.876 2.037 1.261 1.348 1.892 3.24 1.892 5.707 0 .143-.028.373-.028.66h-11.1c.115 1.635.574 2.896 1.406 3.757.832.86 1.864 1.29 3.097 1.29.918 0 1.721-.229 2.38-.717.632-.487 1.177-1.261 1.55-2.323zm-8.288-4.072h8.317c-.115-1.262-.43-2.18-.946-2.811-.803-.975-1.865-1.463-3.126-1.463-1.176 0-2.151.402-2.926 1.176-.803.775-1.233 1.807-1.32 3.098zM1021.466 472.299l2.495-.373c.144.975.516 1.75 1.147 2.294.66.516 1.55.774 2.696.774 1.148 0 2.008-.229 2.582-.688.545-.487.831-1.032.831-1.663 0-.574-.258-1.033-.745-1.348-.344-.23-1.205-.517-2.582-.86-1.835-.46-3.126-.861-3.843-1.205-.717-.344-1.233-.803-1.606-1.406a3.726 3.726 0 01-.573-2.007c0-.66.172-1.262.458-1.836a4.166 4.166 0 011.234-1.405c.401-.287.946-.545 1.606-.746.688-.2 1.405-.287 2.18-.287 1.175 0 2.208.172 3.097.488.86.344 1.52.803 1.95 1.377.402.573.689 1.348.86 2.294l-2.466.344c-.115-.774-.43-1.376-.975-1.807-.545-.43-1.29-.63-2.266-.63-1.176 0-1.979.2-2.495.573-.487.373-.746.832-.746 1.348 0 .315.115.63.316.889.2.258.545.488.975.66.258.086.975.315 2.208.66 1.807.458 3.04.86 3.758 1.147.688.315 1.233.745 1.634 1.319.402.602.603 1.32.603 2.18 0 .831-.23 1.634-.717 2.351-.488.746-1.205 1.32-2.123 1.721-.918.43-1.979.631-3.155.631-1.921 0-3.384-.401-4.416-1.204-1.004-.803-1.635-2.008-1.922-3.585zM1035.806 472.299l2.495-.373c.144.975.516 1.75 1.147 2.294.66.516 1.55.774 2.696.774 1.148 0 2.008-.229 2.582-.688.545-.487.831-1.032.831-1.663 0-.574-.258-1.033-.745-1.348-.345-.23-1.205-.517-2.582-.86-1.835-.46-3.126-.861-3.843-1.205-.717-.344-1.233-.803-1.606-1.406a3.726 3.726 0 01-.573-2.007c0-.66.172-1.262.458-1.836a4.166 4.166 0 011.234-1.405c.401-.287.946-.545 1.606-.746.688-.2 1.405-.287 2.18-.287 1.175 0 2.208.172 3.097.488.86.344 1.52.803 1.95 1.377.402.573.689 1.348.86 2.294l-2.466.344c-.115-.774-.43-1.376-.975-1.807-.545-.43-1.29-.63-2.266-.63-1.176 0-1.979.2-2.495.573-.488.373-.746.832-.746 1.348 0 .315.115.63.316.889.2.258.545.488.975.66.258.086.975.315 2.208.66 1.807.458 3.04.86 3.757 1.147.689.315 1.234.745 1.635 1.319.402.602.603 1.32.603 2.18 0 .831-.23 1.634-.717 2.351-.488.746-1.205 1.32-2.123 1.721-.918.43-1.979.631-3.155.631-1.921 0-3.384-.401-4.416-1.204-1.004-.803-1.635-2.008-1.922-3.585zM1060.901 476.744v-2.18c-1.176 1.664-2.725 2.524-4.732 2.524-.86 0-1.692-.172-2.438-.516-.774-.344-1.348-.746-1.72-1.262-.345-.516-.603-1.147-.775-1.864-.086-.488-.144-1.29-.144-2.352v-9.235h2.524v8.26c0 1.32.058 2.208.144 2.667.172.66.487 1.176 1.003 1.549.517.373 1.148.573 1.922.573.746 0 1.463-.2 2.122-.573.66-.402 1.119-.918 1.406-1.578.287-.688.401-1.634.401-2.925v-7.973h2.524v14.885h-2.237zM1072.606 474.478l.373 2.237c-.717.144-1.348.23-1.921.23-.918 0-1.635-.144-2.123-.43a2.398 2.398 0 01-1.06-1.148c-.202-.487-.316-1.462-.316-2.982v-8.547h-1.836v-1.98h1.836v-3.67l2.495-1.52v5.19h2.552v1.98h-2.552v8.69c0 .717.057 1.176.143 1.377a.9.9 0 00.43.487c.201.144.488.201.86.201.288 0 .66-.029 1.12-.115zM1074.123 469.316c0-2.754.775-4.79 2.295-6.138 1.29-1.09 2.839-1.635 4.675-1.635 2.065 0 3.728.66 5.019 2.008 1.29 1.348 1.95 3.184 1.95 5.535 0 1.922-.287 3.442-.86 4.532a6.115 6.115 0 01-2.496 2.552 7.436 7.436 0 01-3.613.918c-2.065 0-3.758-.688-5.048-2.007-1.262-1.348-1.922-3.27-1.922-5.765zm2.61 0c0 1.893.402 3.327 1.233 4.273.832.947 1.865 1.405 3.127 1.405 1.261 0 2.294-.458 3.126-1.405.831-.975 1.262-2.409 1.262-4.36 0-1.835-.43-3.24-1.262-4.187-.832-.946-1.865-1.434-3.126-1.434-1.262 0-2.295.488-3.127 1.434-.831.947-1.233 2.352-1.233 4.274zM998.575 511.161h-2.524V495.1c-.602.574-1.405 1.147-2.41 1.72-.974.603-1.863 1.033-2.638 1.32v-2.438c1.406-.66 2.639-1.462 3.7-2.409 1.061-.946 1.807-1.864 2.237-2.753h1.635v20.621zM1005.032 501.037c0-2.438.229-4.388.745-5.851.488-1.491 1.234-2.639 2.209-3.442 1.003-.803 2.237-1.204 3.728-1.204 1.09 0 2.065.23 2.897.66a5.75 5.75 0 012.065 1.921c.545.832.946 1.864 1.262 3.069.315 1.204.459 2.81.459 4.847 0 2.409-.23 4.36-.746 5.822-.488 1.491-1.233 2.639-2.208 3.442-.976.803-2.237 1.204-3.729 1.204-1.979 0-3.528-.717-4.675-2.122-1.348-1.721-2.007-4.503-2.007-8.346zm2.58 0c0 3.355.402 5.621 1.177 6.74.803 1.09 1.778 1.663 2.925 1.663 1.147 0 2.122-.573 2.926-1.692.774-1.119 1.175-3.356 1.175-6.711 0-3.385-.401-5.622-1.175-6.74-.804-1.119-1.779-1.664-2.955-1.664-1.147 0-2.093.488-2.782 1.463-.86 1.262-1.29 3.556-1.29 6.94zM1020.982 501.037c0-2.438.229-4.388.745-5.851.488-1.491 1.233-2.639 2.209-3.442 1.003-.803 2.237-1.204 3.728-1.204 1.09 0 2.065.23 2.897.66a5.75 5.75 0 012.065 1.921c.545.832.946 1.864 1.262 3.069.315 1.204.459 2.81.459 4.847 0 2.409-.23 4.36-.746 5.822-.488 1.491-1.233 2.639-2.208 3.442-.976.803-2.238 1.204-3.729 1.204-1.979 0-3.528-.717-4.675-2.122-1.348-1.721-2.007-4.503-2.007-8.346zm2.58 0c0 3.355.402 5.621 1.177 6.74.803 1.09 1.778 1.663 2.925 1.663 1.147 0 2.122-.573 2.925-1.692.775-1.119 1.176-3.356 1.176-6.711 0-3.385-.401-5.622-1.176-6.74-.803-1.119-1.778-1.664-2.954-1.664-1.147 0-2.093.488-2.782 1.463-.86 1.262-1.29 3.556-1.29 6.94zM1035.928 511.161l5.449-7.744-5.048-7.141h3.155l2.294 3.499c.43.66.775 1.233 1.033 1.663.401-.602.803-1.147 1.147-1.634l2.495-3.528h3.012l-5.134 7.027 5.535 7.858h-3.097l-3.069-4.618-.803-1.262-3.9 5.88h-3.07zM1064.493 508.752v2.409h-13.566c0-.602.086-1.205.316-1.75.344-.917.889-1.835 1.635-2.724.774-.918 1.864-1.95 3.298-3.126 2.237-1.807 3.757-3.27 4.531-4.331.775-1.09 1.176-2.094 1.176-3.04 0-1.004-.344-1.836-1.061-2.524s-1.663-1.033-2.81-1.033c-1.205 0-2.18.373-2.897 1.09-.746.717-1.09 1.75-1.119 3.04l-2.581-.286c.172-1.922.832-3.385 2.007-4.417 1.148-1.004 2.696-1.52 4.647-1.52 1.979 0 3.527.545 4.675 1.635 1.147 1.09 1.72 2.466 1.72 4.072 0 .832-.143 1.635-.487 2.41-.344.802-.89 1.634-1.664 2.523-.803.86-2.093 2.065-3.9 3.614-1.52 1.262-2.495 2.122-2.926 2.581-.43.46-.774.918-1.06 1.377h10.066zM1067.221 505.77l2.639-.202c.2 1.29.63 2.237 1.348 2.897.717.66 1.577.975 2.581.975 1.233 0 2.266-.459 3.098-1.376.831-.918 1.262-2.123 1.262-3.643 0-1.434-.402-2.581-1.205-3.413-.832-.803-1.864-1.233-3.184-1.233-.803 0-1.548.172-2.208.545a4.564 4.564 0 00-1.52 1.434l-2.38-.287 1.979-10.554h10.21v2.409h-8.174l-1.119 5.506c1.234-.86 2.524-1.29 3.872-1.29 1.807 0 3.327.63 4.56 1.864 1.234 1.262 1.836 2.84 1.836 4.79 0 1.864-.545 3.47-1.635 4.818-1.29 1.663-3.097 2.495-5.392 2.495-1.864 0-3.384-.516-4.56-1.549-1.176-1.06-1.864-2.437-2.008-4.187zM1083.171 501.037c0-2.438.23-4.388.746-5.851.488-1.491 1.233-2.639 2.208-3.442 1.004-.803 2.237-1.204 3.729-1.204 1.09 0 2.065.23 2.897.66a5.75 5.75 0 012.065 1.921c.544.832.946 1.864 1.261 3.069.316 1.204.46 2.81.46 4.847 0 2.409-.23 4.36-.746 5.822-.488 1.491-1.234 2.639-2.209 3.442-.975.803-2.237 1.204-3.728 1.204-1.98 0-3.528-.717-4.675-2.122-1.348-1.721-2.008-4.503-2.008-8.346zm2.582 0c0 3.355.401 5.621 1.175 6.74.803 1.09 1.779 1.663 2.926 1.663 1.147 0 2.122-.573 2.925-1.692.775-1.119 1.176-3.356 1.176-6.711 0-3.385-.401-5.622-1.176-6.74-.803-1.119-1.778-1.664-2.954-1.664-1.147 0-2.094.488-2.782 1.463-.86 1.262-1.29 3.556-1.29 6.94z" fill="#231f20" fill-rule="nonzero"/></g></g><g><path d="M1366.134 1548.1l1.827-8.797h-14.038l.914-4.183 19.277-21.44h3.462l-4.567 21.873h4.807l-.77 3.75h-4.807l-1.874 8.797h-4.23zm2.644-12.547l2.98-14.374-12.835 14.374h9.855zM1381.913 1536.803c0-2.885.433-5.865 1.298-8.846.866-3.028 1.827-5.432 2.885-7.21 1.057-1.828 2.163-3.222 3.317-4.231 1.153-1.01 2.26-1.779 3.365-2.26 1.106-.48 2.355-.72 3.701-.72 2.596 0 4.808 1.009 6.538 2.932 1.78 1.97 2.644 4.807 2.644 8.509 0 3.797-.576 7.547-1.826 11.249-1.443 4.423-3.414 7.74-6.01 9.951-1.97 1.683-4.182 2.5-6.73 2.5-2.596 0-4.759-1.01-6.538-3.029-1.778-2.019-2.644-4.951-2.644-8.845zm4.086 1.105c0 2.116.385 3.75 1.058 4.952.962 1.634 2.404 2.452 4.279 2.452 1.634 0 3.124-.77 4.47-2.212 1.923-2.115 3.414-5.192 4.375-9.23.962-4.038 1.442-7.355 1.442-9.903 0-2.5-.432-4.278-1.394-5.384-.961-1.106-2.211-1.635-3.75-1.635-1.105 0-2.163.289-3.172.866-.962.577-1.875 1.586-2.789 2.98-1.25 1.971-2.355 4.952-3.317 8.942-.769 3.365-1.202 6.105-1.202 8.172zM1408.643 1536.803c0-2.885.433-5.865 1.298-8.846.865-3.028 1.827-5.432 2.885-7.21 1.057-1.828 2.163-3.222 3.317-4.231 1.153-1.01 2.259-1.779 3.365-2.26 1.105-.48 2.355-.72 3.701-.72 2.596 0 4.808 1.009 6.538 2.932 1.779 1.97 2.644 4.807 2.644 8.509 0 3.797-.577 7.547-1.826 11.249-1.443 4.423-3.414 7.74-6.01 9.951-1.97 1.683-4.182 2.5-6.73 2.5-2.596 0-4.76-1.01-6.538-3.029-1.779-2.019-2.644-4.951-2.644-8.845zm4.086 1.105c0 2.116.385 3.75 1.058 4.952.961 1.634 2.404 2.452 4.279 2.452 1.634 0 3.124-.77 4.47-2.212 1.923-2.115 3.414-5.192 4.375-9.23.961-4.038 1.442-7.355 1.442-9.903 0-2.5-.432-4.278-1.394-5.384-.961-1.106-2.211-1.635-3.75-1.635-1.105 0-2.163.289-3.172.866-.962.577-1.875 1.586-2.789 2.98-1.25 1.971-2.355 4.952-3.317 8.942-.769 3.365-1.202 6.105-1.202 8.172zM1450.766 1539.014l4.23.433c-1.057 3.125-2.547 5.432-4.518 6.97-1.971 1.49-4.182 2.26-6.682 2.26-2.74 0-4.904-.914-6.586-2.644-1.683-1.73-2.548-4.183-2.548-7.355 0-2.693.529-5.385 1.634-8.029 1.058-2.596 2.596-4.615 4.615-6.009 2.02-1.346 4.327-2.019 6.923-2.019 2.644 0 4.76.721 6.346 2.26 1.538 1.49 2.355 3.509 2.355 6.009l-4.182.24c0-1.538-.48-2.788-1.394-3.702-.866-.865-2.067-1.346-3.558-1.346-1.682 0-3.172.577-4.422 1.635-1.25 1.106-2.212 2.74-2.933 4.903-.721 2.212-1.057 4.327-1.057 6.394 0 2.115.432 3.702 1.394 4.76.913 1.057 2.067 1.586 3.46 1.586 1.395 0 2.693-.529 3.943-1.539 1.298-1.057 2.26-2.644 2.98-4.807zM1457.596 1548.1l5.192-24.95h4.23l-.865 4.134c1.587-1.779 3.029-2.98 4.279-3.653 1.202-.673 2.596-1.01 4.038-1.01 1.538 0 2.836.385 3.894 1.202 1.01.817 1.682 1.97 2.019 3.461 1.298-1.586 2.596-2.74 4.038-3.51 1.394-.768 2.836-1.153 4.423-1.153 2.067 0 3.605.48 4.663 1.442 1.058 1.01 1.586 2.404 1.586 4.183 0 .769-.192 2.019-.577 3.797l-3.365 16.057h-4.23l3.413-16.49c.337-1.345.48-2.307.48-2.884 0-.817-.288-1.442-.768-1.923-.53-.48-1.25-.72-2.212-.72-1.25 0-2.548.384-3.846 1.153-1.346.77-2.355 1.779-3.076 3.029-.721 1.25-1.394 3.173-1.923 5.769l-2.548 12.066h-4.23l3.509-16.826c.24-1.153.384-1.97.384-2.451 0-.818-.24-1.443-.769-1.971-.48-.481-1.154-.77-1.97-.77-1.203 0-2.5.385-3.799 1.154-1.346.77-2.403 1.875-3.22 3.221-.818 1.394-1.539 3.317-2.068 5.865l-2.451 11.778h-4.23z" fill-rule="nonzero"/><g><path d="M1358.73 1600.833c.385-2.308 1.155-5.096 2.404-8.365 1.443-3.942 3.366-7.836 5.721-11.682 2.356-3.894 5-7.21 7.884-9.999h-17.162l.817-3.894h21.97l-.77 3.894c-3.75 3.269-7.018 7.5-9.806 12.643-3.221 5.961-5.433 11.778-6.634 17.403h-4.423zM1381.865 1590.978l4.327-.385c-.048.577-.048.962-.048 1.106 0 1.01.24 2.067.769 3.125.529 1.01 1.25 1.827 2.115 2.403.913.53 1.875.818 2.884.818 1.298 0 2.645-.481 3.99-1.346 1.395-.914 2.5-2.26 3.318-3.99.865-1.731 1.298-3.462 1.298-5.144 0-1.923-.577-3.462-1.731-4.664-1.106-1.153-2.596-1.73-4.47-1.73-1.25 0-2.405.288-3.51.913-1.106.577-2.115 1.49-3.077 2.692l-3.702-.288 5.192-17.595h16.778l-.817 3.894h-13.076l-2.596 8.75c1.01-.722 1.97-1.25 3.028-1.587a9.916 9.916 0 013.125-.529c2.644 0 4.808.865 6.49 2.596 1.683 1.779 2.548 4.134 2.548 7.163 0 2.644-.577 5.096-1.73 7.307-1.154 2.212-2.74 3.942-4.808 5.144-2.02 1.202-4.182 1.779-6.538 1.779-1.971 0-3.702-.433-5.24-1.346-1.538-.866-2.644-2.116-3.413-3.654-.77-1.586-1.154-3.125-1.154-4.711 0-.144 0-.385.048-.721zM1424.027 1591.747l4.23.433c-1.058 3.124-2.548 5.432-4.519 6.97-1.97 1.49-4.182 2.26-6.682 2.26-2.74 0-4.904-.914-6.586-2.644-1.683-1.73-2.548-4.183-2.548-7.356 0-2.692.529-5.384 1.635-8.028 1.057-2.596 2.595-4.615 4.615-6.009 2.019-1.346 4.326-2.02 6.922-2.02 2.644 0 4.76.722 6.346 2.26 1.538 1.49 2.355 3.51 2.355 6.01l-4.182.24c0-1.538-.48-2.788-1.394-3.702-.865-.865-2.067-1.346-3.558-1.346-1.682 0-3.172.577-4.422 1.635-1.25 1.105-2.212 2.74-2.933 4.903-.72 2.212-1.057 4.327-1.057 6.394 0 2.115.432 3.702 1.394 4.76.913 1.057 2.067 1.586 3.461 1.586 1.394 0 2.692-.53 3.942-1.539 1.298-1.057 2.26-2.644 2.98-4.807zM1430.856 1600.833l5.192-24.95h4.23l-.865 4.134c1.587-1.779 3.029-2.98 4.279-3.654 1.202-.673 2.596-1.01 4.038-1.01 1.538 0 2.836.386 3.894 1.203 1.01.817 1.682 1.97 2.019 3.461 1.298-1.586 2.596-2.74 4.038-3.51 1.394-.768 2.836-1.153 4.423-1.153 2.067 0 3.605.48 4.663 1.442 1.058 1.01 1.586 2.404 1.586 4.183 0 .769-.192 2.019-.576 3.797l-3.366 16.057h-4.23l3.413-16.49c.337-1.345.48-2.307.48-2.884 0-.817-.288-1.442-.768-1.923-.53-.48-1.25-.72-2.212-.72-1.25 0-2.548.384-3.845 1.153-1.347.77-2.356 1.779-3.077 3.029-.721 1.25-1.394 3.172-1.923 5.768l-2.548 12.067h-4.23l3.509-16.826c.24-1.154.384-1.97.384-2.452 0-.817-.24-1.442-.769-1.97-.48-.481-1.153-.77-1.97-.77-1.203 0-2.5.385-3.798 1.154-1.347.77-2.404 1.875-3.221 3.22-.818 1.395-1.539 3.318-2.068 5.866l-2.451 11.778h-4.23z" fill-rule="nonzero"/></g><g><path d="M1314.954 1507.476l22.252 16.822h-10.205v24.242h-24.09v-24.242h-10.208l22.251-16.822z" fill="#58595b" fill-rule="nonzero"/></g><g><path d="M1335.484 1587.009l-16.822 22.253v-10.207h-24.24v-24.091h24.24v-10.207l16.822 22.252z" fill="#58595b" fill-rule="nonzero"/></g><g><path d="M1363.827 1460.132v13.088h-80v-13.088z"/><path d="M1500.516 426.162h-183.235v654.412h183.235V426.162zm-180.233 3v648.409h177.231V429.162h-177.231z" fill="#231f20"/><path d="M1317.278 426.16h13.088v1047.06h-13.088z"/><path d="M1370.066 474.478l.372 2.237c-.717.144-1.347.23-1.921.23-.918 0-1.635-.144-2.122-.43a2.398 2.398 0 01-1.062-1.148c-.2-.487-.315-1.462-.315-2.982v-8.547h-1.836v-1.98h1.836v-3.67l2.495-1.52v5.19h2.553v1.98h-2.553v8.69c0 .717.057 1.176.143 1.377a.9.9 0 00.43.487c.201.144.488.201.861.201.287 0 .66-.029 1.119-.115zM1382.71 471.954l2.61.316c-.43 1.52-1.175 2.696-2.294 3.556-1.119.832-2.524 1.262-4.245 1.262-2.18 0-3.9-.688-5.19-2.007-1.263-1.348-1.894-3.241-1.894-5.65 0-2.496.631-4.446 1.922-5.823 1.29-1.376 2.954-2.065 5.019-2.065 1.979 0 3.614.66 4.876 2.037 1.262 1.348 1.892 3.24 1.892 5.707 0 .143-.028.373-.028.66h-11.1c.115 1.635.574 2.896 1.406 3.757.832.86 1.864 1.29 3.097 1.29.918 0 1.721-.229 2.38-.717.632-.487 1.177-1.261 1.55-2.323zm-8.288-4.072h8.317c-.115-1.262-.43-2.18-.946-2.811-.803-.975-1.864-1.463-3.126-1.463-1.176 0-2.151.402-2.926 1.176-.803.775-1.233 1.807-1.32 3.098zM1387.475 472.299l2.495-.373c.144.975.517 1.75 1.148 2.294.66.516 1.548.774 2.695.774 1.148 0 2.008-.229 2.582-.688.545-.487.831-1.032.831-1.663 0-.574-.258-1.033-.745-1.348-.344-.23-1.205-.517-2.581-.86-1.836-.46-3.127-.861-3.844-1.205-.717-.344-1.233-.803-1.606-1.406a3.726 3.726 0 01-.573-2.007c0-.66.172-1.262.459-1.836a4.166 4.166 0 011.233-1.405c.401-.287.946-.545 1.606-.746.688-.2 1.405-.287 2.18-.287 1.175 0 2.208.172 3.097.488.86.344 1.52.803 1.95 1.377.402.573.689 1.348.86 2.294l-2.466.344c-.114-.774-.43-1.376-.975-1.807-.545-.43-1.29-.63-2.266-.63-1.176 0-1.979.2-2.495.573-.487.373-.746.832-.746 1.348 0 .315.115.63.316.889.2.258.545.488.975.66.258.086.975.315 2.208.66 1.807.458 3.04.86 3.758 1.147.688.315 1.233.745 1.634 1.319.402.602.603 1.32.603 2.18 0 .831-.23 1.634-.717 2.351-.488.746-1.205 1.32-2.123 1.721-.917.43-1.979.631-3.155.631-1.921 0-3.384-.401-4.416-1.204-1.004-.803-1.635-2.008-1.922-3.585zM1401.815 472.299l2.495-.373c.144.975.516 1.75 1.147 2.294.66.516 1.55.774 2.696.774 1.148 0 2.008-.229 2.582-.688.545-.487.831-1.032.831-1.663 0-.574-.258-1.033-.745-1.348-.344-.23-1.205-.517-2.582-.86-1.835-.46-3.126-.861-3.843-1.205-.717-.344-1.233-.803-1.606-1.406a3.726 3.726 0 01-.573-2.007c0-.66.172-1.262.458-1.836a4.166 4.166 0 011.234-1.405c.401-.287.946-.545 1.606-.746.688-.2 1.405-.287 2.18-.287 1.175 0 2.208.172 3.097.488.86.344 1.52.803 1.95 1.377.402.573.689 1.348.86 2.294l-2.466.344c-.115-.774-.43-1.376-.975-1.807-.545-.43-1.29-.63-2.266-.63-1.176 0-1.979.2-2.495.573-.487.373-.746.832-.746 1.348 0 .315.115.63.316.889.2.258.545.488.975.66.258.086.975.315 2.208.66 1.807.458 3.04.86 3.758 1.147.688.315 1.233.745 1.634 1.319.402.602.603 1.32.603 2.18 0 .831-.23 1.634-.717 2.351-.488.746-1.205 1.32-2.123 1.721-.918.43-1.979.631-3.155.631-1.921 0-3.384-.401-4.416-1.204-1.004-.803-1.635-2.008-1.922-3.585zM1426.91 476.744v-2.18c-1.176 1.664-2.725 2.524-4.732 2.524-.86 0-1.692-.172-2.438-.516-.774-.344-1.348-.746-1.72-1.262-.345-.516-.603-1.147-.775-1.864-.086-.488-.144-1.29-.144-2.352v-9.235h2.524v8.26c0 1.32.058 2.208.144 2.667.172.66.487 1.176 1.004 1.549.516.373 1.147.573 1.921.573.746 0 1.463-.2 2.122-.573.66-.402 1.119-.918 1.406-1.578.287-.688.401-1.634.401-2.925v-7.973h2.524v14.885h-2.237zM1438.615 474.478l.373 2.237c-.717.144-1.348.23-1.921.23-.918 0-1.635-.144-2.123-.43a2.398 2.398 0 01-1.06-1.148c-.202-.487-.316-1.462-.316-2.982v-8.547h-1.836v-1.98h1.836v-3.67l2.495-1.52v5.19h2.552v1.98h-2.552v8.69c0 .717.057 1.176.143 1.377a.9.9 0 00.43.487c.201.144.488.201.86.201.288 0 .66-.029 1.12-.115zM1440.132 469.316c0-2.754.775-4.79 2.295-6.138 1.29-1.09 2.839-1.635 4.675-1.635 2.065 0 3.728.66 5.019 2.008 1.29 1.348 1.95 3.184 1.95 5.535 0 1.922-.287 3.442-.86 4.532a6.115 6.115 0 01-2.496 2.552 7.436 7.436 0 01-3.613.918c-2.065 0-3.758-.688-5.048-2.007-1.262-1.348-1.922-3.27-1.922-5.765zm2.61 0c0 1.893.402 3.327 1.233 4.273.832.947 1.865 1.405 3.127 1.405 1.262 0 2.294-.458 3.126-1.405.831-.975 1.262-2.409 1.262-4.36 0-1.835-.43-3.24-1.262-4.187-.832-.946-1.864-1.434-3.126-1.434-1.262 0-2.295.488-3.127 1.434-.831.947-1.233 2.352-1.233 4.274zM1363.204 493.322v-2.438h13.308v1.979c-1.32 1.377-2.61 3.24-3.9 5.535a34.689 34.689 0 00-2.984 7.113c-.487 1.72-.803 3.614-.946 5.65h-2.61c.029-1.606.373-3.556.975-5.85a29.754 29.754 0 012.61-6.626c1.119-2.122 2.323-3.9 3.614-5.363h-10.067zM1379.01 505.77l2.64-.202c.2 1.29.63 2.237 1.347 2.897.717.66 1.578.975 2.581.975 1.234 0 2.266-.459 3.098-1.376.832-.918 1.262-2.123 1.262-3.643 0-1.434-.402-2.581-1.205-3.413-.831-.803-1.864-1.233-3.183-1.233-.803 0-1.549.172-2.209.545a4.564 4.564 0 00-1.52 1.434l-2.38-.287 1.979-10.554h10.21v2.409h-8.174l-1.118 5.506c1.233-.86 2.523-1.29 3.871-1.29 1.807 0 3.327.63 4.56 1.864 1.234 1.262 1.836 2.84 1.836 4.79 0 1.864-.545 3.47-1.635 4.818-1.29 1.663-3.097 2.495-5.392 2.495-1.864 0-3.384-.516-4.56-1.549-1.176-1.06-1.864-2.437-2.007-4.187zM1393.957 511.161l5.449-7.744-5.048-7.141h3.155l2.295 3.499c.43.66.774 1.233 1.032 1.663.402-.602.803-1.147 1.147-1.634l2.495-3.528h3.012l-5.134 7.027 5.535 7.858h-3.097l-3.069-4.618-.803-1.262-3.9 5.88h-3.07zM1422.522 508.752v2.409h-13.566c0-.602.086-1.205.316-1.75.344-.917.889-1.835 1.635-2.724.774-.918 1.864-1.95 3.298-3.126 2.237-1.807 3.757-3.27 4.531-4.331.775-1.09 1.176-2.094 1.176-3.04 0-1.004-.344-1.836-1.06-2.524-.718-.688-1.664-1.033-2.812-1.033-1.204 0-2.18.373-2.896 1.09-.746.717-1.09 1.75-1.119 3.04l-2.581-.286c.172-1.922.832-3.385 2.008-4.417 1.147-1.004 2.695-1.52 4.646-1.52 1.979 0 3.527.545 4.675 1.635 1.147 1.09 1.72 2.466 1.72 4.072 0 .832-.143 1.635-.487 2.41-.344.802-.89 1.634-1.664 2.523-.803.86-2.093 2.065-3.9 3.614-1.52 1.262-2.495 2.122-2.925 2.581-.43.46-.775.918-1.062 1.377h10.067zM1425.25 505.77l2.639-.202c.2 1.29.631 2.237 1.348 2.897.717.66 1.577.975 2.581.975 1.234 0 2.266-.459 3.098-1.376.831-.918 1.262-2.123 1.262-3.643 0-1.434-.402-2.581-1.205-3.413-.832-.803-1.864-1.233-3.183-1.233-.803 0-1.55.172-2.209.545a4.564 4.564 0 00-1.52 1.434l-2.38-.287 1.979-10.554h10.21v2.409h-8.174l-1.119 5.506c1.234-.86 2.524-1.29 3.872-1.29 1.807 0 3.327.63 4.56 1.864 1.234 1.262 1.836 2.84 1.836 4.79 0 1.864-.545 3.47-1.635 4.818-1.29 1.663-3.097 2.495-5.392 2.495-1.864 0-3.384-.516-4.56-1.549-1.176-1.06-1.864-2.437-2.008-4.187zM1441.2 501.037c0-2.438.23-4.388.746-5.851.488-1.491 1.233-2.639 2.208-3.442 1.004-.803 2.238-1.204 3.729-1.204 1.09 0 2.065.23 2.897.66a5.75 5.75 0 012.065 1.921c.545.832.946 1.864 1.262 3.069.315 1.204.458 2.81.458 4.847 0 2.409-.229 4.36-.745 5.822-.488 1.491-1.234 2.639-2.209 3.442-.975.803-2.237 1.204-3.728 1.204-1.979 0-3.528-.717-4.675-2.122-1.348-1.721-2.008-4.503-2.008-8.346zm2.582 0c0 3.355.401 5.621 1.176 6.74.803 1.09 1.778 1.663 2.925 1.663 1.147 0 2.122-.573 2.925-1.692.775-1.119 1.176-3.356 1.176-6.711 0-3.385-.401-5.622-1.176-6.74-.803-1.119-1.778-1.664-2.954-1.664-1.147 0-2.093.488-2.782 1.463-.86 1.262-1.29 3.556-1.29 6.94z" fill="#231f20" fill-rule="nonzero"/></g></g><g><path d="M257.121 1538.245l4.327-.385c-.048.577-.048.962-.048 1.106 0 1.01.24 2.067.769 3.125.529 1.01 1.25 1.827 2.115 2.403.913.53 1.875.818 2.884.818 1.298 0 2.644-.481 3.99-1.346 1.395-.914 2.5-2.26 3.318-3.99.865-1.731 1.298-3.462 1.298-5.144 0-1.923-.577-3.462-1.731-4.663-1.106-1.154-2.596-1.731-4.47-1.731-1.25 0-2.405.288-3.51.913-1.106.577-2.115 1.49-3.077 2.692l-3.702-.288 5.192-17.595h16.778l-.817 3.894H267.36l-2.596 8.75c1.01-.722 1.97-1.25 3.028-1.587a9.916 9.916 0 013.125-.529c2.644 0 4.808.866 6.49 2.596 1.683 1.779 2.548 4.134 2.548 7.163 0 2.644-.577 5.096-1.73 7.307-1.154 2.212-2.74 3.942-4.808 5.144-2.02 1.202-4.182 1.779-6.538 1.779-1.971 0-3.702-.433-5.24-1.346-1.538-.865-2.644-2.115-3.413-3.654-.77-1.586-1.154-3.125-1.154-4.711 0-.144 0-.385.048-.721zM283.91 1536.803c0-2.885.432-5.865 1.297-8.846.865-3.028 1.827-5.432 2.884-7.21 1.058-1.828 2.164-3.222 3.318-4.231 1.153-1.01 2.259-1.779 3.365-2.26 1.105-.48 2.355-.72 3.701-.72 2.596 0 4.808 1.009 6.538 2.932 1.779 1.97 2.644 4.807 2.644 8.509 0 3.797-.577 7.547-1.826 11.249-1.443 4.423-3.414 7.74-6.01 9.951-1.97 1.683-4.182 2.5-6.73 2.5-2.596 0-4.76-1.01-6.538-3.029-1.779-2.019-2.644-4.951-2.644-8.845zm4.085 1.105c0 2.116.385 3.75 1.058 4.952.961 1.634 2.404 2.452 4.278 2.452 1.635 0 3.125-.77 4.471-2.212 1.923-2.115 3.413-5.192 4.375-9.23.961-4.038 1.442-7.355 1.442-9.903 0-2.5-.433-4.278-1.394-5.384-.961-1.106-2.211-1.635-3.75-1.635-1.105 0-2.163.289-3.173.866-.961.577-1.874 1.586-2.788 2.98-1.25 1.971-2.355 4.952-3.317 8.942-.769 3.365-1.202 6.105-1.202 8.172zM310.639 1536.803c0-2.885.433-5.865 1.298-8.846.865-3.028 1.827-5.432 2.884-7.21 1.058-1.828 2.164-3.222 3.317-4.231 1.154-1.01 2.26-1.779 3.366-2.26 1.105-.48 2.355-.72 3.701-.72 2.596 0 4.808 1.009 6.538 2.932 1.779 1.97 2.644 4.807 2.644 8.509 0 3.797-.577 7.547-1.827 11.249-1.442 4.423-3.413 7.74-6.009 9.951-1.97 1.683-4.182 2.5-6.73 2.5-2.596 0-4.76-1.01-6.538-3.029-1.779-2.019-2.644-4.951-2.644-8.845zm4.086 1.105c0 2.116.385 3.75 1.058 4.952.961 1.634 2.404 2.452 4.278 2.452 1.635 0 3.125-.77 4.471-2.212 1.923-2.115 3.413-5.192 4.375-9.23.961-4.038 1.442-7.355 1.442-9.903 0-2.5-.433-4.278-1.394-5.384-.962-1.106-2.211-1.635-3.75-1.635-1.105 0-2.163.289-3.173.866-.961.577-1.874 1.586-2.788 2.98-1.25 1.971-2.355 4.952-3.317 8.942-.77 3.365-1.202 6.105-1.202 8.172zM352.762 1539.014l4.23.433c-1.057 3.125-2.547 5.432-4.518 6.97-1.971 1.49-4.182 2.26-6.682 2.26-2.74 0-4.904-.914-6.586-2.644-1.683-1.73-2.548-4.183-2.548-7.355 0-2.693.529-5.385 1.634-8.029 1.058-2.596 2.596-4.615 4.615-6.009 2.02-1.346 4.327-2.019 6.923-2.019 2.644 0 4.76.721 6.346 2.26 1.538 1.49 2.355 3.509 2.355 6.009l-4.182.24c0-1.538-.481-2.788-1.394-3.702-.866-.865-2.068-1.346-3.558-1.346-1.682 0-3.173.577-4.423 1.635-1.25 1.106-2.21 2.74-2.932 4.903-.721 2.212-1.058 4.327-1.058 6.394 0 2.115.433 3.702 1.395 4.76.913 1.057 2.067 1.586 3.46 1.586 1.395 0 2.693-.529 3.943-1.539 1.298-1.057 2.26-2.644 2.98-4.807zM359.592 1548.1l5.192-24.95h4.23l-.865 4.134c1.586-1.779 3.029-2.98 4.279-3.653 1.201-.673 2.596-1.01 4.038-1.01 1.538 0 2.836.385 3.894 1.202 1.01.817 1.682 1.97 2.019 3.461 1.298-1.586 2.596-2.74 4.038-3.51 1.394-.768 2.836-1.153 4.423-1.153 2.067 0 3.605.48 4.663 1.442 1.057 1.01 1.586 2.404 1.586 4.183 0 .769-.192 2.019-.577 3.797l-3.365 16.057h-4.23l3.413-16.49c.336-1.345.48-2.307.48-2.884 0-.817-.288-1.442-.769-1.923-.528-.48-1.25-.72-2.21-.72-1.25 0-2.549.384-3.847 1.153-1.346.77-2.355 1.779-3.076 3.029-.722 1.25-1.395 3.173-1.923 5.769l-2.548 12.066h-4.23l3.509-16.826c.24-1.153.384-1.97.384-2.451 0-.818-.24-1.443-.769-1.971-.48-.481-1.154-.77-1.971-.77-1.202 0-2.5.385-3.798 1.154-1.346.77-2.403 1.875-3.22 3.221-.818 1.394-1.539 3.317-2.068 5.865l-2.452 11.778h-4.23z" fill-rule="nonzero"/><g><path d="M265.342 1600.833l5.432-26.008c-2.356 1.875-5.673 3.365-9.903 4.471l.817-3.846a39.354 39.354 0 006.25-3.317c2.019-1.346 3.605-2.548 4.615-3.557a11.243 11.243 0 001.778-2.308h2.452l-7.163 34.565h-4.278zM283.91 1589.536c0-2.885.432-5.865 1.297-8.846.865-3.029 1.827-5.432 2.884-7.21 1.058-1.828 2.164-3.222 3.318-4.231 1.153-1.01 2.259-1.78 3.365-2.26 1.105-.48 2.355-.72 3.701-.72 2.596 0 4.808 1.009 6.538 2.932 1.779 1.97 2.644 4.807 2.644 8.509 0 3.797-.577 7.547-1.826 11.249-1.443 4.423-3.414 7.74-6.01 9.951-1.97 1.683-4.182 2.5-6.73 2.5-2.596 0-4.76-1.01-6.538-3.029-1.779-2.019-2.644-4.951-2.644-8.845zm4.085 1.105c0 2.116.385 3.75 1.058 4.952.961 1.634 2.404 2.452 4.278 2.452 1.635 0 3.125-.77 4.471-2.212 1.923-2.115 3.413-5.192 4.375-9.23.961-4.038 1.442-7.355 1.442-9.903 0-2.5-.433-4.279-1.394-5.384-.961-1.106-2.211-1.635-3.75-1.635-1.105 0-2.163.289-3.173.866-.961.576-1.874 1.586-2.788 2.98-1.25 1.971-2.355 4.952-3.317 8.942-.769 3.365-1.202 6.105-1.202 8.172zM310.639 1589.536c0-2.885.433-5.865 1.298-8.846.865-3.029 1.827-5.432 2.884-7.21 1.058-1.828 2.164-3.222 3.317-4.231 1.154-1.01 2.26-1.78 3.366-2.26 1.105-.48 2.355-.72 3.701-.72 2.596 0 4.808 1.009 6.538 2.932 1.779 1.97 2.644 4.807 2.644 8.509 0 3.797-.577 7.547-1.827 11.249-1.442 4.423-3.413 7.74-6.009 9.951-1.97 1.683-4.182 2.5-6.73 2.5-2.596 0-4.76-1.01-6.538-3.029-1.779-2.019-2.644-4.951-2.644-8.845zm4.086 1.105c0 2.116.385 3.75 1.058 4.952.961 1.634 2.404 2.452 4.278 2.452 1.635 0 3.125-.77 4.471-2.212 1.923-2.115 3.413-5.192 4.375-9.23.961-4.038 1.442-7.355 1.442-9.903 0-2.5-.433-4.279-1.394-5.384-.962-1.106-2.211-1.635-3.75-1.635-1.105 0-2.163.289-3.173.866-.961.576-1.874 1.586-2.788 2.98-1.25 1.971-2.355 4.952-3.317 8.942-.77 3.365-1.202 6.105-1.202 8.172zM352.762 1591.747l4.23.433c-1.057 3.124-2.547 5.432-4.518 6.97-1.971 1.49-4.182 2.26-6.682 2.26-2.74 0-4.904-.914-6.586-2.644-1.683-1.73-2.548-4.183-2.548-7.356 0-2.692.529-5.384 1.634-8.028 1.058-2.596 2.596-4.615 4.615-6.009 2.02-1.346 4.327-2.02 6.923-2.02 2.644 0 4.76.722 6.346 2.26 1.538 1.49 2.355 3.51 2.355 6.01l-4.182.24c0-1.538-.481-2.788-1.394-3.702-.866-.865-2.068-1.346-3.558-1.346-1.682 0-3.173.577-4.423 1.635-1.25 1.105-2.21 2.74-2.932 4.903-.721 2.212-1.058 4.327-1.058 6.394 0 2.115.433 3.702 1.395 4.76.913 1.057 2.067 1.586 3.46 1.586 1.395 0 2.693-.53 3.943-1.539 1.298-1.057 2.26-2.644 2.98-4.807zM359.592 1600.833l5.192-24.95h4.23l-.865 4.134c1.586-1.779 3.029-2.98 4.279-3.654 1.201-.673 2.596-1.01 4.038-1.01 1.538 0 2.836.386 3.894 1.203 1.01.817 1.682 1.97 2.019 3.461 1.298-1.586 2.596-2.74 4.038-3.51 1.394-.768 2.836-1.153 4.423-1.153 2.067 0 3.605.48 4.663 1.442 1.057 1.01 1.586 2.404 1.586 4.183 0 .769-.192 2.019-.577 3.797l-3.365 16.057h-4.23l3.413-16.49c.336-1.345.48-2.307.48-2.884 0-.817-.288-1.442-.769-1.923-.528-.48-1.25-.72-2.21-.72-1.25 0-2.549.384-3.847 1.153-1.346.77-2.355 1.779-3.076 3.029-.722 1.25-1.395 3.172-1.923 5.768l-2.548 12.067h-4.23l3.509-16.826c.24-1.154.384-1.97.384-2.452 0-.817-.24-1.442-.769-1.97-.48-.481-1.154-.77-1.971-.77-1.202 0-2.5.385-3.798 1.154-1.346.77-2.403 1.875-3.22 3.22-.818 1.395-1.539 3.318-2.068 5.866l-2.452 11.778h-4.23z" fill-rule="nonzero"/></g><g><path d="M216.95 1507.476l22.252 16.822h-10.205v24.242h-24.09v-24.242h-10.208l22.251-16.822z" fill="#58595b" fill-rule="nonzero"/></g><g><path d="M237.48 1587.009l-16.822 22.253v-10.207h-24.24v-24.091h24.24v-10.207l16.822 22.252z" fill="#58595b" fill-rule="nonzero"/></g><g><path d="M226.561 1460.132v13.088h-80v-13.088z"/><path d="M441.78 164.398H180.016v785.296H441.78V164.398zm-258.766 3v779.296h255.768V167.398H183.014z" fill="#231f20"/><path d="M180.012 164.393H193.1v1308.824h-13.088z"/><path d="M272.06 212.678l.372 2.237c-.717.144-1.348.23-1.921.23-.918 0-1.635-.144-2.123-.43a2.398 2.398 0 01-1.06-1.148c-.202-.487-.316-1.462-.316-2.982v-8.547h-1.836v-1.98h1.836v-3.67l2.495-1.52v5.19h2.552v1.98h-2.552v8.69c0 .717.057 1.176.143 1.377a.9.9 0 00.43.487c.201.144.488.201.861.201.287 0 .66-.029 1.118-.115zM284.704 210.154l2.61.316c-.43 1.52-1.176 2.696-2.294 3.556-1.119.832-2.524 1.262-4.245 1.262-2.18 0-3.9-.688-5.191-2.007-1.262-1.348-1.893-3.241-1.893-5.65 0-2.496.631-4.446 1.922-5.823 1.29-1.376 2.954-2.065 5.019-2.065 1.979 0 3.613.66 4.875 2.037 1.262 1.348 1.893 3.24 1.893 5.707 0 .143-.028.373-.028.66h-11.1c.115 1.635.574 2.896 1.406 3.757.831.86 1.864 1.29 3.097 1.29.918 0 1.721-.229 2.38-.717.632-.487 1.177-1.261 1.55-2.323zm-8.288-4.072h8.317c-.115-1.262-.43-2.18-.946-2.811-.803-.975-1.865-1.463-3.127-1.463-1.175 0-2.15.402-2.925 1.176-.803.775-1.233 1.807-1.32 3.098zM289.469 210.499l2.495-.373c.144.975.516 1.75 1.147 2.294.66.516 1.55.774 2.696.774 1.148 0 2.008-.229 2.582-.688.544-.487.831-1.032.831-1.663 0-.574-.258-1.033-.745-1.348-.345-.23-1.205-.517-2.582-.86-1.835-.46-3.126-.861-3.843-1.205-.717-.344-1.233-.803-1.606-1.406a3.726 3.726 0 01-.574-2.007c0-.66.173-1.262.46-1.836a4.166 4.166 0 011.233-1.405c.401-.287.946-.545 1.606-.746.688-.2 1.405-.287 2.18-.287 1.175 0 2.208.172 3.097.488.86.344 1.52.803 1.95 1.377.402.573.689 1.348.86 2.294l-2.466.344c-.115-.774-.43-1.376-.975-1.807-.545-.43-1.29-.63-2.266-.63-1.176 0-1.979.2-2.495.573-.488.373-.746.832-.746 1.348 0 .315.115.63.316.889.2.258.545.488.975.66.258.086.975.315 2.208.66 1.807.458 3.04.86 3.757 1.147.689.315 1.234.745 1.635 1.319.402.602.603 1.32.603 2.18 0 .831-.23 1.634-.717 2.351-.488.746-1.205 1.32-2.123 1.721-.918.43-1.979.631-3.155.631-1.921 0-3.384-.401-4.416-1.204-1.004-.803-1.635-2.008-1.922-3.585zM303.809 210.499l2.495-.373c.143.975.516 1.75 1.147 2.294.66.516 1.549.774 2.696.774 1.147 0 2.008-.229 2.581-.688.545-.487.832-1.032.832-1.663 0-.574-.258-1.033-.745-1.348-.345-.23-1.205-.517-2.582-.86-1.835-.46-3.126-.861-3.843-1.205-.717-.344-1.233-.803-1.606-1.406a3.726 3.726 0 01-.574-2.007c0-.66.173-1.262.46-1.836a4.166 4.166 0 011.233-1.405c.401-.287.946-.545 1.606-.746.688-.2 1.405-.287 2.18-.287 1.175 0 2.208.172 3.097.488.86.344 1.52.803 1.95 1.377.402.573.688 1.348.86 2.294l-2.466.344c-.115-.774-.43-1.376-.975-1.807-.545-.43-1.29-.63-2.266-.63-1.176 0-1.979.2-2.495.573-.488.373-.746.832-.746 1.348 0 .315.115.63.316.889.2.258.545.488.975.66.258.086.975.315 2.208.66 1.807.458 3.04.86 3.757 1.147.689.315 1.234.745 1.635 1.319.402.602.602 1.32.602 2.18 0 .831-.229 1.634-.717 2.351-.487.746-1.204 1.32-2.122 1.721-.918.43-1.979.631-3.155.631-1.921 0-3.384-.401-4.417-1.204-1.003-.803-1.634-2.008-1.921-3.585zM328.904 214.944v-2.18c-1.176 1.664-2.725 2.524-4.732 2.524-.86 0-1.692-.172-2.438-.516-.774-.344-1.348-.746-1.72-1.262-.345-.516-.603-1.147-.775-1.864-.086-.488-.144-1.29-.144-2.352v-9.235h2.524v8.26c0 1.32.058 2.208.144 2.667.172.66.487 1.176 1.003 1.549.517.373 1.148.573 1.922.573.746 0 1.463-.2 2.122-.573.66-.402 1.119-.918 1.406-1.578.286-.688.401-1.634.401-2.925v-7.973h2.524v14.885h-2.237zM340.61 212.678l.372 2.237c-.717.144-1.348.23-1.922.23-.917 0-1.634-.144-2.122-.43a2.398 2.398 0 01-1.061-1.148c-.2-.487-.316-1.462-.316-2.982v-8.547h-1.835v-1.98h1.835v-3.67l2.496-1.52v5.19h2.552v1.98h-2.552v8.69c0 .717.057 1.176.143 1.377a.9.9 0 00.43.487c.201.144.488.201.86.201.287 0 .66-.029 1.12-.115zM342.126 207.516c0-2.754.774-4.79 2.295-6.138 1.29-1.09 2.839-1.635 4.674-1.635 2.065 0 3.729.66 5.02 2.008 1.29 1.348 1.95 3.184 1.95 5.535 0 1.922-.287 3.442-.86 4.532a6.115 6.115 0 01-2.496 2.552 7.436 7.436 0 01-3.614.918c-2.065 0-3.757-.688-5.047-2.007-1.262-1.348-1.922-3.27-1.922-5.765zm2.61 0c0 1.893.402 3.327 1.233 4.273.832.947 1.865 1.405 3.126 1.405 1.262 0 2.295-.458 3.127-1.405.831-.975 1.262-2.409 1.262-4.36 0-1.835-.43-3.24-1.262-4.187-.832-.946-1.865-1.434-3.127-1.434-1.261 0-2.294.488-3.126 1.434-.831.947-1.233 2.352-1.233 4.274zM266.578 249.361h-2.524V233.3c-.602.574-1.405 1.147-2.41 1.72-.974.603-1.863 1.033-2.638 1.32v-2.438c1.405-.66 2.639-1.462 3.7-2.409 1.061-.946 1.807-1.864 2.237-2.753h1.635v20.621zM273.035 239.237c0-2.438.229-4.388.745-5.851.488-1.491 1.233-2.639 2.209-3.442 1.003-.803 2.237-1.204 3.728-1.204 1.09 0 2.065.23 2.897.66a5.75 5.75 0 012.065 1.921c.545.832.946 1.864 1.262 3.069.315 1.204.459 2.81.459 4.847 0 2.409-.23 4.36-.746 5.822-.488 1.491-1.233 2.639-2.209 3.442-.975.803-2.237 1.204-3.728 1.204-1.979 0-3.528-.717-4.675-2.122-1.348-1.721-2.007-4.503-2.007-8.346zm2.58 0c0 3.355.402 5.621 1.177 6.74.803 1.09 1.778 1.663 2.925 1.663 1.147 0 2.122-.573 2.925-1.692.775-1.119 1.176-3.356 1.176-6.711 0-3.385-.401-5.622-1.176-6.74-.803-1.119-1.778-1.664-2.954-1.664-1.147 0-2.093.488-2.782 1.463-.86 1.262-1.29 3.556-1.29 6.94zM288.984 239.237c0-2.438.23-4.388.746-5.851.488-1.491 1.233-2.639 2.209-3.442 1.003-.803 2.237-1.204 3.728-1.204 1.09 0 2.065.23 2.897.66a5.75 5.75 0 012.065 1.921c.545.832.946 1.864 1.262 3.069.315 1.204.458 2.81.458 4.847 0 2.409-.229 4.36-.745 5.822-.488 1.491-1.233 2.639-2.209 3.442-.975.803-2.237 1.204-3.728 1.204-1.979 0-3.528-.717-4.675-2.122-1.348-1.721-2.008-4.503-2.008-8.346zm2.582 0c0 3.355.401 5.621 1.176 6.74.803 1.09 1.778 1.663 2.925 1.663 1.147 0 2.122-.573 2.925-1.692.775-1.119 1.176-3.356 1.176-6.711 0-3.385-.401-5.622-1.176-6.74-.803-1.119-1.778-1.664-2.954-1.664-1.147 0-2.093.488-2.782 1.463-.86 1.262-1.29 3.556-1.29 6.94zM303.93 249.361l5.45-7.744-5.048-7.141h3.155l2.294 3.499c.43.66.775 1.233 1.033 1.663.401-.602.803-1.147 1.147-1.634l2.495-3.528h3.012l-5.134 7.027 5.535 7.858h-3.097l-3.07-4.618-.802-1.262-3.9 5.88h-3.07zM319.274 243.94l2.524-.344c.287 1.434.775 2.467 1.463 3.098.717.63 1.549.946 2.552.946 1.176 0 2.18-.401 3.012-1.233.803-.832 1.204-1.836 1.204-3.04 0-1.176-.372-2.123-1.118-2.868-.746-.775-1.72-1.147-2.897-1.147-.459 0-1.061.114-1.778.286l.287-2.208c.172.029.315.029.401.029 1.09 0 2.037-.287 2.897-.832.86-.574 1.29-1.434 1.29-2.61 0-.918-.315-1.692-.917-2.295-.631-.602-1.434-.889-2.438-.889-.975 0-1.807.287-2.438.918-.66.602-1.09 1.52-1.262 2.754l-2.524-.43c.316-1.693 1.004-3.012 2.094-3.93 1.09-.946 2.438-1.405 4.073-1.405 1.118 0 2.15.258 3.097.717.947.487 1.664 1.147 2.151 1.979.516.831.775 1.72.775 2.638 0 .89-.259 1.692-.717 2.438-.488.717-1.176 1.29-2.123 1.721 1.205.287 2.151.86 2.84 1.75.66.889 1.003 1.978 1.003 3.326 0 1.779-.66 3.299-1.979 4.56-1.29 1.234-2.954 1.865-4.933 1.865-1.806 0-3.298-.545-4.502-1.606-1.176-1.09-1.865-2.467-2.037-4.188zM335.224 239.237c0-2.438.23-4.388.746-5.851.488-1.491 1.233-2.639 2.208-3.442 1.004-.803 2.237-1.204 3.729-1.204 1.09 0 2.065.23 2.897.66a5.75 5.75 0 012.064 1.921c.545.832.947 1.864 1.262 3.069.316 1.204.46 2.81.46 4.847 0 2.409-.23 4.36-.746 5.822-.488 1.491-1.234 2.639-2.209 3.442-.975.803-2.237 1.204-3.728 1.204-1.98 0-3.528-.717-4.675-2.122-1.348-1.721-2.008-4.503-2.008-8.346zm2.581 0c0 3.355.402 5.621 1.176 6.74.803 1.09 1.779 1.663 2.926 1.663 1.147 0 2.122-.573 2.925-1.692.775-1.119 1.176-3.356 1.176-6.711 0-3.385-.401-5.622-1.176-6.74-.803-1.119-1.778-1.664-2.954-1.664-1.147 0-2.094.488-2.782 1.463-.86 1.262-1.29 3.556-1.29 6.94zM351.174 239.237c0-2.438.23-4.388.746-5.851.487-1.491 1.233-2.639 2.208-3.442 1.004-.803 2.237-1.204 3.729-1.204 1.09 0 2.065.23 2.896.66a5.75 5.75 0 012.065 1.921c.545.832.947 1.864 1.262 3.069.316 1.204.46 2.81.46 4.847 0 2.409-.23 4.36-.746 5.822-.488 1.491-1.234 2.639-2.209 3.442-.975.803-2.237 1.204-3.728 1.204-1.98 0-3.528-.717-4.675-2.122-1.348-1.721-2.008-4.503-2.008-8.346zm2.581 0c0 3.355.402 5.621 1.176 6.74.803 1.09 1.779 1.663 2.926 1.663 1.147 0 2.122-.573 2.925-1.692.774-1.119 1.176-3.356 1.176-6.711 0-3.385-.402-5.622-1.176-6.74-.803-1.119-1.778-1.664-2.954-1.664-1.147 0-2.094.488-2.782 1.463-.86 1.262-1.29 3.556-1.29 6.94z" fill="#231f20" fill-rule="nonzero"/></g></g><g><path d="M623.13 1538.245l4.326-.385c-.048.577-.048.962-.048 1.106 0 1.01.24 2.067.77 3.125.528 1.01 1.25 1.827 2.115 2.403.913.53 1.874.818 2.884.818 1.298 0 2.644-.481 3.99-1.346 1.394-.914 2.5-2.26 3.317-3.99.865-1.731 1.298-3.462 1.298-5.144 0-1.923-.577-3.462-1.73-4.663-1.106-1.154-2.596-1.731-4.471-1.731-1.25 0-2.404.288-3.51.913-1.105.577-2.115 1.49-3.076 2.692l-3.702-.288 5.192-17.595h16.777l-.817 3.894H633.37l-2.596 8.75c1.01-.722 1.971-1.25 3.029-1.587a9.916 9.916 0 013.125-.529c2.644 0 4.807.866 6.49 2.596 1.682 1.779 2.548 4.134 2.548 7.163 0 2.644-.577 5.096-1.731 7.307-1.154 2.212-2.74 3.942-4.807 5.144-2.02 1.202-4.183 1.779-6.538 1.779-1.971 0-3.702-.433-5.24-1.346-1.539-.865-2.644-2.115-3.414-3.654-.769-1.586-1.153-3.125-1.153-4.711 0-.144 0-.385.048-.721zM649.918 1536.803c0-2.885.432-5.865 1.298-8.846.865-3.028 1.826-5.432 2.884-7.21 1.058-1.828 2.163-3.222 3.317-4.231 1.154-1.01 2.26-1.779 3.365-2.26 1.106-.48 2.356-.72 3.702-.72 2.596 0 4.807 1.009 6.538 2.932 1.779 1.97 2.644 4.807 2.644 8.509 0 3.797-.577 7.547-1.827 11.249-1.442 4.423-3.413 7.74-6.01 9.951-1.97 1.683-4.181 2.5-6.73 2.5-2.595 0-4.759-1.01-6.537-3.029-1.779-2.019-2.644-4.951-2.644-8.845zm4.086 1.105c0 2.116.384 3.75 1.057 4.952.962 1.634 2.404 2.452 4.279 2.452 1.635 0 3.125-.77 4.47-2.212 1.924-2.115 3.414-5.192 4.376-9.23.961-4.038 1.442-7.355 1.442-9.903 0-2.5-.433-4.278-1.394-5.384-.962-1.106-2.212-1.635-3.75-1.635-1.106 0-2.163.289-3.173.866-.961.577-1.875 1.586-2.788 2.98-1.25 1.971-2.356 4.952-3.317 8.942-.77 3.365-1.202 6.105-1.202 8.172zM676.648 1536.803c0-2.885.432-5.865 1.298-8.846.865-3.028 1.826-5.432 2.884-7.21 1.058-1.828 2.163-3.222 3.317-4.231 1.154-1.01 2.26-1.779 3.365-2.26 1.106-.48 2.356-.72 3.702-.72 2.596 0 4.807 1.009 6.538 2.932 1.778 1.97 2.644 4.807 2.644 8.509 0 3.797-.577 7.547-1.827 11.249-1.442 4.423-3.413 7.74-6.01 9.951-1.97 1.683-4.182 2.5-6.73 2.5-2.595 0-4.759-1.01-6.537-3.029-1.78-2.019-2.644-4.951-2.644-8.845zm4.086 1.105c0 2.116.384 3.75 1.057 4.952.962 1.634 2.404 2.452 4.279 2.452 1.634 0 3.125-.77 4.47-2.212 1.924-2.115 3.414-5.192 4.375-9.23.962-4.038 1.443-7.355 1.443-9.903 0-2.5-.433-4.278-1.395-5.384-.961-1.106-2.21-1.635-3.75-1.635-1.105 0-2.163.289-3.172.866-.962.577-1.875 1.586-2.788 2.98-1.25 1.971-2.356 4.952-3.317 8.942-.77 3.365-1.202 6.105-1.202 8.172zM718.77 1539.014l4.231.433c-1.057 3.125-2.548 5.432-4.519 6.97-1.97 1.49-4.182 2.26-6.682 2.26-2.74 0-4.903-.914-6.586-2.644-1.682-1.73-2.548-4.183-2.548-7.355 0-2.693.53-5.385 1.635-8.029 1.057-2.596 2.596-4.615 4.615-6.009 2.019-1.346 4.326-2.019 6.922-2.019 2.644 0 4.76.721 6.346 2.26 1.538 1.49 2.356 3.509 2.356 6.009l-4.183.24c0-1.538-.48-2.788-1.394-3.702-.865-.865-2.067-1.346-3.557-1.346-1.683 0-3.173.577-4.423 1.635-1.25 1.106-2.211 2.74-2.932 4.903-.722 2.212-1.058 4.327-1.058 6.394 0 2.115.433 3.702 1.394 4.76.913 1.057 2.067 1.586 3.461 1.586 1.394 0 2.692-.529 3.942-1.539 1.298-1.057 2.26-2.644 2.98-4.807zM725.6 1548.1l5.192-24.95h4.23l-.864 4.134c1.586-1.779 3.028-2.98 4.278-3.653 1.202-.673 2.596-1.01 4.038-1.01 1.539 0 2.837.385 3.894 1.202 1.01.817 1.683 1.97 2.02 3.461 1.297-1.586 2.595-2.74 4.037-3.51 1.395-.768 2.837-1.153 4.423-1.153 2.067 0 3.606.48 4.663 1.442 1.058 1.01 1.587 2.404 1.587 4.183 0 .769-.193 2.019-.577 3.797l-3.365 16.057h-4.23l3.412-16.49c.337-1.345.481-2.307.481-2.884 0-.817-.288-1.442-.769-1.923-.529-.48-1.25-.72-2.211-.72-1.25 0-2.548.384-3.846 1.153-1.346.77-2.356 1.779-3.077 3.029-.721 1.25-1.394 3.173-1.923 5.769l-2.548 12.066h-4.23l3.51-16.826c.24-1.153.384-1.97.384-2.451 0-.818-.24-1.443-.77-1.971-.48-.481-1.153-.77-1.97-.77-1.202 0-2.5.385-3.798 1.154-1.346.77-2.404 1.875-3.221 3.221-.817 1.394-1.538 3.317-2.067 5.865l-2.452 11.778h-4.23z" fill-rule="nonzero"/><g><path d="M626.735 1600.833c.385-2.308 1.154-5.096 2.404-8.365 1.442-3.942 3.365-7.836 5.72-11.682 2.356-3.894 5-7.21 7.885-9.999H625.58l.818-3.894h21.97l-.77 3.894c-3.75 3.269-7.019 7.5-9.807 12.643-3.22 5.961-5.432 11.778-6.634 17.403h-4.423zM649.87 1590.978l4.326-.385c-.048.577-.048.962-.048 1.106 0 1.01.24 2.067.77 3.125.528 1.01 1.25 1.827 2.114 2.403.914.53 1.875.818 2.885.818 1.298 0 2.644-.481 3.99-1.346 1.394-.914 2.5-2.26 3.317-3.99.865-1.731 1.298-3.462 1.298-5.144 0-1.923-.577-3.462-1.73-4.664-1.106-1.153-2.597-1.73-4.471-1.73-1.25 0-2.404.288-3.51.913-1.105.577-2.115 1.49-3.076 2.692l-3.702-.288 5.192-17.595h16.777l-.817 3.894H660.11l-2.596 8.75c1.01-.722 1.971-1.25 3.029-1.587a9.916 9.916 0 013.125-.529c2.644 0 4.807.865 6.49 2.596 1.682 1.779 2.547 4.134 2.547 7.163 0 2.644-.576 5.096-1.73 7.307-1.154 2.212-2.74 3.942-4.808 5.144-2.019 1.202-4.182 1.779-6.538 1.779-1.97 0-3.701-.433-5.24-1.346-1.538-.866-2.644-2.116-3.413-3.654-.769-1.586-1.154-3.125-1.154-4.711 0-.144 0-.385.049-.721zM692.031 1591.747l4.23.433c-1.057 3.124-2.547 5.432-4.518 6.97-1.971 1.49-4.183 2.26-6.683 2.26-2.74 0-4.903-.914-6.586-2.644-1.682-1.73-2.548-4.183-2.548-7.356 0-2.692.53-5.384 1.635-8.028 1.058-2.596 2.596-4.615 4.615-6.009 2.02-1.346 4.327-2.02 6.923-2.02 2.644 0 4.759.722 6.345 2.26 1.539 1.49 2.356 3.51 2.356 6.01l-4.183.24c0-1.538-.48-2.788-1.394-3.702-.865-.865-2.067-1.346-3.557-1.346-1.683 0-3.173.577-4.423 1.635-1.25 1.105-2.211 2.74-2.932 4.903-.721 2.212-1.058 4.327-1.058 6.394 0 2.115.433 3.702 1.394 4.76.914 1.057 2.067 1.586 3.461 1.586 1.395 0 2.693-.53 3.942-1.539 1.298-1.057 2.26-2.644 2.981-4.807zM698.86 1600.833l5.193-24.95h4.23l-.865 4.134c1.586-1.779 3.028-2.98 4.278-3.654 1.202-.673 2.596-1.01 4.038-1.01 1.539 0 2.837.386 3.894 1.203 1.01.817 1.683 1.97 2.02 3.461 1.297-1.586 2.595-2.74 4.038-3.51 1.394-.768 2.836-1.153 4.422-1.153 2.067 0 3.606.48 4.663 1.442 1.058 1.01 1.587 2.404 1.587 4.183 0 .769-.192 2.019-.577 3.797l-3.365 16.057h-4.23l3.413-16.49c.336-1.345.48-2.307.48-2.884 0-.817-.288-1.442-.769-1.923-.529-.48-1.25-.72-2.211-.72-1.25 0-2.548.384-3.846 1.153-1.346.77-2.356 1.779-3.077 3.029-.72 1.25-1.394 3.172-1.923 5.768l-2.548 12.067h-4.23l3.51-16.826c.24-1.154.384-1.97.384-2.452 0-.817-.24-1.442-.77-1.97-.48-.481-1.153-.77-1.97-.77-1.202 0-2.5.385-3.798 1.154-1.346.77-2.404 1.875-3.221 3.22-.817 1.395-1.538 3.318-2.067 5.866l-2.452 11.778h-4.23z" fill-rule="nonzero"/></g><g><path d="M582.959 1507.476l22.252 16.822h-10.205v24.242h-24.091v-24.242h-10.207l22.25-16.822z" fill="#58595b" fill-rule="nonzero"/></g><g><path d="M603.489 1587.009l-16.822 22.253v-10.207h-24.241v-24.091h24.24v-10.207l16.823 22.252z" fill="#58595b" fill-rule="nonzero"/></g><g><path d="M631.82 1460.132v13.088h-80v-13.088z"/><path d="M768.518 164.398H585.284v785.296h183.234V164.398zm-180.233 3v779.296h177.232V167.398H588.285z" fill="#231f20"/><path d="M585.28 164.393h13.089v1308.824H585.28z"/><path d="M638.058 212.678l.373 2.237c-.717.144-1.348.23-1.922.23-.917 0-1.634-.144-2.122-.43a2.398 2.398 0 01-1.061-1.148c-.201-.487-.316-1.462-.316-2.982v-8.547h-1.835v-1.98h1.835v-3.67l2.495-1.52v5.19h2.553v1.98h-2.553v8.69c0 .717.058 1.176.144 1.377a.9.9 0 00.43.487c.2.144.488.201.86.201.287 0 .66-.029 1.119-.115zM650.703 210.154l2.61.316c-.43 1.52-1.176 2.696-2.295 3.556-1.118.832-2.523 1.262-4.244 1.262-2.18 0-3.9-.688-5.191-2.007-1.262-1.348-1.893-3.241-1.893-5.65 0-2.496.63-4.446 1.921-5.823 1.29-1.376 2.954-2.065 5.02-2.065 1.978 0 3.613.66 4.875 2.037 1.262 1.348 1.893 3.24 1.893 5.707 0 .143-.029.373-.029.66h-11.1c.116 1.635.574 2.896 1.406 3.757.832.86 1.864 1.29 3.098 1.29.917 0 1.72-.229 2.38-.717.631-.487 1.176-1.261 1.549-2.323zm-8.289-4.072h8.318c-.115-1.262-.43-2.18-.947-2.811-.803-.975-1.864-1.463-3.126-1.463-1.176 0-2.151.402-2.925 1.176-.803.775-1.234 1.807-1.32 3.098zM655.468 210.499l2.495-.373c.143.975.516 1.75 1.147 2.294.66.516 1.549.774 2.696.774 1.147 0 2.007-.229 2.581-.688.545-.487.832-1.032.832-1.663 0-.574-.258-1.033-.746-1.348-.344-.23-1.204-.517-2.581-.86-1.836-.46-3.126-.861-3.843-1.205-.717-.344-1.234-.803-1.606-1.406a3.726 3.726 0 01-.574-2.007c0-.66.172-1.262.459-1.836a4.166 4.166 0 011.233-1.405c.402-.287.947-.545 1.606-.746.689-.2 1.406-.287 2.18-.287 1.176 0 2.208.172 3.097.488.86.344 1.52.803 1.95 1.377.402.573.69 1.348.861 2.294l-2.466.344c-.115-.774-.43-1.376-.976-1.807-.544-.43-1.29-.63-2.265-.63-1.176 0-1.98.2-2.495.573-.488.373-.746.832-.746 1.348 0 .315.115.63.315.889.201.258.545.488.975.66.259.086.976.315 2.209.66 1.807.458 3.04.86 3.757 1.147.688.315 1.233.745 1.635 1.319.401.602.602 1.32.602 2.18 0 .831-.23 1.634-.717 2.351-.488.746-1.205 1.32-2.122 1.721-.918.43-1.98.631-3.155.631-1.922 0-3.384-.401-4.417-1.204-1.004-.803-1.635-2.008-1.921-3.585zM669.807 210.499l2.496-.373c.143.975.516 1.75 1.147 2.294.66.516 1.549.774 2.696.774 1.147 0 2.007-.229 2.581-.688.545-.487.832-1.032.832-1.663 0-.574-.258-1.033-.746-1.348-.344-.23-1.204-.517-2.581-.86-1.836-.46-3.126-.861-3.843-1.205-.717-.344-1.234-.803-1.606-1.406a3.726 3.726 0 01-.574-2.007c0-.66.172-1.262.459-1.836a4.166 4.166 0 011.233-1.405c.402-.287.947-.545 1.606-.746.689-.2 1.406-.287 2.18-.287 1.176 0 2.208.172 3.097.488.86.344 1.52.803 1.95 1.377.402.573.689 1.348.861 2.294l-2.466.344c-.115-.774-.43-1.376-.976-1.807-.544-.43-1.29-.63-2.265-.63-1.176 0-1.98.2-2.496.573-.487.373-.745.832-.745 1.348 0 .315.115.63.315.889.201.258.545.488.975.66.259.086.976.315 2.209.66 1.807.458 3.04.86 3.757 1.147.688.315 1.233.745 1.635 1.319.401.602.602 1.32.602 2.18 0 .831-.23 1.634-.717 2.351-.488.746-1.205 1.32-2.122 1.721-.918.43-1.98.631-3.155.631-1.922 0-3.384-.401-4.417-1.204-1.004-.803-1.635-2.008-1.922-3.585zM694.903 214.944v-2.18c-1.176 1.664-2.725 2.524-4.733 2.524-.86 0-1.692-.172-2.438-.516-.774-.344-1.348-.746-1.72-1.262-.345-.516-.603-1.147-.775-1.864-.086-.488-.143-1.29-.143-2.352v-9.235h2.524v8.26c0 1.32.057 2.208.143 2.667.172.66.488 1.176 1.004 1.549s1.147.573 1.922.573c.745 0 1.462-.2 2.122-.573.66-.402 1.118-.918 1.405-1.578.287-.688.402-1.634.402-2.925v-7.973h2.524v14.885h-2.237zM706.608 212.678l.373 2.237c-.717.144-1.348.23-1.922.23-.918 0-1.635-.144-2.122-.43a2.398 2.398 0 01-1.061-1.148c-.201-.487-.316-1.462-.316-2.982v-8.547h-1.836v-1.98h1.836v-3.67l2.495-1.52v5.19h2.553v1.98h-2.553v8.69c0 .717.058 1.176.144 1.377a.9.9 0 00.43.487c.2.144.487.201.86.201.287 0 .66-.029 1.119-.115zM708.125 207.516c0-2.754.774-4.79 2.294-6.138 1.29-1.09 2.84-1.635 4.675-1.635 2.065 0 3.728.66 5.02 2.008 1.29 1.348 1.95 3.184 1.95 5.535 0 1.922-.287 3.442-.861 4.532a6.115 6.115 0 01-2.495 2.552 7.436 7.436 0 01-3.614.918c-2.065 0-3.757-.688-5.048-2.007-1.262-1.348-1.921-3.27-1.921-5.765zm2.61 0c0 1.893.401 3.327 1.233 4.273.832.947 1.864 1.405 3.126 1.405 1.262 0 2.294-.458 3.126-1.405.832-.975 1.262-2.409 1.262-4.36 0-1.835-.43-3.24-1.262-4.187-.832-.946-1.864-1.434-3.126-1.434-1.262 0-2.294.488-3.126 1.434-.832.947-1.233 2.352-1.233 4.274zM631.196 231.522v-2.438h13.308v1.979c-1.32 1.377-2.61 3.24-3.9 5.535a34.689 34.689 0 00-2.983 7.113c-.488 1.72-.803 3.614-.947 5.65h-2.61c.03-1.606.373-3.556.976-5.85a29.754 29.754 0 012.61-6.626c1.118-2.122 2.323-3.9 3.613-5.363h-10.067zM647.003 243.97l2.639-.202c.2 1.29.63 2.237 1.348 2.897.717.66 1.577.975 2.58.975 1.234 0 2.267-.459 3.098-1.376.832-.918 1.262-2.123 1.262-3.643 0-1.434-.401-2.581-1.204-3.413-.832-.803-1.865-1.233-3.184-1.233-.803 0-1.549.172-2.208.545a4.564 4.564 0 00-1.52 1.434l-2.38-.287 1.978-10.554h10.21v2.409h-8.174l-1.118 5.506c1.233-.86 2.524-1.29 3.872-1.29 1.807 0 3.327.63 4.56 1.864 1.233 1.262 1.836 2.84 1.836 4.79 0 1.864-.545 3.47-1.635 4.818-1.29 1.663-3.098 2.495-5.392 2.495-1.864 0-3.384-.516-4.56-1.549-1.176-1.06-1.865-2.437-2.008-4.187zM661.95 249.361l5.448-7.744-5.047-7.141h3.155l2.294 3.499c.43.66.774 1.233 1.032 1.663.402-.602.803-1.147 1.148-1.634l2.495-3.528h3.011l-5.134 7.027 5.536 7.858h-3.098l-3.068-4.618-.804-1.262-3.9 5.88h-3.069zM677.293 243.94l2.524-.344c.287 1.434.774 2.467 1.462 3.098.717.63 1.55.946 2.553.946 1.176 0 2.18-.401 3.011-1.233.804-.832 1.205-1.836 1.205-3.04 0-1.176-.373-2.123-1.118-2.868-.746-.775-1.721-1.147-2.897-1.147-.46 0-1.061.114-1.778.286l.286-2.208c.172.029.316.029.402.029 1.09 0 2.036-.287 2.897-.832.86-.574 1.29-1.434 1.29-2.61 0-.918-.315-1.692-.917-2.295-.631-.602-1.435-.889-2.438-.889-.975 0-1.807.287-2.438.918-.66.602-1.09 1.52-1.262 2.754l-2.524-.43c.316-1.693 1.004-3.012 2.094-3.93 1.09-.946 2.438-1.405 4.072-1.405 1.119 0 2.151.258 3.098.717.946.487 1.663 1.147 2.15 1.979.517.831.775 1.72.775 2.638 0 .89-.258 1.692-.717 2.438-.487.717-1.176 1.29-2.122 1.721 1.204.287 2.15.86 2.84 1.75.659.889 1.003 1.978 1.003 3.326 0 1.779-.66 3.299-1.979 4.56-1.29 1.234-2.954 1.865-4.933 1.865-1.807 0-3.298-.545-4.503-1.606-1.176-1.09-1.864-2.467-2.036-4.188zM693.243 239.237c0-2.438.23-4.388.746-5.851.487-1.491 1.233-2.639 2.208-3.442 1.004-.803 2.237-1.204 3.728-1.204 1.09 0 2.065.23 2.897.66a5.75 5.75 0 012.065 1.921c.545.832.947 1.864 1.262 3.069.315 1.204.459 2.81.459 4.847 0 2.409-.23 4.36-.746 5.822-.487 1.491-1.233 2.639-2.208 3.442-.975.803-2.237 1.204-3.729 1.204-1.979 0-3.527-.717-4.675-2.122-1.348-1.721-2.007-4.503-2.007-8.346zm2.581 0c0 3.355.402 5.621 1.176 6.74.803 1.09 1.778 1.663 2.925 1.663 1.148 0 2.123-.573 2.926-1.692.774-1.119 1.176-3.356 1.176-6.711 0-3.385-.402-5.622-1.176-6.74-.803-1.119-1.778-1.664-2.954-1.664-1.148 0-2.094.488-2.782 1.463-.86 1.262-1.29 3.556-1.29 6.94zM709.193 239.237c0-2.438.23-4.388.745-5.851.488-1.491 1.234-2.639 2.209-3.442 1.004-.803 2.237-1.204 3.728-1.204 1.09 0 2.065.23 2.897.66a5.75 5.75 0 012.065 1.921c.545.832.946 1.864 1.262 3.069.315 1.204.459 2.81.459 4.847 0 2.409-.23 4.36-.746 5.822-.487 1.491-1.233 2.639-2.208 3.442-.975.803-2.237 1.204-3.729 1.204-1.979 0-3.527-.717-4.675-2.122-1.348-1.721-2.007-4.503-2.007-8.346zm2.581 0c0 3.355.402 5.621 1.176 6.74.803 1.09 1.778 1.663 2.925 1.663 1.148 0 2.123-.573 2.926-1.692.774-1.119 1.176-3.356 1.176-6.711 0-3.385-.402-5.622-1.176-6.74-.803-1.119-1.778-1.664-2.954-1.664-1.148 0-2.094.488-2.782 1.463-.86 1.262-1.291 3.556-1.291 6.94z" fill="#231f20" fill-rule="nonzero"/></g></g><g><path d="M2483.054 1286.823c.134.271-1.405 2.41-1.606 2.948-.2.532-.468 1.07-.669 1.135-.2.065-.268.266-.401-.331-.134-.603.334-2.275 0-2.547-.335-.266.067-1.004.602-2.003.535-1.004 1.015-3.149.875-3.882-.14-.738-.195-2.611 0-3.078.196-.467.262-1.206.262-1.206h1.004l.334 3.882s-.535 4.816-.401 5.082zm-7.308-64.179c-.389-1.037-.778-4.023-1.427-5.32-.648-1.298-1.686-11.934-2.334-15.045-.649-3.116-.908-14.659-.908-14.659s1.816 8.171 2.421 10.245c.605 2.08 2.248 17.124 2.248 17.124s.39 8.692 0 7.655zm-87.287-16.032c0 .2-.936 9.034-1.27 10.739-.336 1.704-.402 4.718-.302 5.722.1 1.004 0 7.758 0 7.758l-.702.337v-4.821c0-.532.535-6.955.535-7.357 0-.402.334-4.615.334-5.282 0-.674.536-10.17.536-10.17l.334-.336s.134.603.535 1.27c.402.668 0 1.944 0 2.14zm-4.816 96.803s-.736-1-1.071-1.873c-.335-.869-.401-5.484-.401-5.484l.803-.266s.4 2.405.669 3.811c.267 1.407 0 3.812 0 3.812zm115.837-41.908c-.763-2.042-.665-29.28-.665-30.464 0-1.178.272-4.17.635-7.802.363-3.626-2.721-25.034-2.721-25.034s-2.813-16.602-3.266-18.324c-.454-1.726-4.99-22.498-6.804-28.487-1.814-5.983-7.439-19.501-9.978-24.855-2.54-5.353-4.809-4.625-4.809-4.625s-26.216-7.895-28.302-8.437c-2.087-.543-5.624-3.448-6.531-4.718-.908-1.27-3.357-4.626-3.992-5.712-.635-1.091-.545-2.27-.545-3.084 0-.82.545-2.09 1.1-3.176.557-1.091 0-3.632 0-3.632s1.713-.45 2.439-.994c.725-.548.907-1.27 1.45-1.905.545-.635 1.09-5.174 1.09-5.896 0-.728.816-1.998.907-2.905.09-.907-.817-3.54-1.089-3.99-.272-.457-1.724.45-1.542 0 .182-.457.544-2.27.544-3.812 0-1.542-.544-5.717-.544-6.895s.726-.271.998-.907c.272-.635-.272-1.992-.635-2.991-.363-1-1.996-6.26-2.812-7.167-.817-.906-1.906 0-2.178 0s-.272-1.813-1.179-2.633c-.907-.814-2.903-.907-3.356-.722-.454.18 0-.82 0-.82v-.543s-1.089-.092-1.633-.635-1.996-.999-3.266-.814c-1.27.179-3.538.814-3.538.814s-2.585-.657-3.741-.863c-1.158-.207-3.063.136-3.335.005-.272-.13-4.286 2.107-4.83 2.172-.545.07-2.722 1.634-2.79 1.976-.067.337-1.632 1.428-2.449 1.564-.816.136-3.334 2.991-3.334 3.333 0 .342-1.36.95-1.7 1.227-.34.272 1.02 1.493 1.02 1.493s-.952 1.363-1.428 1.705c-.477.337-.68 1.9-1.293 3.127-.613 1.227.816 5.033.952 5.305.136.277 1.497 5.652 1.633 6.33.136.679-.34 1.835-.612 1.564-.272-.272-1.225-.136-1.633-.206-.409-.066-.34 2.112-.409 2.79-.067.684-.135 1.564.273 2.112.408.543.476 2.584.476 3.67 0 1.092 2.041 4.56 2.381 5.24.34.684 2.517 1.227 2.517 1.227s.069.884.205 1.699c.136.82 2.313 5.174 2.313 5.174l.544 4.69s-2.177 8.71-2.45 10.343c-.271 1.635-1.904 4.083-3.809 5.717-1.905 1.63-26.398 15.24-28.303 16.055-1.905.814-3.81 23.134-4.626 27.76-.817 4.625.544 14.968.544 14.968s-1.089 8.437-1.875 14.148c-.786 5.717.786 8.709.242 10.343-.544 1.634 0 39.937 0 40.687 0 .749 1.02 9.522 1.02 11.634 0 2.107 1.293 10.202 1.157 11.087-.136.885 1.633 11.363 2.041 12.59.408 1.222 1.225 1.157 1.715 1.222.49.07.19 1.428.043 2.177-.149.75.147 2.112.011 3.334-.136 1.227.953 7.758.953 8.507 0 .75.34 2.72.612 3.334.272.608 1.7 3.806 2.177 4.826.477 1.021 2.177 4.425 2.858 5.24.68.82 1.088 1.02 1.088 1.02s.613.885 1.565 1.02c.952.137 5.842 3.812 5.842 3.812s-.036 3.448 0 4.718c.037 1.27 1.597 14.513 2.685 18.503 1.089 3.996-.726 4.175-2.177 8.53-1.451 4.354.544 16.689 1.815 19.593 1.27 2.905 1.45 4.54 1.949 7.623.498 3.084.228 4.897.046 5.983-.182 1.091.182 5.989.907 8.709.726 2.725 1.814 2.725 1.978 4.718.163 1.998.562 7.986 1.832 12.699 1.27 4.718-1.451 12.34-1.814 16.874-.363 4.538 4.899 31.028 5.624 34.29.726 3.269 2.178 9.252 3.266 11.065 1.089 1.82 1.814 1.455 3.447 1.27 1.633-.178 2.721 3.085 1.633 4.54-1.089 1.45-1.633 1.992-3.81 2.356-2.177.364-3.992 5.26-4.899 7.259-.907 1.998-2.54 2.177-3.447 2.54-.907.364-.181 3.264.726 4.719.907 1.45 4.717 1.813 13.607 2.535 8.89.717 15.966-5.983 17.417-7.074 1.452-1.086 9.072-1.45 11.067-2.356 1.996-.907 2.54-3.269 2.54-4.718 0-1.45 0-2.541-.544-5.082s.726-13.242.545-17.78c-.182-4.534-6.532-9.252-9.435-12.7-2.903-3.447-1.452-2.54 0-5.44 1.451-2.905 1.996-10.343 2.359-12.884.362-2.54-6.532-14.696-7.258-16.146-.725-1.45 1.634-16.147 1.089-20.5-.544-4.355-2.54-6.353-3.992-14.698-1.45-8.344 2.178-8.53 2.903-9.436.726-.906 2.359-46.626 2.359-46.626s12.882 41.365 13.97 43.727c1.089 2.356.182 9.794.544 15.783.363 5.988 3.992 17.053 5.08 19.773 1.09 2.726 1.452 11.613 1.996 15.788.544 4.17 3.085 11.429 3.085 11.429s-3.81 11.613-5.625 15.603c-1.814 3.99 1.089 8.166 1.996 9.98.907 1.813.181 6.894.363 9.25.181 2.357-2.54 5.446-6.169 11.614-3.629 6.167 2.903 7.98 4.355 8.708 1.45.722.725 1.45 1.45 2.357.727.906 1.997 3.447 3.448 3.811 1.452.364 4.355.543 7.804 1.998 3.45 1.45 3.445 2.72 9.795 4.897s18.687-1.27 18.687-1.27 1.995-3.084 2.721-3.99c.726-.908-3.265-2.178-3.265-2.178s-.363-1.634-.908-2.725c-.544-1.086-3.265-3.806-3.81-4.898-.544-1.085-2.902-1.813-2.902-2.54 0-.723.362-1.27.18-1.814-.18-.543.364-2.356.727-3.99.363-1.635.726-1.092 1.451-1.45.726-.364 1.452-3.268 1.996-5.26.544-1.999.181-2.726-.363-3.633s0-1.27-.907-2.72c-.907-1.45-2.177-13.97-2.54-19.051-.363-5.082-2.54-21.587-2.54-24.128 0-2.54 0-4.175 1.633-7.986 1.633-3.806 1.089-26.848 1.27-30.659.181-3.811-1.815-9.8-2.177-12.335-.363-2.541.725-5.625 1.814-7.802 1.089-2.177 2.54-3.996 2.177-7.259-.363-3.268-2.676-41.957-2.676-41.957s-.227-3.176-.363-3.583c-.136-.407-.181-1.135-.181-2.085 0-.956.09-3.176.09-3.268 0-.087 1.724.048 2.042 0 .317-.044.906-.315 1.179-.359.272-.043 1.406-.092 2.403 0 .998.087 3.402-2.27 3.81-2.676.409-.413 3.13-1.678 3.675-1.998.544-.315 1.065-1.635 1.27-2.107.204-.478.884-.413 1.36-.684.477-.271.273-.679.273-1.292 0-.614.816-2.72 1.02-3.334.204-.613.68-3.469.953-3.876.272-.407.408-1.7.272-2.997-.137-1.292-.34-9.523-.34-9.523l2.116-1.471s.762-2.856 0-4.897z" fill="#1c1c1a" fill-rule="nonzero"/></g></svg>