<svg viewBox="0 0 152 228" xmlns="http://www.w3.org/2000/svg" fill-rule="evenodd" clip-rule="evenodd" stroke-linejoin="round" stroke-miterlimit="2"><path d="M46.468 183.699c-1.253-.626-3.082-.728-4.084-.227L.636 204.346c-.195.098-.636-.185-.636-.022 0 .162.016.574.016.69 0 .464.272.973 1.074 1.374l40.84 20.42c1.252.626 3.082.728 4.084.227l41.747-20.874c.421-.21.629-.493.636-.797.006-.212.007-.598 0-.872-.007-.279-.729-.193-1.089-.373l-40.84-20.42z" fill="#8c8c8c"/><path d="M46.468 182.862c-1.253-.626-3.082-.728-4.084-.227L.636 203.509c-1.002.501-.798 1.416.454 2.042l40.84 20.42c1.252.626 3.082.728 4.084.227l41.747-20.874c1.002-.501.799-1.416-.453-2.042l-40.84-20.42z" fill="#ccc"/><path d="M45.628 121.917l-3.234-1.617v83.162l3.234 1.617v-83.162z" fill="#8d8b8b"/><path d="M137.653 85.755l-95.291 79.836-.344-89.102c-.15-38.711 5.422-52.026 23.995-68.004 19.922-17.139 55.173-6.471 73.136 15.565 17.612 21.605 14.692 46.643-1.496 61.705z" fill="#f2f2f2" fill-rule="nonzero"/><path d="M46.013 162.533l-3.651 3.058-.344-89.102c-.15-38.711 5.422-52.026 23.995-68.004 19.922-17.139 55.173-6.471 73.136 15.565 15.979 19.602 15.057 42.03 2.657 57.27 11.003-14.512 11.468-35.32-3.404-53.563C121.256 6.723 87.606-3.461 68.589 12.899 50.861 28.151 45.542 40.861 45.685 77.814l.328 84.719z" fill="#d9d9d9" fill-rule="nonzero"/><g fill-rule="nonzero"><path d="M124.283 47.592a.442.442 0 00.048-.212c0-.331-.272-.739-.603-.904l-.007-.004-13.461-6.73a1.01 1.01 0 00-.045-.025c-.289-.144-.527-.026-.527.263 0 .155.069.337.187.497l9.519 14.263c.113.171.268.313.429.394.247.123.469.083.561-.1.28-3.322 1.644-5.928 3.898-7.447" fill="#e42026"/><path d="M109.067 22.312a1.015 1.015 0 00-.237-.167c-.331-.165-.603-.029-.603.301v13.447l-.002.044c0 .289.238.645.527.79.155.077.302.083.402.015l9.52-4.746c.114-.056.179-.178.179-.339 0-.246-.151-.544-.38-.75-1.723-1.004-3.414-2.256-5.013-3.711a34.848 34.848 0 01-4.394-4.885" fill="#1c9747"/><path d="M91.369 28.657a.443.443 0 00-.049.212c0 .331.273.739.604.904l.005.003 13.462 6.731a.846.846 0 00.042.022c.289.145.528.026.528-.263a.872.872 0 00-.186-.494l-9.518-14.264a1.162 1.162 0 00-.431-.395c-.247-.124-.47-.084-.561.1-.143 1.649-.55 3.133-1.207 4.401-.666 1.258-1.573 2.285-2.689 3.043M106.585 53.936c.074.07.155.126.236.167.331.165.603.03.603-.301V40.356c.002-.014.002-.028.002-.042 0-.289-.238-.647-.528-.791-.154-.078-.302-.083-.402-.016l-9.518 4.746c-.115.056-.179.178-.179.339 0 .246.151.544.38.75 1.722 1.004 3.413 2.256 5.011 3.711a34.88 34.88 0 014.4 4.884M97.066 20.249c-.229-.023-.38.124-.38.37 0 .161.064.347.179.518l9.519 14.265c.101.168.248.309.403.386.289.145.528.026.528-.263a.678.678 0 00-.002-.044V22.04v-.004c0-.331-.273-.739-.604-.904a.634.634 0 00-.232-.07c-1.32.455-2.803.619-4.398.486-1.599-.144-3.289-.582-5.012-1.3M95.31 42.611c.091.275.314.538.561.662.162.081.317.093.431.035l9.518-4.753c.118-.041.186-.154.186-.308 0-.289-.238-.647-.528-.791a.8.8 0 00-.042-.02l-13.462-6.731-.005-.002c-.331-.166-.603-.03-.603.301a.79.79 0 00.048.26 31.215 31.215 0 012.688 5.737c.657 1.925 1.064 3.816 1.207 5.607M118.584 56c.229.023.381-.124.381-.37a.965.965 0 00-.18-.518l-9.518-14.265a1.017 1.017 0 00-.402-.386c-.29-.145-.528-.026-.528.263l.002.044v13.447c0 .33.272.739.603.904a.626.626 0 00.236.07c2.651-.925 5.944-.641 9.411.813M128.969 40.527l4.123 2.062v6.066c-.814.145-1.82.097-3.017-.142-1.083-.201-2.211-.583-3.347-1.136a14.568 14.568 0 01-4.053-3.009 14.816 14.816 0 01-2.81-4.117c-.677-1.491-1.016-2.961-1.016-4.411-.04-2.788 1.508-4.574 3.981-4.591 1.244-.027 2.647.351 4.209 1.132 1.164.586 2.32 1.372 3.412 2.321 1.14.985 2.097 2.016 2.872 3.092l-2.721 1.936a11.355 11.355 0 00-1.71-2.005 8.25 8.25 0 00-1.875-1.361c-.586-.299-1.162-.426-1.659-.363-.496.062-.897.304-1.158.697-.282.424-.424.978-.414 1.615-.011.637.134 1.346.424 2.065a6.564 6.564 0 001.171 1.869c.504.564 1.087 1.018 1.68 1.306.525.262 1.162.415 1.911.458v-3.483l-.003-.001z" fill="#191919"/></g><path d="M97.251 51.644L47.809 95.775l9.858 12.008 49.442-44.132-9.858-12.007zM111.269 69.008l-35.384 31.583 7.055 8.593 35.384-31.583-7.055-8.593z" fill="#d9d9d9"/></svg>