<?xml version="1.0" encoding="UTF-8" standalone="no"?>
<!DOCTYPE svg PUBLIC "-//W3C//DTD SVG 1.1//EN" "http://www.w3.org/Graphics/SVG/1.1/DTD/svg11.dtd">
<svg width="100%" height="100%" viewBox="0 0 32 32" version="1.1" xmlns="http://www.w3.org/2000/svg" xmlns:xlink="http://www.w3.org/1999/xlink" xml:space="preserve" xmlns:serif="http://www.serif.com/" style="fill-rule:evenodd;clip-rule:evenodd;stroke-linejoin:round;stroke-miterlimit:2;">
    <g transform="matrix(1,0,0,1,-1886,0)">
        <rect id="instagram" x="1886" y="0" width="32" height="32" style="fill:none;"/>
        <g id="instagram1" serif:id="instagram">
            <g>
                <g transform="matrix(0.176182,0,0,0.176182,1889.97,-64.4383)">
                    <path d="M46.542,410.168C31.526,410.168 19.312,422.383 19.312,437.397L19.312,475.728C19.312,490.743 31.526,502.958 46.542,502.958L90.039,502.958C105.053,502.958 117.268,490.743 117.268,475.728L117.268,437.397C117.268,422.383 105.053,410.168 90.039,410.168L46.542,410.168ZM90.039,510.74L46.542,510.74C27.237,510.74 11.53,495.033 11.53,475.728L11.53,437.397C11.53,418.093 27.237,402.388 46.542,402.388L90.039,402.388C109.342,402.388 125.049,418.093 125.049,437.397L125.049,475.728C125.049,495.033 109.342,510.74 90.039,510.74Z" style="fill-rule:nonzero;"/>
                </g>
                <g transform="matrix(0.176182,0,0,0.176182,1889.97,-64.4383)">
                    <path d="M68.29,433.178C55.396,433.178 44.905,443.668 44.905,456.563C44.905,469.457 55.396,479.947 68.29,479.947C81.184,479.947 91.674,469.457 91.674,456.563C91.674,443.668 81.184,433.178 68.29,433.178ZM68.29,487.729C51.105,487.729 37.126,473.748 37.126,456.563C37.126,439.377 51.105,425.399 68.29,425.399C85.475,425.399 99.454,439.377 99.454,456.563C99.454,473.748 85.475,487.729 68.29,487.729Z" style="fill-rule:nonzero;"/>
                </g>
                <g transform="matrix(0.176182,0,0,0.176182,1889.97,-64.4383)">
                    <path d="M105.444,426.357C105.444,429.927 102.55,432.822 98.979,432.822C95.406,432.822 92.51,429.927 92.51,426.357C92.51,422.785 95.406,419.89 98.979,419.89C102.55,419.89 105.444,422.785 105.444,426.357Z" style="fill-rule:nonzero;"/>
                </g>
            </g>
        </g>
    </g>
</svg>
