<svg viewBox="0 0 500 500" xmlns="http://www.w3.org/2000/svg" fill-rule="evenodd" clip-rule="evenodd" stroke-linejoin="round" stroke-miterlimit="2"><path fill="none" d="M0 0h500v500H0z"/><clipPath id="a"><path d="M0 0h500v500H0z"/></clipPath><g clip-path="url(#a)"><path fill="none" d="M32.5 32.5h435v435h-435z"/><path d="M243.121 36.467a13.78 13.78 0 0113.758 0c29.487 17.029 145.116 83.787 174.603 100.816a13.743 13.743 0 016.879 11.907v201.62c0 4.912-2.622 9.454-6.879 11.907-29.487 17.029-145.116 83.787-174.603 100.816a13.78 13.78 0 01-13.758 0c-29.487-17.029-145.116-83.787-174.603-100.816a13.743 13.743 0 01-6.879-11.907V149.19c0-4.912 2.622-9.454 6.879-11.907 29.487-17.029 145.116-83.787 174.603-100.816z" fill="url(#_Linear2)"/><path d="M222.351 134.8l-6.704 17.029-2.645-3.503 6.699-17.029 2.65 3.503zM222.351 248.718l-6.704 17.029-2.645-3.509 6.699-17.023 2.65 3.503zM222.351 353.373l-6.704 17.029-2.645-3.503 6.699-17.029 2.65 3.503z" fill="#fff"/><path d="M227.223 451.985l7.68-4.431V101.81l-7.68 4.431v345.744z" fill="#b3b3b3"/><path d="M219.55 101.81l7.673-4.431 7.68 4.431-7.68 4.431-7.673-4.431z" fill="#e6e6e6"/><path d="M227.223 451.904l-7.673-4.35V101.81l7.673 4.431v345.663z" fill="#8c8c8c"/><path d="M422.585 245.975v96.906c0 4.408-2.349 8.474-6.16 10.678l-102.834 59.369L250 375.518l-13.05-7.621V139.075l185.635 106.9z" fill="#fff"/><path d="M245.65 373.012V144.086l-8.7-5.011v228.822l8.7 5.115z" fill="#ccc"/><g fill-rule="nonzero"><path d="M397.981 308.203c.371-.969-.284-2.651-1.247-3.207l-29.928-17.279c-.551-.319-.963-.145-1.183.279-.139.51-.064 1.235.325 1.978l21.164 40.437c.684 1.299 1.833 1.665 2.204.685 0 0 .273-6.926 2.685-13.3 2.413-6.38 5.98-9.593 5.98-9.593" fill="#ff1a21"/><path d="M364.15 236.208c-.888-1.01-1.868-.696-1.868.585v39.904c0 .737.308 1.462.719 1.996.447.435.957.632 1.346.336l21.164-15.996c.679-.517.453-2.187-.435-3.19 0 0-5.318-3.434-11.147-10.017-5.829-6.583-9.779-13.618-9.779-13.618" fill="#00983e"/><path d="M324.803 258.601c-.372.969.278 2.651 1.247 3.208l29.928 17.284c.551.313.962.139 1.183-.284.133-.511.064-1.236-.331-1.978l-21.158-40.438c-.685-1.299-1.839-1.664-2.204-.684 0 0-.279 6.925-2.691 13.299-2.413 6.38-5.974 9.593-5.974 9.593M358.634 330.597c.887 1.003 1.868.702 1.868-.586v-39.904c0-.731-.314-1.462-.725-1.995-.441-.435-.952-.632-1.34-.342l-21.164 16.008c-.685.51-.453 2.18.435 3.184 0 0 5.318 3.433 11.141 10.016 5.829 6.583 9.785 13.619 9.785 13.619M337.47 232.49c-.893-.023-1.12 1.386-.441 2.685l21.164 40.438c.389.742.899 1.137 1.346 1.212.412-.058.719-.429.719-1.16v-39.904c0-1.288-.974-2.72-1.868-2.743 0 0-3.949 2.47-9.773 2.325-5.829-.145-11.147-2.847-11.147-2.847M333.566 299.236c.366 1.398 1.526 2.372 2.204 1.856l21.165-15.996c.388-.296.458-.934.324-1.607-.22-.678-.632-1.328-1.183-1.641l-29.928-17.278c-.963-.557-1.618.365-1.247 1.769 0 0 3.561 7.325 5.98 16.489 2.413 9.164 2.685 16.408 2.685 16.408M385.314 334.315c.887.023 1.119-1.387.435-2.686l-21.158-40.437c-.389-.743-.899-1.137-1.346-1.213-.412.058-.719.43-.719 1.166v39.904c0 1.282.98 2.72 1.867 2.744 0 0 3.95-2.477 9.779-2.326 5.829.145 11.142 2.848 11.142 2.848M408.404 286.291l9.17 5.295v18.009c-1.81.592-4.049.65-6.705.186a22.573 22.573 0 01-7.442-2.703c-3.352-1.932-6.356-4.64-9.013-8.12-2.662-3.48-4.744-7.366-6.246-11.658-1.508-4.292-2.262-8.584-2.262-12.888 0-4.263.783-7.65 2.354-10.161 1.566-2.518 3.736-3.944 6.496-4.275 2.767-.325 5.887.51 9.362 2.517 2.517 1.456 5.046 3.527 7.58 6.218 2.535 2.697 4.663 5.562 6.386 8.601l-6.038 6.293a29.566 29.566 0 00-3.805-5.614c-1.461-1.682-2.853-2.9-4.17-3.66-1.357-.783-2.581-1.032-3.689-.748-1.107.278-1.966 1.044-2.581 2.285-.614 1.241-.922 2.871-.922 4.878 0 2.053.313 4.066.94 6.043.632 1.984 1.502 3.759 2.61 5.313 1.108 1.566 2.349 2.744 3.729 3.538 1.172.679 2.581 1.004 4.246.975v-10.324z" fill="#1f191a"/></g><path d="M395.267 371.429l-113.976-65.801v25.015l94.296 54.445 19.68-13.659zM361.453 392.535l-72.657-41.946v10.382l63.957 36.923 8.7-5.359z" fill="#e6e6e6"/><path d="M234.903 131.384l-7.68 4.431v5.023l7.68-4.431v-5.023z" fill="url(#_Linear3)"/><path d="M234.903 245.302l-7.68 4.431v5.023l7.68-4.431v-5.023z" fill="url(#_Linear4)"/><path d="M234.903 349.957l-7.68 4.431v5.023l7.68-4.431v-5.023z" fill="url(#_Linear5)"/><path d="M240.407 143.425l-20.857-12.041v5.023l20.857 12.041v-5.023zM240.407 257.343l-20.857-12.041v5.023l20.857 12.041v-5.023zM240.407 361.998l-20.857-12.041v5.023l20.857 12.041v-5.023z" fill="#e7e7e7"/><g><path d="M250 25l194.856 112.5v225L250 475 55.144 362.5v-225L250 25zm0 25l173.205 100v200L250 450 76.795 350V150L250 50z" fill="url(#_Linear6)"/><path d="M250 25l194.856 112.5v225L250 475 55.144 362.5v-225L250 25zm0 25l173.205 100v200L250 450 76.795 350V150L250 50z" fill="url(#_Linear7)"/><g><path d="M250 25l194.856 112.5v225L250 475 55.144 362.5v-225L250 25zm0 25l173.205 100v200L250 450 76.795 350V150L250 50z" fill="url(#_Linear8)"/><path d="M250 25l194.856 112.5v225L250 475 55.144 362.5v-225L250 25zm0 25l173.205 100v200L250 450 76.795 350V150L250 50z" fill="url(#_Linear9)"/></g></g></g><defs><linearGradient id="_Linear2" x1="0" y1="0" x2="1" y2="0" gradientUnits="userSpaceOnUse" gradientTransform="rotate(90 28.446 128.372) scale(365.398)"><stop offset="0" stop-color="#d4d4d4"/><stop offset="1" stop-color="#fff"/></linearGradient><linearGradient id="_Linear3" x1="0" y1="0" x2="1" y2="0" gradientUnits="userSpaceOnUse" gradientTransform="rotate(90 48.783 182.347) scale(12.0375)"><stop offset="0" stop-color="#f3f3f3"/><stop offset="1" stop-color="#6b6b6b"/></linearGradient><linearGradient id="_Linear4" x1="0" y1="0" x2="1" y2="0" gradientUnits="userSpaceOnUse" gradientTransform="rotate(90 -8.175 239.305) scale(12.0375)"><stop offset="0" stop-color="#f3f3f3"/><stop offset="1" stop-color="#6b6b6b"/></linearGradient><linearGradient id="_Linear5" x1="0" y1="0" x2="1" y2="0" gradientUnits="userSpaceOnUse" gradientTransform="rotate(90 -60.503 291.632) scale(12.0375)"><stop offset="0" stop-color="#f3f3f3"/><stop offset="1" stop-color="#6b6b6b"/></linearGradient><linearGradient id="_Linear6" x1="0" y1="0" x2="1" y2="0" gradientUnits="userSpaceOnUse" gradientTransform="scale(371.561) rotate(39.302 -.312 .597)"><stop offset="0" stop-color="#08415c"/><stop offset="1" stop-color="#207ca8"/></linearGradient><linearGradient id="_Linear7" x1="0" y1="0" x2="1" y2="0" gradientUnits="userSpaceOnUse" gradientTransform="scale(371.561) rotate(39.302 -.312 .597)"><stop offset="0" stop-color="#08415c"/><stop offset="1" stop-color="#207ca8"/></linearGradient><linearGradient id="_Linear8" x1="0" y1="0" x2="1" y2="0" gradientUnits="userSpaceOnUse" gradientTransform="scale(371.561) rotate(39.302 -.312 .597)"><stop offset="0" stop-color="#08415c"/><stop offset="1" stop-color="#207ca8"/></linearGradient><linearGradient id="_Linear9" x1="0" y1="0" x2="1" y2="0" gradientUnits="userSpaceOnUse" gradientTransform="scale(371.561) rotate(39.302 -.312 .597)"><stop offset="0" stop-color="#08415c"/><stop offset="1" stop-color="#207ca8"/></linearGradient></defs></svg>