<svg viewBox="0 0 500 500" xmlns="http://www.w3.org/2000/svg" fill-rule="evenodd" clip-rule="evenodd" stroke-linejoin="round" stroke-miterlimit="2"><path fill="none" d="M0 0h500v500H0z"/><clipPath id="a"><path d="M0 0h500v500H0z"/></clipPath><g clip-path="url(#a)"><path fill="none" d="M32.5 32.5h435v435h-435z"/><path d="M243.121 36.467a13.78 13.78 0 0113.758 0c29.487 17.029 145.116 83.787 174.603 100.816a13.743 13.743 0 016.879 11.907v201.62c0 4.912-2.622 9.454-6.879 11.907-29.487 17.029-145.116 83.787-174.603 100.816a13.78 13.78 0 01-13.758 0c-29.487-17.029-145.116-83.787-174.603-100.816a13.743 13.743 0 01-6.879-11.907V149.19c0-4.912 2.622-9.454 6.879-11.907 29.487-17.029 145.116-83.787 174.603-100.816z" fill="url(#_Linear2)"/><path d="M237.101 461.056l7.343-4.24V126.025l-7.343 4.24v330.791z" fill="#b3b3b3"/><path d="M229.259 123.85l7.674-4.431 7.679 4.431-7.679 4.437-7.674-4.437z" fill="#fff"/><path d="M236.933 460.975l-7.674-4.164V126.025l7.674 4.24v330.71z" fill="#8c8c8c"/><path d="M236.95 128.287l7.662-4.437v13.05l-7.662-8.613z" fill="url(#_Linear3)"/><path d="M432.294 240.772v111.18c0 4.408-2.349 8.474-6.16 10.678L323.3 421.999l-94.041-55.054V123.85l203.035 116.922z" fill="#fff"/><path d="M407.69 317.274c.366-.968-.284-2.65-1.247-3.207l-29.928-17.278c-.551-.319-.968-.145-1.183.278-.139.51-.064 1.235.325 1.978l21.164 40.437c.685 1.3 1.833 1.665 2.204.691 0 0 .273-6.931 2.686-13.306 2.412-6.38 5.979-9.593 5.979-9.593" fill="#ff1a21" fill-rule="nonzero"/><path d="M373.859 245.279c-.893-1.004-1.868-.696-1.868.586v39.904c0 .736.308 1.461.72 1.995.446.435.957.632 1.345.342l21.164-16.002c.679-.516.447-2.187-.44-3.19 0 0-5.313-3.434-11.142-10.017-5.829-6.583-9.779-13.618-9.779-13.618" fill="#00983e" fill-rule="nonzero"/><path d="M334.512 267.673c-.371.968.278 2.65 1.241 3.207l29.934 17.284c.545.313.963.139 1.177-.284.139-.511.064-1.236-.325-1.978l-21.164-40.438c-.678-1.299-1.833-1.664-2.204-.684 0 0-.272 6.925-2.685 13.305-2.413 6.374-5.974 9.588-5.974 9.588M368.343 339.668c.888 1.003 1.862.702 1.862-.586v-39.904c0-.731-.307-1.461-.719-1.995-.441-.435-.951-.632-1.34-.342l-21.164 16.008c-.685.51-.453 2.181.435 3.184 0 0 5.313 3.434 11.142 10.017 5.829 6.583 9.784 13.618 9.784 13.618M347.179 241.561c-.893-.023-1.119 1.386-.441 2.685l21.164 40.438c.389.742.899 1.137 1.346 1.212.412-.058.719-.429.719-1.16v-39.904c0-1.287-.974-2.72-1.867-2.743 0 0-3.95 2.471-9.779 2.326-5.823-.145-11.142-2.848-11.142-2.848M343.276 308.307c.365 1.398 1.519 2.373 2.204 1.856l21.164-15.996c.388-.296.458-.934.325-1.607-.221-.678-.633-1.328-1.184-1.641l-29.928-17.278c-.962-.557-1.618.365-1.247 1.769 0 0 3.562 7.325 5.974 16.489 2.419 9.164 2.692 16.408 2.692 16.408M395.023 343.386c.888.023 1.12-1.386.435-2.686l-21.164-40.437c-.389-.743-.899-1.137-1.34-1.212-.412.058-.719.429-.719 1.165v39.904c0 1.282.974 2.721 1.862 2.744 0 0 3.955-2.477 9.784-2.326 5.829.145 11.142 2.848 11.142 2.848M418.107 295.362l9.176 5.295v18.009c-1.816.592-4.049.65-6.705.186a22.6 22.6 0 01-7.447-2.703c-3.347-1.931-6.351-4.64-9.008-8.12-2.662-3.48-4.744-7.366-6.246-11.658-1.508-4.292-2.262-8.584-2.262-12.888 0-4.263.783-7.65 2.355-10.161 1.566-2.517 3.729-3.944 6.496-4.275 2.766-.325 5.887.511 9.355 2.517 2.523 1.456 5.046 3.527 7.586 6.218 2.535 2.697 4.664 5.562 6.38 8.607l-6.037 6.287a29.309 29.309 0 00-3.799-5.614c-1.462-1.676-2.854-2.9-4.176-3.66-1.352-.783-2.581-1.032-3.683-.748-1.108.278-1.972 1.044-2.581 2.285-.615 1.241-.923 2.871-.923 4.878 0 2.053.314 4.066.94 6.044.632 1.983 1.502 3.758 2.604 5.312 1.108 1.566 2.355 2.744 3.735 3.538 1.172.679 2.581 1.004 4.24.975v-10.324z" fill="#1f191a" fill-rule="nonzero"/><path d="M404.976 380.5L291 314.699v25.015l94.297 54.445 19.679-13.659zM371.162 401.606l-72.657-41.945v10.382l63.957 36.922 8.7-5.359z" fill="#e6e6e6"/><g><path d="M250 25l194.856 112.5v225L250 475 55.144 362.5v-225L250 25zm0 25l173.205 100v200L250 450 76.795 350V150L250 50z" fill="url(#_Linear4)"/><path d="M250 25l194.856 112.5v225L250 475 55.144 362.5v-225L250 25zm0 25l173.205 100v200L250 450 76.795 350V150L250 50z" fill="url(#_Linear5)"/><g><path d="M250 25l194.856 112.5v225L250 475 55.144 362.5v-225L250 25zm0 25l173.205 100v200L250 450 76.795 350V150L250 50z" fill="url(#_Linear6)"/><path d="M250 25l194.856 112.5v225L250 475 55.144 362.5v-225L250 25zm0 25l173.205 100v200L250 450 76.795 350V150L250 50z" fill="url(#_Linear7)"/></g></g></g><defs><linearGradient id="_Linear2" x1="0" y1="0" x2="1" y2="0" gradientUnits="userSpaceOnUse" gradientTransform="rotate(90 28.446 128.372) scale(365.398)"><stop offset="0" stop-color="#d4d4d4"/><stop offset="1" stop-color="#fff"/></linearGradient><linearGradient id="_Linear3" x1="0" y1="0" x2="1" y2="0" gradientUnits="userSpaceOnUse" gradientTransform="rotate(90 58.405 183.343) scale(10.875)"><stop offset="0" stop-color="#fff"/><stop offset="1" stop-color="#b3b3b3"/></linearGradient><linearGradient id="_Linear4" x1="0" y1="0" x2="1" y2="0" gradientUnits="userSpaceOnUse" gradientTransform="scale(371.561) rotate(39.302 -.312 .597)"><stop offset="0" stop-color="#08415c"/><stop offset="1" stop-color="#207ca8"/></linearGradient><linearGradient id="_Linear5" x1="0" y1="0" x2="1" y2="0" gradientUnits="userSpaceOnUse" gradientTransform="scale(371.561) rotate(39.302 -.312 .597)"><stop offset="0" stop-color="#08415c"/><stop offset="1" stop-color="#207ca8"/></linearGradient><linearGradient id="_Linear6" x1="0" y1="0" x2="1" y2="0" gradientUnits="userSpaceOnUse" gradientTransform="scale(371.561) rotate(39.302 -.312 .597)"><stop offset="0" stop-color="#08415c"/><stop offset="1" stop-color="#207ca8"/></linearGradient><linearGradient id="_Linear7" x1="0" y1="0" x2="1" y2="0" gradientUnits="userSpaceOnUse" gradientTransform="scale(371.561) rotate(39.302 -.312 .597)"><stop offset="0" stop-color="#08415c"/><stop offset="1" stop-color="#207ca8"/></linearGradient></defs></svg>