<svg viewBox="0 0 500 500" xmlns="http://www.w3.org/2000/svg" fill-rule="evenodd" clip-rule="evenodd" stroke-linejoin="round" stroke-miterlimit="2"><path fill="none" d="M0 0h500v500H0z"/><clipPath id="a"><path d="M0 0h500v500H0z"/></clipPath><g clip-path="url(#a)"><path fill="none" d="M32.5 32.5h435v435h-435z"/><path d="M243.121 36.467a13.78 13.78 0 0113.758 0c29.487 17.029 145.116 83.787 174.603 100.816a13.743 13.743 0 016.879 11.907v201.62c0 4.912-2.622 9.454-6.879 11.907-29.487 17.029-145.116 83.787-174.603 100.816a13.78 13.78 0 01-13.758 0c-29.487-17.029-145.116-83.787-174.603-100.816a13.743 13.743 0 01-6.879-11.907V149.19c0-4.912 2.622-9.454 6.879-11.907 29.487-17.029 145.116-83.787 174.603-100.816z" fill="url(#_Linear2)"/><path d="M227.844 451.985l7.679-4.431V101.81l-7.679 4.431v345.744z" fill="#b3b3b3"/><path d="M220.171 101.81l7.673-4.431 7.679 4.431-7.679 4.431-7.673-4.431z" fill="#e6e6e6"/><path d="M227.844 451.904l-7.673-4.35V101.81l7.673 4.431v345.663z" fill="#8c8c8c"/><path d="M228.117 120.213l7.406-4.35v13.05l-7.406-8.7z" fill="url(#_Linear3)"/><path d="M423.205 232.559v110.322c0 4.408-2.349 8.474-6.165 10.678l-102.828 59.369-94.041-55.054V115.637l203.034 116.922z" fill="#fff"/><g fill-rule="nonzero"><path d="M398.602 308.203c.365-.969-.284-2.651-1.253-3.207l-29.928-17.279c-.551-.319-.963-.145-1.183.279-.134.51-.058 1.235.33 1.978l21.165 40.437c.678 1.299 1.832 1.665 2.198.685 0 0 .278-6.926 2.691-13.3 2.413-6.38 5.98-9.593 5.98-9.593" fill="#ff1a21"/><path d="M364.77 236.208c-.893-1.01-1.867-.696-1.867.585v39.904c0 .737.307 1.462.719 1.996.447.435.957.632 1.34.336l21.17-15.996c.678-.517.446-2.187-.441-3.19 0 0-5.313-3.434-11.142-10.017-5.829-6.583-9.779-13.618-9.779-13.618" fill="#00983e"/><path d="M325.417 258.601c-.365.969.285 2.651 1.247 3.208l29.934 17.284c.545.313.957.139 1.178-.284.139-.511.063-1.236-.325-1.978l-21.164-40.438c-.679-1.299-1.833-1.664-2.204-.684 0 0-.273 6.925-2.686 13.299-2.413 6.38-5.98 9.593-5.98 9.593M359.249 330.597c.887 1.003 1.867.702 1.867-.586v-39.904c0-.731-.307-1.462-.719-1.995-.446-.435-.957-.632-1.345-.342l-21.165 16.008c-.678.51-.452 2.18.441 3.184 0 0 5.313 3.433 11.142 10.016s9.779 13.619 9.779 13.619M338.09 232.49c-.893-.023-1.119 1.386-.44 2.685l21.164 40.438c.383.742.899 1.137 1.345 1.212.406-.058.714-.429.72-1.16v-39.904c0-1.288-.975-2.72-1.868-2.743 0 0-3.95 2.47-9.779 2.325-5.829-.145-11.142-2.847-11.142-2.847M334.187 299.236c.365 1.398 1.52 2.372 2.204 1.856l21.158-15.996c.389-.296.464-.934.325-1.607-.214-.678-.632-1.328-1.177-1.641l-29.928-17.278c-.969-.557-1.618.365-1.247 1.769 0 0 3.561 7.325 5.974 16.489 2.413 9.164 2.691 16.408 2.691 16.408M385.935 334.315c.887.023 1.113-1.387.435-2.686l-21.165-40.437c-.388-.743-.899-1.137-1.339-1.213-.412.058-.725.43-.725 1.166v39.904c0 1.282.98 2.72 1.867 2.744 0 0 3.956-2.477 9.779-2.326 5.829.145 11.148 2.848 11.148 2.848M409.019 286.291l9.175 5.295v18.009c-1.815.592-4.054.65-6.71.186a22.573 22.573 0 01-7.442-2.703c-3.346-1.932-6.351-4.64-9.013-8.12-2.656-3.48-4.739-7.366-6.247-11.658-1.502-4.292-2.256-8.584-2.256-12.888 0-4.263.783-7.65 2.355-10.161 1.56-2.518 3.729-3.944 6.496-4.275 2.767-.325 5.887.51 9.355 2.517 2.523 1.456 5.046 3.527 7.581 6.218 2.54 2.697 4.669 5.562 6.386 8.601l-6.038 6.293a29.016 29.016 0 00-3.805-5.614c-1.456-1.682-2.848-2.9-4.17-3.66-1.351-.783-2.581-1.032-3.689-.748-1.102.278-1.966 1.044-2.581 2.285-.609 1.241-.916 2.871-.916 4.878 0 2.053.313 4.066.939 6.043.633 1.984 1.503 3.759 2.605 5.313 1.107 1.566 2.349 2.744 3.735 3.538 1.166.679 2.581 1.004 4.24.975v-10.324z" fill="#1f191a"/></g><path d="M395.882 371.429l-113.97-65.801v25.015l94.296 54.445 19.674-13.659zM362.068 392.535l-72.651-41.946v10.382l63.951 36.923 8.7-5.359z" fill="#e6e6e6"/><g><path d="M250 25l194.856 112.5v225L250 475 55.144 362.5v-225L250 25zm0 25l173.205 100v200L250 450 76.795 350V150L250 50z" fill="url(#_Linear4)"/><path d="M250 25l194.856 112.5v225L250 475 55.144 362.5v-225L250 25zm0 25l173.205 100v200L250 450 76.795 350V150L250 50z" fill="url(#_Linear5)"/><g><path d="M250 25l194.856 112.5v225L250 475 55.144 362.5v-225L250 25zm0 25l173.205 100v200L250 450 76.795 350V150L250 50z" fill="url(#_Linear6)"/><path d="M250 25l194.856 112.5v225L250 475 55.144 362.5v-225L250 25zm0 25l173.205 100v200L250 450 76.795 350V150L250 50z" fill="url(#_Linear7)"/></g></g></g><defs><linearGradient id="_Linear2" x1="0" y1="0" x2="1" y2="0" gradientUnits="userSpaceOnUse" gradientTransform="rotate(90 28.446 128.372) scale(365.398)"><stop offset="0" stop-color="#d4d4d4"/><stop offset="1" stop-color="#fff"/></linearGradient><linearGradient id="_Linear3" x1="0" y1="0" x2="1" y2="0" gradientUnits="userSpaceOnUse" gradientTransform="rotate(90 57.852 174.806) scale(10.875)"><stop offset="0" stop-color="#fff"/><stop offset="1" stop-color="#b3b3b3"/></linearGradient><linearGradient id="_Linear4" x1="0" y1="0" x2="1" y2="0" gradientUnits="userSpaceOnUse" gradientTransform="scale(371.561) rotate(39.302 -.312 .597)"><stop offset="0" stop-color="#08415c"/><stop offset="1" stop-color="#207ca8"/></linearGradient><linearGradient id="_Linear5" x1="0" y1="0" x2="1" y2="0" gradientUnits="userSpaceOnUse" gradientTransform="scale(371.561) rotate(39.302 -.312 .597)"><stop offset="0" stop-color="#08415c"/><stop offset="1" stop-color="#207ca8"/></linearGradient><linearGradient id="_Linear6" x1="0" y1="0" x2="1" y2="0" gradientUnits="userSpaceOnUse" gradientTransform="scale(371.561) rotate(39.302 -.312 .597)"><stop offset="0" stop-color="#08415c"/><stop offset="1" stop-color="#207ca8"/></linearGradient><linearGradient id="_Linear7" x1="0" y1="0" x2="1" y2="0" gradientUnits="userSpaceOnUse" gradientTransform="scale(371.561) rotate(39.302 -.312 .597)"><stop offset="0" stop-color="#08415c"/><stop offset="1" stop-color="#207ca8"/></linearGradient></defs></svg>