<?xml version="1.0" encoding="UTF-8" standalone="no"?>
<!DOCTYPE svg PUBLIC "-//W3C//DTD SVG 1.1//EN" "http://www.w3.org/Graphics/SVG/1.1/DTD/svg11.dtd">
<svg width="100%" height="100%" viewBox="0 0 32 32" version="1.1" xmlns="http://www.w3.org/2000/svg" xmlns:xlink="http://www.w3.org/1999/xlink" xml:space="preserve" xmlns:serif="http://www.serif.com/" style="fill-rule:evenodd;clip-rule:evenodd;stroke-linejoin:round;stroke-miterlimit:2;">
    <g transform="matrix(1,0,0,1,-1230,0)">
        <rect id="money" x="1230" y="0" width="32" height="32" style="fill:none;"/>
        <g id="money1" serif:id="money">
            <g transform="matrix(1,0,0,1,0,1)">
                <path d="M1236,8L1256,8L1256.03,8C1256.39,8.005 1256.73,8.105 1257.02,8.277C1257.16,8.362 1257.29,8.466 1257.41,8.586C1257.53,8.706 1257.64,8.84 1257.72,8.984C1257.89,9.275 1258,9.614 1258,9.975L1258,10C1258,12.22 1258,17.78 1258,20L1258,20.025C1258,20.386 1257.89,20.725 1257.72,21.016C1257.64,21.16 1257.53,21.294 1257.41,21.414C1257.29,21.534 1257.16,21.638 1257.02,21.723C1256.73,21.895 1256.39,21.995 1256.03,22L1256,22L1236,22L1235.98,22C1235.61,21.995 1235.28,21.895 1234.98,21.723C1234.84,21.638 1234.71,21.534 1234.59,21.414C1234.47,21.294 1234.36,21.16 1234.28,21.016C1234.11,20.725 1234.01,20.386 1234,20.025L1234,20C1234,17.78 1234,12.22 1234,10L1234,9.975C1234.01,9.614 1234.11,9.275 1234.28,8.984C1234.36,8.84 1234.47,8.706 1234.59,8.586C1234.71,8.466 1234.84,8.362 1234.98,8.277C1235.28,8.105 1235.61,8.005 1235.98,8L1236,8ZM1238,10C1238,11.104 1237.1,12 1236,12C1236,12 1236,18 1236,18C1237.1,18 1238,18.896 1238,20L1254,20C1254,18.896 1254.9,18 1256,18C1256,18 1256,12 1256,12C1254.9,12 1254,11.104 1254,10L1238,10Z"/>
            </g>
            <circle cx="1246" cy="16" r="3"/>
        </g>
    </g>
</svg>
