<svg viewBox="0 0 500 500" xmlns="http://www.w3.org/2000/svg" fill-rule="evenodd" clip-rule="evenodd" stroke-linejoin="round" stroke-miterlimit="2"><path fill="none" d="M0 0h500v500H0z"/><clipPath id="a"><path d="M0 0h500v500H0z"/></clipPath><g clip-path="url(#a)"><path fill="none" d="M32.5 32.5h435v435h-435z"/><path d="M243.121 36.467a13.78 13.78 0 0113.758 0c29.487 17.029 145.116 83.787 174.603 100.816a13.743 13.743 0 016.879 11.907v201.62c0 4.912-2.622 9.454-6.879 11.907-29.487 17.029-145.116 83.787-174.603 100.816a13.78 13.78 0 01-13.758 0c-29.487-17.029-145.116-83.787-174.603-100.816a13.743 13.743 0 01-6.879-11.907V149.19c0-4.912 2.622-9.454 6.879-11.907 29.487-17.029 145.116-83.787 174.603-100.816z" fill="url(#_Linear2)"/><path d="M223.772 64.58v381.692l34.528 8.746 137.959-74.031v-7.012l9.094-246.198-167.04-71.462-14.541 8.265z" fill="#fff"/><g fill-rule="nonzero"><path d="M343.856 215.536c.371-.986-.29-2.697-1.265-3.259l-30.369-17.534c-.562-.324-.98-.145-1.2.285-.139.516-.064 1.252.33 2.006l21.478 41.03c.69 1.322 1.856 1.687 2.233.701 0 0 .278-7.029 2.726-13.502 2.447-6.473 6.067-9.727 6.067-9.727" fill="#ff1a21"/><path d="M309.525 142.474c-.904-1.015-1.89-.702-1.89.597v40.496c0 .742.307 1.479.725 2.018.452.447.974.644 1.363.348l21.477-16.24c.69-.516.458-2.215-.441-3.23 0 0-5.394-3.486-11.31-10.168-5.916-6.681-9.924-13.821-9.924-13.821" fill="#00983e"/><path d="M269.598 165.198c-.371.986.29 2.691 1.265 3.26l30.374 17.533c.551.319.975.145 1.195-.284.139-.522.064-1.253-.331-2.007l-21.471-41.029c-.69-1.322-1.868-1.694-2.239-.702 0 0-.278 7.03-2.726 13.503-2.448 6.467-6.067 9.726-6.067 9.726M303.928 238.255c.899 1.021 1.897.708 1.897-.592v-40.495c0-.743-.319-1.485-.737-2.019-.446-.446-.968-.643-1.363-.348l-21.471 16.24c-.69.517-.458 2.21.446 3.231 0 0 5.389 3.486 11.305 10.167 5.916 6.676 9.923 13.816 9.923 13.816M282.457 138.71c-.905-.024-1.137 1.397-.453 2.72l21.478 41.035c.394.748.916 1.154 1.363 1.229.417-.058.731-.435.736-1.177v-40.496c0-1.299-.991-2.76-1.896-2.784 0 0-4.008 2.512-9.924 2.367-5.91-.151-11.304-2.894-11.304-2.894M278.495 206.43c.372 1.421 1.543 2.407 2.233 1.885l21.478-16.234c.394-.296.47-.945.33-1.624-.226-.69-.643-1.345-1.2-1.67l-30.369-17.534c-.98-.562-1.641.372-1.264 1.798 0 0 3.613 7.43 6.061 16.733 2.453 9.298 2.731 16.646 2.731 16.646M331.003 242.025c.899.023 1.131-1.404.441-2.72l-21.472-41.035c-.394-.748-.911-1.154-1.363-1.23-.418.058-.731.435-.731 1.178v40.495c0 1.299.992 2.761 1.891 2.784 0 0 4.014-2.511 9.924-2.36 5.916.145 11.31 2.888 11.31 2.888M354.429 193.299l9.309 5.371v18.276c-1.839.603-4.112.661-6.809.185a23.05 23.05 0 01-7.552-2.737c-3.399-1.966-6.444-4.716-9.141-8.242-2.702-3.532-4.814-7.476-6.339-11.832-1.531-4.35-2.297-8.712-2.297-13.079 0-4.321.801-7.755 2.39-10.312 1.589-2.552 3.787-3.997 6.594-4.333 2.808-.331 5.974.522 9.495 2.552 2.558 1.479 5.121 3.579 7.691 6.31 2.575 2.738 4.733 5.644 6.478 8.729l-6.124 6.38a29.845 29.845 0 00-3.857-5.689c-1.485-1.706-2.895-2.947-4.234-3.718-1.375-.795-2.622-1.05-3.741-.76-1.126.284-1.996 1.061-2.622 2.326-.621 1.258-.934 2.906-.934 4.941 0 2.083.319 4.13.957 6.137.644 2.012 1.52 3.81 2.645 5.394 1.119 1.583 2.384 2.778 3.787 3.59 1.184.684 2.616 1.015 4.304.986v-10.475z" fill="#1f191a"/></g><path d="M302.6 275.706l-29.661-17.122v190.333l29.661-17.673V275.706zM332.87 292.125l-16.57-9.57v146.996l16.57-12.076v-125.35z" fill="#e7e7e7"/><path d="M234.647 445.75V53.113l-10.875 1.514v383.832l10.875 7.291z" fill="#ccc"/><path d="M220.408 93.226v1.868c-2.755-5.157-8.752-7.088-9.593-4.588v-1.868c.412-1.722 6.061-1.386 9.593 4.588z" fill="#e7e7e7"/><path d="M223.32 89.798l-3.77-2.175v11.061l3.77 2.175V89.798zm-.864.963l-2.048-1.183v8.143l2.048 1.183v-8.143z" fill="#fff"/><path d="M230.988 95.987l-9.263-5.342v7.54l9.263 5.348v-7.546z" fill="#a6a6a6"/><path d="M220.408 93.226s-11.82-3.526-9.216-5.116c2.599-1.583 6.322 1.073 7.523 2.68 1.195 1.601 1.693 2.436 1.693 2.436z" fill="none"/><path d="M220.408 95.094s-11.82-3.527-9.216-5.11c2.599-1.589 6.322 1.067 7.523 2.674 1.195 1.6 1.693 2.436 1.693 2.436z" fill="none"/><path d="M220.408 93.226v1.868c-4.935-1.607-9.39-3.196-9.593-4.588v-1.868c.174 1.427 4.803 3.005 9.593 4.588z" fill="gray"/><path d="M220.408 183.584v1.874c-2.755-5.157-8.752-7.094-9.593-4.588v-1.874c.412-1.722 6.061-1.38 9.593 4.588z" fill="#e7e7e7"/><path d="M223.32 180.162l-3.77-2.175v11.055l3.77 2.175v-11.055zm-.864.963l-2.048-1.183v8.143l2.048 1.183v-8.143z" fill="#fff"/><path d="M230.988 186.351l-9.263-5.348v7.54l9.263 5.348v-7.54z" fill="#a6a6a6"/><path d="M220.408 183.584s-11.82-3.52-9.216-5.11c2.599-1.583 6.322 1.073 7.523 2.674 1.195 1.607 1.693 2.436 1.693 2.436z" fill="none"/><path d="M220.408 185.458s-11.82-3.527-9.216-5.116c2.599-1.583 6.322 1.073 7.523 2.674 1.195 1.606 1.693 2.442 1.693 2.442z" fill="none"/><path d="M220.408 183.584v1.874c-4.935-1.613-9.39-3.196-9.593-4.588v-1.874c.174 1.427 4.803 3.005 9.593 4.588z" fill="gray"/><path d="M220.408 273.948v1.868c-2.755-5.151-8.752-7.088-9.593-4.588v-1.868c.412-1.722 6.061-1.386 9.593 4.588z" fill="#e7e7e7"/><path d="M223.32 270.526l-3.77-2.175v11.055l3.77 2.175v-11.055zm-.864.957l-2.048-1.183v8.143l2.048 1.183v-8.143z" fill="#fff"/><path d="M230.988 276.715l-9.263-5.348v7.54l9.263 5.348v-7.54z" fill="#a6a6a6"/><path d="M220.408 273.948s-11.82-3.526-9.216-5.11c2.599-1.589 6.322 1.068 7.523 2.674 1.195 1.601 1.693 2.436 1.693 2.436z" fill="none"/><path d="M220.408 275.816s-11.82-3.527-9.216-5.11c2.599-1.583 6.322 1.073 7.523 2.674 1.195 1.606 1.693 2.436 1.693 2.436z" fill="none"/><path d="M220.408 273.948v1.868c-4.935-1.607-9.39-3.196-9.593-4.588v-1.868c.174 1.427 4.803 3.005 9.593 4.588z" fill="gray"/><path d="M220.408 364.312v1.868c-2.755-5.156-8.752-7.088-9.593-4.588v-1.868c.412-1.722 6.061-1.386 9.593 4.588z" fill="#e7e7e7"/><path d="M223.32 360.884l-3.77-2.175v11.061l3.77 2.175v-11.061zm-.864.963l-2.048-1.183v8.143l2.048 1.183v-8.143z" fill="#fff"/><path d="M230.988 367.073l-9.263-5.348v7.546l9.263 5.348v-7.546z" fill="#a6a6a6"/><path d="M220.408 364.312s-11.82-3.526-9.216-5.115c2.599-1.584 6.322 1.073 7.523 2.679 1.195 1.601 1.693 2.436 1.693 2.436z" fill="none"/><path d="M220.408 366.18s-11.82-3.527-9.216-5.11c2.599-1.589 6.322 1.067 7.523 2.674 1.195 1.601 1.693 2.436 1.693 2.436z" fill="none"/><path d="M220.408 364.312v1.868c-4.935-1.607-9.39-3.196-9.593-4.588v-1.868c.174 1.427 4.803 3.005 9.593 4.588z" fill="gray"/><g><path d="M250 25l194.856 112.5v225L250 475 55.144 362.5v-225L250 25zm0 25l173.205 100v200L250 450 76.795 350V150L250 50z" fill="url(#_Linear3)"/><path d="M250 25l194.856 112.5v225L250 475 55.144 362.5v-225L250 25zm0 25l173.205 100v200L250 450 76.795 350V150L250 50z" fill="url(#_Linear4)"/><g><path d="M250 25l194.856 112.5v225L250 475 55.144 362.5v-225L250 25zm0 25l173.205 100v200L250 450 76.795 350V150L250 50z" fill="url(#_Linear5)"/><path d="M250 25l194.856 112.5v225L250 475 55.144 362.5v-225L250 25zm0 25l173.205 100v200L250 450 76.795 350V150L250 50z" fill="url(#_Linear6)"/></g></g></g><defs><linearGradient id="_Linear2" x1="0" y1="0" x2="1" y2="0" gradientUnits="userSpaceOnUse" gradientTransform="rotate(90 28.446 128.372) scale(365.398)"><stop offset="0" stop-color="#d4d4d4"/><stop offset="1" stop-color="#fff"/></linearGradient><linearGradient id="_Linear3" x1="0" y1="0" x2="1" y2="0" gradientUnits="userSpaceOnUse" gradientTransform="scale(371.561) rotate(39.302 -.312 .597)"><stop offset="0" stop-color="#08415c"/><stop offset="1" stop-color="#207ca8"/></linearGradient><linearGradient id="_Linear4" x1="0" y1="0" x2="1" y2="0" gradientUnits="userSpaceOnUse" gradientTransform="scale(371.561) rotate(39.302 -.312 .597)"><stop offset="0" stop-color="#08415c"/><stop offset="1" stop-color="#207ca8"/></linearGradient><linearGradient id="_Linear5" x1="0" y1="0" x2="1" y2="0" gradientUnits="userSpaceOnUse" gradientTransform="scale(371.561) rotate(39.302 -.312 .597)"><stop offset="0" stop-color="#08415c"/><stop offset="1" stop-color="#207ca8"/></linearGradient><linearGradient id="_Linear6" x1="0" y1="0" x2="1" y2="0" gradientUnits="userSpaceOnUse" gradientTransform="scale(371.561) rotate(39.302 -.312 .597)"><stop offset="0" stop-color="#08415c"/><stop offset="1" stop-color="#207ca8"/></linearGradient></defs></svg>