<svg viewBox="0 0 500 500" xmlns="http://www.w3.org/2000/svg" fill-rule="evenodd" clip-rule="evenodd" stroke-linejoin="round" stroke-miterlimit="2"><path fill="none" d="M0 0h500v500H0z"/><clipPath id="a"><path d="M0 0h500v500H0z"/></clipPath><g clip-path="url(#a)"><path fill="none" d="M32.5 32.5h435v435h-435z"/><path d="M243.121 36.467a13.78 13.78 0 0113.758 0c29.487 17.029 145.116 83.787 174.603 100.816a13.743 13.743 0 016.879 11.907v201.62c0 4.912-2.622 9.454-6.879 11.907-29.487 17.029-145.116 83.787-174.603 100.816a13.78 13.78 0 01-13.758 0c-29.487-17.029-145.116-83.787-174.603-100.816a13.743 13.743 0 01-6.879-11.907V149.19c0-4.912 2.622-9.454 6.879-11.907 29.487-17.029 145.116-83.787 174.603-100.816z" fill="url(#_Linear2)"/><path d="M243.121 36.467a13.78 13.78 0 0113.758 0c29.487 17.029 145.116 83.787 174.603 100.816a13.743 13.743 0 016.879 11.907v201.62c0 4.912-2.622 9.454-6.879 11.907-29.487 17.029-145.116 83.787-174.603 100.816a13.78 13.78 0 01-13.758 0c-29.487-17.029-145.116-83.787-174.603-100.816a13.743 13.743 0 01-6.879-11.907V149.19c0-4.912 2.622-9.454 6.879-11.907 29.487-17.029 145.116-83.787 174.603-100.816z" fill="url(#_Linear3)"/><path d="M223.239 64.58v381.692l34.527 8.746 137.959-74.031v-7.012l9.094-246.198-167.04-71.462-14.54 8.265z" fill="#fff"/><g fill-rule="nonzero"><path d="M343.322 215.536c.371-.986-.29-2.697-1.264-3.259l-30.369-17.534c-.563-.324-.98-.145-1.201.285-.139.516-.064 1.252.331 2.006l21.477 41.03c.69 1.322 1.856 1.687 2.233.701 0 0 .279-7.029 2.726-13.502 2.448-6.473 6.067-9.727 6.067-9.727" fill="#ff1a21"/><path d="M308.992 142.474c-.905-1.015-1.891-.702-1.891.597v40.496c0 .742.307 1.479.725 2.018.452.447.974.644 1.363.348l21.477-16.24c.691-.516.459-2.215-.44-3.23 0 0-5.394-3.486-11.31-10.168-5.916-6.681-9.924-13.821-9.924-13.821" fill="#00983e"/><path d="M269.065 165.198c-.372.986.29 2.691 1.264 3.26l30.375 17.533c.551.319.974.145 1.194-.284.14-.522.064-1.253-.33-2.007l-21.472-41.029c-.69-1.322-1.867-1.694-2.239-.702 0 0-.278 7.03-2.726 13.503-2.447 6.467-6.066 9.726-6.066 9.726M303.395 238.255c.899 1.021 1.896.708 1.896-.592v-40.495c0-.743-.319-1.485-.736-2.019-.447-.446-.969-.643-1.363-.348l-21.472 16.24c-.69.517-.458 2.21.447 3.231 0 0 5.388 3.486 11.304 10.167 5.916 6.676 9.924 13.816 9.924 13.816M281.923 138.71c-.905-.024-1.137 1.397-.452 2.72l21.477 41.035c.395.748.917 1.154 1.363 1.229.418-.058.731-.435.737-1.177v-40.496c0-1.299-.992-2.76-1.897-2.784 0 0-4.013 2.512-9.924 2.367-5.91-.151-11.304-2.894-11.304-2.894M277.962 206.43c.371 1.421 1.543 2.407 2.233 1.885l21.477-16.234c.395-.296.47-.945.331-1.624-.226-.69-.644-1.345-1.201-1.67l-30.369-17.534c-.98-.562-1.641.372-1.264 1.798 0 0 3.613 7.43 6.061 16.733 2.453 9.298 2.732 16.646 2.732 16.646M330.469 242.025c.899.023 1.131-1.404.441-2.72l-21.472-41.035c-.394-.748-.916-1.154-1.363-1.23-.417.058-.73.435-.73 1.178v40.495c0 1.299.991 2.761 1.89 2.784 0 0 4.014-2.511 9.924-2.36 5.916.145 11.31 2.888 11.31 2.888M353.895 193.299l9.309 5.371v18.276c-1.838.603-4.112.661-6.809.185a23.037 23.037 0 01-7.551-2.737c-3.399-1.966-6.444-4.716-9.141-8.242-2.703-3.532-4.814-7.476-6.34-11.832-1.531-4.35-2.296-8.712-2.296-13.079 0-4.321.8-7.755 2.389-10.312 1.589-2.552 3.788-3.997 6.595-4.333 2.807-.331 5.974.522 9.494 2.552 2.558 1.479 5.122 3.579 7.691 6.31 2.575 2.738 4.733 5.644 6.479 8.729l-6.125 6.38a29.799 29.799 0 00-3.857-5.689c-1.485-1.706-2.894-2.947-4.234-3.718-1.375-.795-2.622-1.05-3.741-.76-1.125.284-1.995 1.061-2.622 2.326-.62 1.258-.933 2.906-.933 4.941 0 2.083.319 4.13.957 6.137.643 2.012 1.519 3.81 2.644 5.394 1.12 1.583 2.384 2.778 3.788 3.59 1.183.684 2.616 1.015 4.303.986v-10.475z" fill="#1f191a"/></g><path d="M302.067 275.706l-29.662-17.122v190.333l29.662-17.673V275.706zM332.337 292.125l-16.571-9.57v146.996l16.571-12.076v-125.35z" fill="#e7e7e7"/><path d="M234.114 445.75V53.113l-10.875 1.514v383.832l10.875 7.291z" fill="#ccc"/><path d="M229.027 76.354c1.63.939 2.952 3.468 2.952 5.643s-1.322 3.173-2.952 2.233c-1.63-.939-2.952-3.468-2.952-5.643s1.322-3.173 2.952-2.233z" fill="#404040"/><path d="M229.027 78.071c.922.533 1.665 1.954 1.665 3.184 0 1.224-.743 1.786-1.665 1.258-.916-.533-1.664-1.96-1.664-3.184 0-1.224.748-1.792 1.664-1.258z" fill="#fff"/><path d="M229.027 143.872c1.63.939 2.952 3.468 2.952 5.643 0 2.169-1.322 3.173-2.952 2.227-1.63-.939-2.952-3.468-2.952-5.637 0-2.175 1.322-3.179 2.952-2.233z" fill="#404040"/><path d="M229.027 145.588c.922.528 1.665 1.955 1.665 3.179 0 1.229-.743 1.792-1.665 1.258-.916-.527-1.664-1.954-1.664-3.178 0-1.23.748-1.792 1.664-1.259z" fill="#fff"/><path d="M229.027 211.384c1.63.945 2.952 3.468 2.952 5.643s-1.322 3.173-2.952 2.233-2.952-3.468-2.952-5.643c0-2.17 1.322-3.173 2.952-2.233z" fill="#404040"/><path d="M229.027 213.1c.922.534 1.665 1.961 1.665 3.185 0 1.223-.743 1.792-1.665 1.258-.916-.528-1.664-1.954-1.664-3.184 0-1.224.748-1.786 1.664-1.259z" fill="#fff"/><path d="M229.027 278.901c1.63.94 2.952 3.469 2.952 5.644 0 2.169-1.322 3.172-2.952 2.233-1.63-.946-2.952-3.469-2.952-5.644 0-2.175 1.322-3.172 2.952-2.233z" fill="#404040"/><path d="M229.027 280.618c.922.528 1.665 1.955 1.665 3.184 0 1.224-.743 1.787-1.665 1.259-.916-.534-1.664-1.96-1.664-3.184 0-1.224.748-1.792 1.664-1.259z" fill="#fff"/><path d="M229.027 346.419c1.63.94 2.952 3.469 2.952 5.638 0 2.175-1.322 3.178-2.952 2.233-1.63-.94-2.952-3.469-2.952-5.644 0-2.169 1.322-3.172 2.952-2.227z" fill="#404040"/><path d="M229.027 348.136c.922.528 1.665 1.955 1.665 3.178 0 1.23-.743 1.793-1.665 1.259-.916-.528-1.664-1.955-1.664-3.178 0-1.23.748-1.793 1.664-1.259z" fill="#fff"/><path d="M229.027 413.931c1.63.94 2.952 3.469 2.952 5.644 0 2.175-1.322 3.172-2.952 2.233-1.63-.94-2.952-3.469-2.952-5.644 0-2.175 1.322-3.172 2.952-2.233z" fill="#404040"/><path d="M229.027 415.648c.922.534 1.665 1.96 1.665 3.184 0 1.224-.743 1.792-1.665 1.259-.916-.528-1.664-1.955-1.664-3.184 0-1.224.748-1.787 1.664-1.259z" fill="#fff"/><g><path d="M250 25l194.856 112.5v225L250 475 55.144 362.5v-225L250 25zm0 25l173.205 100v200L250 450 76.795 350V150L250 50z" fill="url(#_Linear4)"/><path d="M250 25l194.856 112.5v225L250 475 55.144 362.5v-225L250 25zm0 25l173.205 100v200L250 450 76.795 350V150L250 50z" fill="url(#_Linear5)"/><g><path d="M250 25l194.856 112.5v225L250 475 55.144 362.5v-225L250 25zm0 25l173.205 100v200L250 450 76.795 350V150L250 50z" fill="url(#_Linear6)"/><path d="M250 25l194.856 112.5v225L250 475 55.144 362.5v-225L250 25zm0 25l173.205 100v200L250 450 76.795 350V150L250 50z" fill="url(#_Linear7)"/></g></g></g><defs><linearGradient id="_Linear2" x1="0" y1="0" x2="1" y2="0" gradientUnits="userSpaceOnUse" gradientTransform="rotate(90 28.446 128.372) scale(365.398)"><stop offset="0" stop-color="#d4d4d4"/><stop offset="1" stop-color="#fff"/></linearGradient><linearGradient id="_Linear3" x1="0" y1="0" x2="1" y2="0" gradientUnits="userSpaceOnUse" gradientTransform="rotate(90 28.446 128.372) scale(365.398)"><stop offset="0" stop-color="#d4d4d4"/><stop offset="1" stop-color="#fff"/></linearGradient><linearGradient id="_Linear4" x1="0" y1="0" x2="1" y2="0" gradientUnits="userSpaceOnUse" gradientTransform="scale(371.561) rotate(39.302 -.312 .597)"><stop offset="0" stop-color="#08415c"/><stop offset="1" stop-color="#207ca8"/></linearGradient><linearGradient id="_Linear5" x1="0" y1="0" x2="1" y2="0" gradientUnits="userSpaceOnUse" gradientTransform="scale(371.561) rotate(39.302 -.312 .597)"><stop offset="0" stop-color="#08415c"/><stop offset="1" stop-color="#207ca8"/></linearGradient><linearGradient id="_Linear6" x1="0" y1="0" x2="1" y2="0" gradientUnits="userSpaceOnUse" gradientTransform="scale(371.561) rotate(39.302 -.312 .597)"><stop offset="0" stop-color="#08415c"/><stop offset="1" stop-color="#207ca8"/></linearGradient><linearGradient id="_Linear7" x1="0" y1="0" x2="1" y2="0" gradientUnits="userSpaceOnUse" gradientTransform="scale(371.561) rotate(39.302 -.312 .597)"><stop offset="0" stop-color="#08415c"/><stop offset="1" stop-color="#207ca8"/></linearGradient></defs></svg>