<?xml version="1.0" encoding="UTF-8" standalone="no"?><!DOCTYPE svg PUBLIC "-//W3C//DTD SVG 1.1//EN" "http://www.w3.org/Graphics/SVG/1.1/DTD/svg11.dtd"><svg width="100%" height="100%" viewBox="0 0 500 500" version="1.1" xmlns="http://www.w3.org/2000/svg" xmlns:xlink="http://www.w3.org/1999/xlink" xml:space="preserve" xmlns:serif="http://www.serif.com/" style="fill-rule:evenodd;clip-rule:evenodd;stroke-linejoin:round;stroke-miterlimit:2;"><rect id="occhielli" x="0" y="0" width="500" height="500" style="fill:none;"/><clipPath id="_clip1"><rect id="occhielli1" serif:id="occhielli" x="0" y="0" width="500" height="500"/></clipPath><g clip-path="url(#_clip1)"><g><rect id="occhielli2" serif:id="occhielli" x="32.5" y="32.5" width="435" height="435" style="fill:none;"/><path d="M243.121,36.467c4.257,-2.453 9.501,-2.453 13.758,0c29.487,17.029 145.116,83.787 174.603,100.816c4.257,2.453 6.879,6.995 6.879,11.907l0,201.62c0,4.912 -2.622,9.454 -6.879,11.907c-29.487,17.029 -145.116,83.787 -174.603,100.816c-4.257,2.453 -9.501,2.453 -13.758,0c-29.487,-17.029 -145.116,-83.787 -174.603,-100.816c-4.257,-2.453 -6.879,-6.995 -6.879,-11.907l0,-201.62c0,-4.912 2.622,-9.454 6.879,-11.907c29.487,-17.029 145.116,-83.787 174.603,-100.816Z" style="fill:url(#_Linear2);"/><path d="M243.121,36.467c4.257,-2.453 9.501,-2.453 13.758,0c29.487,17.029 145.116,83.787 174.603,100.816c4.257,2.453 6.879,6.995 6.879,11.907l0,201.62c0,4.912 -2.622,9.454 -6.879,11.907c-29.487,17.029 -145.116,83.787 -174.603,100.816c-4.257,2.453 -9.501,2.453 -13.758,0c-29.487,-17.029 -145.116,-83.787 -174.603,-100.816c-4.257,-2.453 -6.879,-6.995 -6.879,-11.907l0,-201.62c0,-4.912 2.622,-9.454 6.879,-11.907c29.487,-17.029 145.116,-83.787 174.603,-100.816Z" style="fill:url(#_Linear3);"/><path d="M223.239,64.58l0,381.692l34.527,8.746l137.959,-74.031l0,-7.012l9.094,-246.198l-167.04,-71.462l-14.54,8.265Z" style="fill:#fff;"/><g><path d="M343.322,215.536c0.371,-0.986 -0.29,-2.697 -1.264,-3.259l-30.369,-17.534c-0.563,-0.324 -0.98,-0.145 -1.201,0.285c-0.139,0.516 -0.064,1.252 0.331,2.006l21.477,41.03c0.69,1.322 1.856,1.687 2.233,0.701c0,0 0.279,-7.029 2.726,-13.502c2.448,-6.473 6.067,-9.727 6.067,-9.727" style="fill:#ff1a21;fill-rule:nonzero;"/><path d="M308.992,142.474c-0.905,-1.015 -1.891,-0.702 -1.891,0.597l0,40.496c0,0.742 0.307,1.479 0.725,2.018c0.452,0.447 0.974,0.644 1.363,0.348l21.477,-16.24c0.691,-0.516 0.459,-2.215 -0.44,-3.23c0,0 -5.394,-3.486 -11.31,-10.168c-5.916,-6.681 -9.924,-13.821 -9.924,-13.821" style="fill:#00983e;fill-rule:nonzero;"/><path d="M269.065,165.198c-0.372,0.986 0.29,2.691 1.264,3.26l30.375,17.533c0.551,0.319 0.974,0.145 1.194,-0.284c0.14,-0.522 0.064,-1.253 -0.33,-2.007l-21.472,-41.029c-0.69,-1.322 -1.867,-1.694 -2.239,-0.702c0,0 -0.278,7.03 -2.726,13.503c-2.447,6.467 -6.066,9.726 -6.066,9.726" style="fill:#1f191a;fill-rule:nonzero;"/><path d="M303.395,238.255c0.899,1.021 1.896,0.708 1.896,-0.592l0,-40.495c0,-0.743 -0.319,-1.485 -0.736,-2.019c-0.447,-0.446 -0.969,-0.643 -1.363,-0.348l-21.472,16.24c-0.69,0.517 -0.458,2.21 0.447,3.231c0,0 5.388,3.486 11.304,10.167c5.916,6.676 9.924,13.816 9.924,13.816" style="fill:#1f191a;fill-rule:nonzero;"/><path d="M281.923,138.71c-0.905,-0.024 -1.137,1.397 -0.452,2.72l21.477,41.035c0.395,0.748 0.917,1.154 1.363,1.229c0.418,-0.058 0.731,-0.435 0.737,-1.177l0,-40.496c0,-1.299 -0.992,-2.76 -1.897,-2.784c0,0 -4.013,2.512 -9.924,2.367c-5.91,-0.151 -11.304,-2.894 -11.304,-2.894" style="fill:#1f191a;fill-rule:nonzero;"/><path d="M277.962,206.43c0.371,1.421 1.543,2.407 2.233,1.885l21.477,-16.234c0.395,-0.296 0.47,-0.945 0.331,-1.624c-0.226,-0.69 -0.644,-1.345 -1.201,-1.67l-30.369,-17.534c-0.98,-0.562 -1.641,0.372 -1.264,1.798c0,0 3.613,7.43 6.061,16.733c2.453,9.298 2.732,16.646 2.732,16.646" style="fill:#1f191a;fill-rule:nonzero;"/><path d="M330.469,242.025c0.899,0.023 1.131,-1.404 0.441,-2.72l-21.472,-41.035c-0.394,-0.748 -0.916,-1.154 -1.363,-1.23c-0.417,0.058 -0.73,0.435 -0.73,1.178l0,40.495c0,1.299 0.991,2.761 1.89,2.784c0,0 4.014,-2.511 9.924,-2.36c5.916,0.145 11.31,2.888 11.31,2.888" style="fill:#1f191a;fill-rule:nonzero;"/><path d="M353.895,193.299l9.309,5.371l0,18.276c-1.838,0.603 -4.112,0.661 -6.809,0.185c-2.697,-0.475 -5.214,-1.392 -7.551,-2.737c-3.399,-1.966 -6.444,-4.716 -9.141,-8.242c-2.703,-3.532 -4.814,-7.476 -6.34,-11.832c-1.531,-4.35 -2.296,-8.712 -2.296,-13.079c0,-4.321 0.8,-7.755 2.389,-10.312c1.589,-2.552 3.788,-3.997 6.595,-4.333c2.807,-0.331 5.974,0.522 9.494,2.552c2.558,1.479 5.122,3.579 7.691,6.31c2.575,2.738 4.733,5.644 6.479,8.729l-6.125,6.38c-1.09,-2.082 -2.378,-3.978 -3.857,-5.689c-1.485,-1.706 -2.894,-2.947 -4.234,-3.718c-1.375,-0.795 -2.622,-1.05 -3.741,-0.76c-1.125,0.284 -1.995,1.061 -2.622,2.326c-0.62,1.258 -0.933,2.906 -0.933,4.941c0,2.083 0.319,4.13 0.957,6.137c0.643,2.012 1.519,3.81 2.644,5.394c1.12,1.583 2.384,2.778 3.788,3.59c1.183,0.684 2.616,1.015 4.303,0.986l0,-10.475Z" style="fill:#1f191a;fill-rule:nonzero;"/></g><path d="M302.067,275.706l-29.662,-17.122l0,190.333l29.662,-17.673l0,-155.538Z" style="fill:#e7e7e7;"/><path d="M332.337,292.125l-16.571,-9.57l0,146.996l16.571,-12.076l0,-125.35Z" style="fill:#e7e7e7;"/><path d="M234.114,445.75l0,-392.637l-10.875,1.514l0,383.832l10.875,7.291Z" style="fill:#ccc;"/><path d="M229.027,76.354c1.63,0.939 2.952,3.468 2.952,5.643c0,2.175 -1.322,3.173 -2.952,2.233c-1.63,-0.939 -2.952,-3.468 -2.952,-5.643c0,-2.175 1.322,-3.173 2.952,-2.233Z" style="fill:#404040;"/><path d="M229.027,78.071c0.922,0.533 1.665,1.954 1.665,3.184c0,1.224 -0.743,1.786 -1.665,1.258c-0.916,-0.533 -1.664,-1.96 -1.664,-3.184c0,-1.224 0.748,-1.792 1.664,-1.258Z" style="fill:#fff;"/><path d="M229.027,143.872c1.63,0.939 2.952,3.468 2.952,5.643c0,2.169 -1.322,3.173 -2.952,2.227c-1.63,-0.939 -2.952,-3.468 -2.952,-5.637c0,-2.175 1.322,-3.179 2.952,-2.233Z" style="fill:#404040;"/><path d="M229.027,145.588c0.922,0.528 1.665,1.955 1.665,3.179c0,1.229 -0.743,1.792 -1.665,1.258c-0.916,-0.527 -1.664,-1.954 -1.664,-3.178c0,-1.23 0.748,-1.792 1.664,-1.259Z" style="fill:#fff;"/><path d="M229.027,211.384c1.63,0.945 2.952,3.468 2.952,5.643c0,2.175 -1.322,3.173 -2.952,2.233c-1.63,-0.94 -2.952,-3.468 -2.952,-5.643c0,-2.17 1.322,-3.173 2.952,-2.233Z" style="fill:#404040;"/><path d="M229.027,213.1c0.922,0.534 1.665,1.961 1.665,3.185c0,1.223 -0.743,1.792 -1.665,1.258c-0.916,-0.528 -1.664,-1.954 -1.664,-3.184c0,-1.224 0.748,-1.786 1.664,-1.259Z" style="fill:#fff;"/><path d="M229.027,278.901c1.63,0.94 2.952,3.469 2.952,5.644c0,2.169 -1.322,3.172 -2.952,2.233c-1.63,-0.946 -2.952,-3.469 -2.952,-5.644c0,-2.175 1.322,-3.172 2.952,-2.233Z" style="fill:#404040;"/><path d="M229.027,280.618c0.922,0.528 1.665,1.955 1.665,3.184c0,1.224 -0.743,1.787 -1.665,1.259c-0.916,-0.534 -1.664,-1.96 -1.664,-3.184c0,-1.224 0.748,-1.792 1.664,-1.259Z" style="fill:#fff;"/><path d="M229.027,346.419c1.63,0.94 2.952,3.469 2.952,5.638c0,2.175 -1.322,3.178 -2.952,2.233c-1.63,-0.94 -2.952,-3.469 -2.952,-5.644c0,-2.169 1.322,-3.172 2.952,-2.227Z" style="fill:#404040;"/><path d="M229.027,348.136c0.922,0.528 1.665,1.955 1.665,3.178c0,1.23 -0.743,1.793 -1.665,1.259c-0.916,-0.528 -1.664,-1.955 -1.664,-3.178c0,-1.23 0.748,-1.793 1.664,-1.259Z" style="fill:#fff;"/><path d="M229.027,413.931c1.63,0.94 2.952,3.469 2.952,5.644c0,2.175 -1.322,3.172 -2.952,2.233c-1.63,-0.94 -2.952,-3.469 -2.952,-5.644c0,-2.175 1.322,-3.172 2.952,-2.233Z" style="fill:#404040;"/><path d="M229.027,415.648c0.922,0.534 1.665,1.96 1.665,3.184c0,1.224 -0.743,1.792 -1.665,1.259c-0.916,-0.528 -1.664,-1.955 -1.664,-3.184c0,-1.224 0.748,-1.787 1.664,-1.259Z" style="fill:#fff;"/></g><g id="Symbol"><g id="Symbol1" serif:id="Symbol"><g id="border"><path id="border1" serif:id="border" d="M250,25l194.856,112.5l0,225l-194.856,112.5l-194.856,-112.5l0,-225l194.856,-112.5Zm0,25l173.205,100l0,200l-173.205,100l-173.205,-100l0,-200l173.205,-100Z" style="fill:url(#_Linear4);"/><path id="border2" serif:id="border" d="M250,25l194.856,112.5l0,225l-194.856,112.5l-194.856,-112.5l0,-225l194.856,-112.5Zm0,25l173.205,100l0,200l-173.205,100l-173.205,-100l0,-200l173.205,-100Z" style="fill:url(#_Linear5);"/></g></g><g id="Symbol2" serif:id="Symbol"><g id="border3" serif:id="border"><path id="border4" serif:id="border" d="M250,25l194.856,112.5l0,225l-194.856,112.5l-194.856,-112.5l0,-225l194.856,-112.5Zm0,25l173.205,100l0,200l-173.205,100l-173.205,-100l0,-200l173.205,-100Z" style="fill:url(#_Linear6);"/><path id="border5" serif:id="border" d="M250,25l194.856,112.5l0,225l-194.856,112.5l-194.856,-112.5l0,-225l194.856,-112.5Zm0,25l173.205,100l0,200l-173.205,100l-173.205,-100l0,-200l173.205,-100Z" style="fill:url(#_Linear7);"/></g></g></g></g><defs><linearGradient id="_Linear2" x1="0" y1="0" x2="1" y2="0" gradientUnits="userSpaceOnUse" gradientTransform="matrix(2.23742e-14,365.398,-365.398,2.23742e-14,156.818,99.925)"><stop offset="0" style="stop-color:#d4d4d4;stop-opacity:1"/><stop offset="1" style="stop-color:#fff;stop-opacity:1"/></linearGradient><linearGradient id="_Linear3" x1="0" y1="0" x2="1" y2="0" gradientUnits="userSpaceOnUse" gradientTransform="matrix(2.23742e-14,365.398,-365.398,2.23742e-14,156.818,99.925)"><stop offset="0" style="stop-color:#d4d4d4;stop-opacity:1"/><stop offset="1" style="stop-color:#fff;stop-opacity:1"/></linearGradient><linearGradient id="_Linear4" x1="0" y1="0" x2="1" y2="0" gradientUnits="userSpaceOnUse" gradientTransform="matrix(287.52,235.351,-235.351,287.52,114.24,123.48)"><stop offset="0" style="stop-color:#08415c;stop-opacity:1"/><stop offset="1" style="stop-color:#207ca8;stop-opacity:1"/></linearGradient><linearGradient id="_Linear5" x1="0" y1="0" x2="1" y2="0" gradientUnits="userSpaceOnUse" gradientTransform="matrix(287.52,235.351,-235.351,287.52,114.24,123.48)"><stop offset="0" style="stop-color:#08415c;stop-opacity:1"/><stop offset="1" style="stop-color:#207ca8;stop-opacity:1"/></linearGradient><linearGradient id="_Linear6" x1="0" y1="0" x2="1" y2="0" gradientUnits="userSpaceOnUse" gradientTransform="matrix(287.52,235.351,-235.351,287.52,114.24,123.48)"><stop offset="0" style="stop-color:#08415c;stop-opacity:1"/><stop offset="1" style="stop-color:#207ca8;stop-opacity:1"/></linearGradient><linearGradient id="_Linear7" x1="0" y1="0" x2="1" y2="0" gradientUnits="userSpaceOnUse" gradientTransform="matrix(287.52,235.351,-235.351,287.52,114.24,123.48)"><stop offset="0" style="stop-color:#08415c;stop-opacity:1"/><stop offset="1" style="stop-color:#207ca8;stop-opacity:1"/></linearGradient></defs></svg>