<?xml version="1.0" encoding="UTF-8" standalone="no"?>
<!DOCTYPE svg PUBLIC "-//W3C//DTD SVG 1.1//EN" "http://www.w3.org/Graphics/SVG/1.1/DTD/svg11.dtd">
<svg width="100%" height="100%" viewBox="0 0 32 32" version="1.1" xmlns="http://www.w3.org/2000/svg" xmlns:xlink="http://www.w3.org/1999/xlink" xml:space="preserve" xmlns:serif="http://www.serif.com/" style="fill-rule:evenodd;clip-rule:evenodd;stroke-linejoin:round;stroke-miterlimit:2;">
    <g transform="matrix(1,0,0,1,-820,0)">
        <rect id="phone" x="820" y="0" width="32" height="32" style="fill:none;"/>
        <g id="phone1" serif:id="phone">
            <g transform="matrix(0.707107,-0.707107,0.854846,0.854846,235.007,589.344)">
                <path d="M832.454,10.581C832.402,10.823 832.147,11 831.849,11C831.599,11 831.293,11 831.013,11C830.525,11 830.099,11.271 829.973,11.66C828.966,14.824 829.044,17.703 829.964,20.362C830.099,20.739 830.517,20.998 830.992,20.998C831.3,21 831.643,21 831.909,21C832.179,21 832.418,21.146 832.497,21.36C832.725,21.979 833.198,23.258 833.501,24.078C833.574,24.276 833.548,24.491 833.428,24.673C833.308,24.855 833.105,24.989 832.864,25.046C832.143,25.217 831.122,25.458 830.288,25.655C829.432,25.857 828.528,25.505 828.172,24.831C826.785,22.104 826,19.018 826,15.75C826,12.656 826.704,9.725 827.96,7.109C828.281,6.464 829.106,6.095 829.934,6.227C830.724,6.349 831.686,6.503 832.375,6.613C832.876,6.693 833.207,7.091 833.117,7.506C832.924,8.401 832.609,9.866 832.454,10.581Z"/>
            </g>
        </g>
    </g>
</svg>
