<?xml version="1.0" encoding="UTF-8" standalone="no"?>
<!DOCTYPE svg PUBLIC "-//W3C//DTD SVG 1.1//EN" "http://www.w3.org/Graphics/SVG/1.1/DTD/svg11.dtd">
<svg width="100%" height="100%" viewBox="0 0 32 32" version="1.1" xmlns="http://www.w3.org/2000/svg" xmlns:xlink="http://www.w3.org/1999/xlink" xml:space="preserve" xmlns:serif="http://www.serif.com/" style="fill-rule:evenodd;clip-rule:evenodd;stroke-linejoin:round;stroke-miterlimit:2;">
    <g transform="matrix(1,0,0,1,-984,0)">
        <rect id="pinmaps" x="984" y="0" width="32" height="32" style="fill:none;"/>
        <g id="pinmaps1" serif:id="pinmaps">
            <path d="M994.256,17C993.465,15.866 993,14.487 993,13C993,9.137 996.137,6 1000,6C1003.86,6 1007,9.137 1007,13C1007,14.461 1006.44,15.73 1005.78,16.94C1004.62,19.107 1000,26 1000,26C1000,26 995.213,18.5 994.256,17C994.256,17 994.256,17 994.256,17ZM1000,8C1002.76,8 1005,10.24 1005,13C1005,15.76 1002.76,18 1000,18C997.24,18 995,15.76 995,13C995,10.24 997.24,8 1000,8Z"/>
            <g transform="matrix(1.78162,0,0,1.78162,-781.997,-9.94269)">
                <circle cx="1000.21" cy="12.877" r="1.123"/>
            </g>
        </g>
    </g>
</svg>
