<?xml version="1.0" encoding="UTF-8" standalone="no"?>
<!DOCTYPE svg PUBLIC "-//W3C//DTD SVG 1.1//EN" "http://www.w3.org/Graphics/SVG/1.1/DTD/svg11.dtd">
<svg width="100%" height="100%" viewBox="0 0 32 32" version="1.1" xmlns="http://www.w3.org/2000/svg" xmlns:xlink="http://www.w3.org/1999/xlink" xml:space="preserve" xmlns:serif="http://www.serif.com/" style="fill-rule:evenodd;clip-rule:evenodd;stroke-linejoin:round;stroke-miterlimit:2;">
    <g transform="matrix(1,0,0,1,-1476,0)">
        <rect id="quality" x="1476" y="0" width="32" height="32" style="fill:none;"/>
        <g id="quality1" serif:id="quality">
            <g transform="matrix(0.798581,0,0,0.8,300.586,3.30867)">
                <path d="M1490.52,16.509C1490.64,16.639 1490.82,16.712 1491,16.713C1491.18,16.714 1491.36,16.642 1491.49,16.513C1492.37,15.633 1494.21,13.79 1495.06,12.943C1495.17,12.826 1495.33,12.76 1495.5,12.76C1495.67,12.76 1495.83,12.826 1495.94,12.943C1496.14,13.137 1496.37,13.365 1496.56,13.558C1496.8,13.802 1496.8,14.198 1496.56,14.442C1495.46,15.541 1492.61,18.393 1491.47,19.526C1491.35,19.652 1491.18,19.722 1491,19.722C1490.82,19.722 1490.65,19.652 1490.53,19.526L1487.42,16.424C1487.18,16.18 1487.18,15.785 1487.42,15.541C1487.62,15.343 1487.86,15.109 1488.05,14.911C1488.17,14.793 1488.33,14.727 1488.5,14.727C1488.67,14.728 1488.83,14.795 1488.94,14.914C1489.38,15.362 1490.06,16.048 1490.52,16.509Z"/>
            </g>
            <g transform="matrix(1.2,0,0,1.2,-298.4,-3.2)">
                <path d="M1494.93,8.929L1499.07,8.929L1499.07,13.071L1502,16L1499.07,18.929L1499.07,23.071L1494.93,23.071L1492,26L1489.07,23.071L1484.93,23.071L1484.93,18.929L1482,16L1484.93,13.071L1484.93,8.929L1489.07,8.929L1492,6L1494.93,8.929ZM1492,11C1494.76,11 1497,13.24 1497,16C1497,18.76 1494.76,21 1492,21C1489.24,21 1487,18.76 1487,16C1487,13.24 1489.24,11 1492,11Z"/>
            </g>
        </g>
    </g>
</svg>
