<?xml version="1.0" encoding="UTF-8" standalone="no"?>
<!DOCTYPE svg PUBLIC "-//W3C//DTD SVG 1.1//EN" "http://www.w3.org/Graphics/SVG/1.1/DTD/svg11.dtd">
<svg width="100%" height="100%" viewBox="0 0 32 32" version="1.1" xmlns="http://www.w3.org/2000/svg" xmlns:xlink="http://www.w3.org/1999/xlink" xml:space="preserve" xmlns:serif="http://www.serif.com/" style="fill-rule:evenodd;clip-rule:evenodd;stroke-linejoin:round;stroke-miterlimit:2;">
    <g transform="matrix(1,0,0,1,-1968,0)">
        <rect id="twitter" x="1968" y="0" width="32" height="32" style="fill:none;"/>
        <g id="twitter1" serif:id="twitter">
            <g transform="matrix(0.209304,0,0,0.209304,1894.72,-42.2345)">
                <path d="M467.328,250.468C465.254,251.041 463.622,250.951 463.622,250.951L463.689,250.558C465.618,249.013 470.486,244.273 471.128,242.056C471.408,241.098 471.078,240.767 471.076,240.735L464.859,243.375L459.657,245.723C456.066,241.922 450.63,239.499 444.553,239.499C433.739,239.499 424.97,247.16 424.97,256.613C424.97,258.341 425.228,261.496 425.771,263.069C425.771,263.564 425.791,262.572 425.771,263.069C418.807,262.878 409.881,260.021 401.932,255.994C386.252,248.05 385.271,242.551 385.271,242.551C382.808,245.166 381.538,253.825 384.034,260.613C385.632,264.959 391.125,268.86 391.125,268.86C391.125,268.86 388.669,268.906 386.096,268.036C383.522,267.166 382.55,266.304 382.55,266.304C381.02,270.036 384.09,276.699 389.396,281.479C392.488,284.267 398.136,286.015 398.136,286.015L389.312,286.263C388.816,294.841 407.299,299.936 407.299,299.936C401.881,304.101 395.596,306.639 388.859,306.639C385.367,306.639 381.993,306.117 378.79,305.161C387.691,312.495 399.131,317.558 411.571,316.904C444.573,315.171 463.203,286.802 464.089,258.941L464.131,258.999C464.131,258.999 465.678,258.228 468.984,254.921C472.289,251.615 474.345,247.746 474.345,247.746C474.345,247.746 469.403,249.896 467.328,250.468Z" style="fill-rule:nonzero;"/>
            </g>
        </g>
    </g>
</svg>
