<svg viewBox="0 0 97 275" xmlns="http://www.w3.org/2000/svg" fill-rule="evenodd" clip-rule="evenodd" stroke-linejoin="round" stroke-miterlimit="2"><path d="M46.468 230.927c-1.253-.626-3.082-.727-4.084-.227L.636 251.574c-.195.098-.636-.185-.636-.022 0 .162.016.574.016.69 0 .464.272.973 1.074 1.374l40.84 20.42c1.252.626 3.082.728 4.084.227l41.747-20.874c.421-.21.629-.493.636-.797.006-.212.007-.598 0-.872-.007-.279-.729-.193-1.089-.373l-40.84-20.42z" fill="#8c8c8c"/><path d="M46.468 230.09c-1.253-.626-3.082-.727-4.084-.226L.636 250.737c-1.002.501-.798 1.416.454 2.042l40.84 20.42c1.252.626 3.082.728 4.084.227l41.747-20.874c1.002-.501.799-1.415-.453-2.042l-40.84-20.42z" fill="#ccc"/><g><path d="M43.691 161.995l-3.39-1.695v87.153l3.39 1.695v-87.153z" fill="#1a1a1a"/><path d="M96.549 5.653C76.003-4.619 61.869-.914 53.018 16.949c-8.751 17.665-12.673 70.806-12.673 92.847 0 28.863-.044 101.437-.044 101.437l56.248 14.828V5.653z" fill="#f2f2f2" fill-rule="nonzero"/><g fill-rule="nonzero"><path d="M74.927 50.976a1.097 1.097 0 00-.248-.174c-.346-.173-.631-.03-.631.317V65.233l-.002.046c0 .303.249.677.551.828.163.081.318.087.422.014l9.961-4.995c.12-.058.187-.187.187-.356 0-.258-.158-.571-.398-.786-3.628-2.108-7.074-5.26-9.847-9.009" fill="#e42026"/><path d="M56.406 57.662a.473.473 0 00-.05.223c0 .347.285.775.631.948a.03.03 0 01.008.004l14.085 7.042a.423.423 0 00.047.025c.302.152.551.027.551-.276a.914.914 0 00-.195-.519l-9.962-14.957a1.195 1.195 0 00-.449-.412c-.258-.129-.491-.088-.586.105-.15 1.73-.576 3.289-1.263 4.621-.698 1.322-1.648 2.401-2.817 3.197" fill="#1c9747"/><path d="M72.33 84.172c.078.072.163.132.248.174.346.173.631.03.631-.317V69.916l.002-.043c0-.303-.25-.678-.553-.829-.162-.081-.315-.087-.42-.016l-9.961 4.995c-.121.058-.189.187-.189.356 0 .259.159.573.4.788 1.802 1.052 3.571 2.363 5.244 3.887a36.42 36.42 0 014.598 5.118M90.85 77.485a.466.466 0 00.05-.222c0-.347-.285-.775-.631-.948l-.006-.003-14.086-7.043a.492.492 0 00-.045-.024c-.303-.152-.552-.027-.552.277 0 .162.071.351.194.518l9.962 14.956c.118.18.28.328.449.412.258.129.491.088.586-.105.15-1.73.576-3.288 1.263-4.62.697-1.324 1.646-2.405 2.813-3.204M60.533 72.302c.096.288.329.563.587.692.168.084.33.098.449.037l9.961-4.996c.124-.043.195-.162.195-.324 0-.303-.25-.678-.553-.829a.454.454 0 00-.045-.021l-14.086-7.043-.005-.002c-.346-.174-.631-.031-.631.316 0 .084.017.175.049.268a32.816 32.816 0 012.814 6.016c.687 2.02 1.113 4.004 1.263 5.884M84.888 86.32c.241.025.4-.129.4-.388 0-.17-.068-.367-.189-.546l-9.968-14.959a1.073 1.073 0 00-.421-.405c-.303-.151-.552-.026-.552.277l.001.045V84.457c0 .347.285.775.632.948a.647.647 0 00.247.073c1.382-.478 2.934-.652 4.604-.515 1.673.148 3.442.606 5.244 1.357M86.724 62.847a1.255 1.255 0 00-.587-.692c-.168-.084-.33-.098-.449-.037l-9.961 4.995c-.124.043-.195.162-.195.324 0 .303.25.678.553.829l.045.021 14.085 7.043.007.003c.347.174.632.031.632-.316a.818.818 0 00-.051-.273c-2.358-3.957-3.786-8.122-4.079-11.902M65.067 41.136v-4.322l6.358 3.179c.578 1.143 1.055 2.436 1.431 3.878.358 1.314.548 2.591.565 3.79 0 1.579-.344 2.823-1.031 3.732-.658.896-1.642 1.423-2.841 1.524-1.208.106-2.571-.221-4.09-.98-2.902-1.408-5.585-4.373-6.898-7.621-.68-1.644-1.02-3.284-1.019-4.92.003-1.219.222-2.321.644-3.255.435-.977 1.014-1.69 1.736-2.141l3.454 4.578c-.512.26-.921.663-1.205 1.19-.28.477-.431 1.071-.443 1.744-.007.611.162 1.299.488 1.982a6.885 6.885 0 001.338 1.882c.592.592 1.247 1.069 1.909 1.389.673.349 1.34.53 1.942.527.551-.004 1.016-.196 1.345-.555.327-.364.497-.891.488-1.516 0-.551-.174-1.305-.521-2.264l-3.65-1.825v.004z" fill="#191919"/></g><g fill="#d9d9d9"><path d="M59.946 90.419v106.254l12.718 6.36V96.778l-12.718-6.359zM78.208 99.844v76.043l9.102 4.551v-76.043l-9.102-4.551z"/></g><path d="M96.549 8.79C77.995.753 65.029 5.046 56.72 21.816c-8.751 17.664-12.673 70.805-12.673 92.846 0 24.855-.032 82.119-.041 97.547l-3.705-.976s.044-72.574.044-101.437c0-22.041 3.922-75.182 12.673-92.847C61.869-.914 76.003-4.619 96.549 5.653V8.79z" fill="#d9d9d9" fill-rule="nonzero"/></g></svg>