<?xml version="1.0" encoding="UTF-8" standalone="no"?><!DOCTYPE svg PUBLIC "-//W3C//DTD SVG 1.1//EN" "http://www.w3.org/Graphics/SVG/1.1/DTD/svg11.dtd"><svg width="100%" height="100%" viewBox="0 0 500 500" version="1.1" xmlns="http://www.w3.org/2000/svg" xmlns:xlink="http://www.w3.org/1999/xlink" xml:space="preserve" xmlns:serif="http://www.serif.com/" style="fill-rule:evenodd;clip-rule:evenodd;stroke-linecap:round;stroke-linejoin:round;stroke-miterlimit:1.5;"><rect id="cappio_cordino" x="0" y="0" width="500" height="500" style="fill:none;"/><clipPath id="_clip1"><rect id="cappio_cordino1" serif:id="cappio_cordino" x="0" y="0" width="500" height="500"/></clipPath><g clip-path="url(#_clip1)"><g><rect id="cappio" x="32.5" y="35" width="435" height="435" style="fill:none;"/><path d="M243.121,38.967c4.257,-2.453 9.501,-2.453 13.758,0c29.487,17.029 145.116,83.787 174.603,100.816c4.257,2.453 6.879,6.995 6.879,11.907l0,201.62c0,4.912 -2.622,9.454 -6.879,11.907c-29.487,17.029 -145.116,83.787 -174.603,100.816c-4.257,2.453 -9.501,2.453 -13.758,0c-29.487,-17.029 -145.116,-83.787 -174.603,-100.816c-4.257,-2.453 -6.879,-6.995 -6.879,-11.907l0,-201.62c0,-4.912 2.622,-9.454 6.879,-11.907c29.487,-17.029 145.116,-83.787 174.603,-100.816Z" style="fill:url(#_Linear2);"/><path d="M227.223,454.485l7.68,-4.431l0,-345.744l-7.68,4.431l0,345.744Z" style="fill:#b3b3b3;"/><path d="M219.55,104.31l7.673,-4.431l7.68,4.431l-7.68,4.431l-7.673,-4.431Z" style="fill:#e6e6e6;"/><path d="M227.223,454.404l-7.673,-4.35l0,-345.744l7.673,4.431l0,345.663Z" style="fill:#8c8c8c;"/><path d="M241.3,369.95c0,0 2.419,39.301 -1.079,47.85c-3.503,8.549 -3.039,12.58 -3.271,19.575c-0.232,6.995 2.175,15.225 2.175,15.225" style="fill:none;stroke:#fff;stroke-width:2.9px;"/><path d="M232.664,448.25l0,-322.828c0,0 0.023,-12.505 3.95,-8.584c3.926,3.927 3.596,12.777 3.596,12.777" style="fill:none;stroke:#fff;stroke-width:2.9px;"/><path d="M241.3,148.1c0,0 0.249,-5.957 -2.587,-11.554c-2.836,-5.597 2.871,-11.112 4.762,-5.846c1.891,5.266 0.278,6.432 0,8.7c-0.278,2.268 0.4,5.377 -2.175,8.7Z" style="fill:none;stroke:#fff;stroke-width:2.9px;"/><path d="M422.585,248.475l0,96.906c0,4.408 -2.349,8.474 -6.16,10.678l-102.834,59.369l-63.591,-37.41l-13.05,-7.621l0,-228.822l185.635,106.9Z" style="fill:#fff;"/><path d="M245.65,375.512l0,-228.926l-8.7,-5.011l0,228.822l8.7,5.115Z" style="fill:#ccc;"/><g><path d="M397.981,310.703c0.371,-0.969 -0.284,-2.651 -1.247,-3.207l-29.928,-17.279c-0.551,-0.319 -0.963,-0.145 -1.183,0.279c-0.139,0.51 -0.064,1.235 0.325,1.978l21.164,40.437c0.684,1.299 1.833,1.665 2.204,0.685c0,0 0.273,-6.926 2.685,-13.3c2.413,-6.38 5.98,-9.593 5.98,-9.593" style="fill:#ff1a21;fill-rule:nonzero;"/><path d="M364.15,238.708c-0.888,-1.01 -1.868,-0.696 -1.868,0.585l0,39.904c0,0.737 0.308,1.462 0.719,1.996c0.447,0.435 0.957,0.632 1.346,0.336l21.164,-15.996c0.679,-0.517 0.453,-2.187 -0.435,-3.19c0,0 -5.318,-3.434 -11.147,-10.017c-5.829,-6.583 -9.779,-13.618 -9.779,-13.618" style="fill:#00983e;fill-rule:nonzero;"/><path d="M324.803,261.101c-0.372,0.969 0.278,2.651 1.247,3.208l29.928,17.284c0.551,0.313 0.962,0.139 1.183,-0.284c0.133,-0.511 0.064,-1.236 -0.331,-1.978l-21.158,-40.438c-0.685,-1.299 -1.839,-1.664 -2.204,-0.684c0,0 -0.279,6.925 -2.691,13.299c-2.413,6.38 -5.974,9.593 -5.974,9.593" style="fill:#1f191a;fill-rule:nonzero;"/><path d="M358.634,333.097c0.887,1.003 1.868,0.702 1.868,-0.586l0,-39.904c0,-0.731 -0.314,-1.462 -0.725,-1.995c-0.441,-0.435 -0.952,-0.632 -1.34,-0.342l-21.164,16.008c-0.685,0.51 -0.453,2.18 0.435,3.184c0,0 5.318,3.433 11.141,10.016c5.829,6.583 9.785,13.619 9.785,13.619" style="fill:#1f191a;fill-rule:nonzero;"/><path d="M337.47,234.99c-0.893,-0.023 -1.12,1.386 -0.441,2.685l21.164,40.438c0.389,0.742 0.899,1.137 1.346,1.212c0.412,-0.058 0.719,-0.429 0.719,-1.16l0,-39.904c0,-1.288 -0.974,-2.72 -1.868,-2.743c0,0 -3.949,2.47 -9.773,2.325c-5.829,-0.145 -11.147,-2.847 -11.147,-2.847" style="fill:#1f191a;fill-rule:nonzero;"/><path d="M333.566,301.736c0.366,1.398 1.526,2.372 2.204,1.856l21.165,-15.996c0.388,-0.296 0.458,-0.934 0.324,-1.607c-0.22,-0.678 -0.632,-1.328 -1.183,-1.641l-29.928,-17.278c-0.963,-0.557 -1.618,0.365 -1.247,1.769c0,0 3.561,7.325 5.98,16.489c2.413,9.164 2.685,16.408 2.685,16.408" style="fill:#1f191a;fill-rule:nonzero;"/><path d="M385.314,336.815c0.887,0.023 1.119,-1.387 0.435,-2.686l-21.158,-40.437c-0.389,-0.743 -0.899,-1.137 -1.346,-1.213c-0.412,0.058 -0.719,0.43 -0.719,1.166l0,39.904c0,1.282 0.98,2.72 1.867,2.744c0,0 3.95,-2.477 9.779,-2.326c5.829,0.145 11.142,2.848 11.142,2.848" style="fill:#1f191a;fill-rule:nonzero;"/><path d="M408.404,288.791l9.17,5.295l0,18.009c-1.81,0.592 -4.049,0.65 -6.705,0.186c-2.657,-0.47 -5.139,-1.369 -7.442,-2.703c-3.352,-1.932 -6.356,-4.64 -9.013,-8.12c-2.662,-3.48 -4.744,-7.366 -6.246,-11.658c-1.508,-4.292 -2.262,-8.584 -2.262,-12.888c0,-4.263 0.783,-7.65 2.354,-10.161c1.566,-2.518 3.736,-3.944 6.496,-4.275c2.767,-0.325 5.887,0.51 9.362,2.517c2.517,1.456 5.046,3.527 7.58,6.218c2.535,2.697 4.663,5.562 6.386,8.601l-6.038,6.293c-1.079,-2.059 -2.349,-3.926 -3.805,-5.614c-1.461,-1.682 -2.853,-2.9 -4.17,-3.66c-1.357,-0.783 -2.581,-1.032 -3.689,-0.748c-1.107,0.278 -1.966,1.044 -2.581,2.285c-0.614,1.241 -0.922,2.871 -0.922,4.878c0,2.053 0.313,4.066 0.94,6.043c0.632,1.984 1.502,3.759 2.61,5.313c1.108,1.566 2.349,2.744 3.729,3.538c1.172,0.679 2.581,1.004 4.246,0.975l0,-10.324Z" style="fill:#1f191a;fill-rule:nonzero;"/></g><path d="M395.267,373.929l-113.976,-65.801l0,25.015l94.296,54.445l19.68,-13.659Z" style="fill:#e6e6e6;"/><path d="M361.453,395.035l-72.657,-41.946l0,10.382l63.957,36.923l8.7,-5.359Z" style="fill:#e6e6e6;"/><path d="M238.412,113.799c2.192,1.328 3.973,4.901 3.973,7.969c0,3.074 -1.781,4.483 -3.973,3.155c-2.199,-1.328 -3.979,-4.901 -3.979,-7.969c0,-3.068 1.78,-4.483 3.979,-3.155Z" style="fill:url(#_Linear3);"/><path d="M236.637,114.727c2.198,1.328 3.979,4.901 3.979,7.969c0,3.068 -1.781,4.483 -3.979,3.155c-2.193,-1.328 -3.973,-4.901 -3.973,-7.969c0,-3.074 1.78,-4.483 3.973,-3.155Z" style="fill:#808080;"/><path d="M236.155,119.616l-6.82,-3.932l0,3.056l6.82,3.933l0,-3.057Z" style="fill:#404040;"/></g><g id="Symbol"><g id="Symbol1" serif:id="Symbol"><g id="border"><path id="border1" serif:id="border" d="M250,25l194.856,112.5l0,225l-194.856,112.5l-194.856,-112.5l0,-225l194.856,-112.5Zm0,25l173.205,100l0,200l-173.205,100l-173.205,-100l0,-200l173.205,-100Z" style="fill:url(#_Linear4);"/><path id="border2" serif:id="border" d="M250,25l194.856,112.5l0,225l-194.856,112.5l-194.856,-112.5l0,-225l194.856,-112.5Zm0,25l173.205,100l0,200l-173.205,100l-173.205,-100l0,-200l173.205,-100Z" style="fill:url(#_Linear5);"/></g></g><g id="Symbol2" serif:id="Symbol"><g id="border3" serif:id="border"><path id="border4" serif:id="border" d="M250,25l194.856,112.5l0,225l-194.856,112.5l-194.856,-112.5l0,-225l194.856,-112.5Zm0,25l173.205,100l0,200l-173.205,100l-173.205,-100l0,-200l173.205,-100Z" style="fill:url(#_Linear6);"/><path id="border5" serif:id="border" d="M250,25l194.856,112.5l0,225l-194.856,112.5l-194.856,-112.5l0,-225l194.856,-112.5Zm0,25l173.205,100l0,200l-173.205,100l-173.205,-100l0,-200l173.205,-100Z" style="fill:url(#_Linear7);"/></g></g></g></g><defs><linearGradient id="_Linear2" x1="0" y1="0" x2="1" y2="0" gradientUnits="userSpaceOnUse" gradientTransform="matrix(2.23742e-14,365.398,-365.398,2.23742e-14,156.818,102.425)"><stop offset="0" style="stop-color:#d4d4d4;stop-opacity:1"/><stop offset="1" style="stop-color:#fff;stop-opacity:1"/></linearGradient><linearGradient id="_Linear3" x1="0" y1="0" x2="1" y2="0" gradientUnits="userSpaceOnUse" gradientTransform="matrix(6.36709e-16,10.3982,-10.3982,6.36709e-16,239.026,114.238)"><stop offset="0" style="stop-color:#e9e9e9;stop-opacity:1"/><stop offset="1" style="stop-color:#808080;stop-opacity:1"/></linearGradient><linearGradient id="_Linear4" x1="0" y1="0" x2="1" y2="0" gradientUnits="userSpaceOnUse" gradientTransform="matrix(287.52,235.351,-235.351,287.52,114.24,123.48)"><stop offset="0" style="stop-color:#08415c;stop-opacity:1"/><stop offset="1" style="stop-color:#207ca8;stop-opacity:1"/></linearGradient><linearGradient id="_Linear5" x1="0" y1="0" x2="1" y2="0" gradientUnits="userSpaceOnUse" gradientTransform="matrix(287.52,235.351,-235.351,287.52,114.24,123.48)"><stop offset="0" style="stop-color:#08415c;stop-opacity:1"/><stop offset="1" style="stop-color:#207ca8;stop-opacity:1"/></linearGradient><linearGradient id="_Linear6" x1="0" y1="0" x2="1" y2="0" gradientUnits="userSpaceOnUse" gradientTransform="matrix(287.52,235.351,-235.351,287.52,114.24,123.48)"><stop offset="0" style="stop-color:#08415c;stop-opacity:1"/><stop offset="1" style="stop-color:#207ca8;stop-opacity:1"/></linearGradient><linearGradient id="_Linear7" x1="0" y1="0" x2="1" y2="0" gradientUnits="userSpaceOnUse" gradientTransform="matrix(287.52,235.351,-235.351,287.52,114.24,123.48)"><stop offset="0" style="stop-color:#08415c;stop-opacity:1"/><stop offset="1" style="stop-color:#207ca8;stop-opacity:1"/></linearGradient></defs></svg>