<?xml version="1.0" encoding="UTF-8" standalone="no"?><!DOCTYPE svg PUBLIC "-//W3C//DTD SVG 1.1//EN" "http://www.w3.org/Graphics/SVG/1.1/DTD/svg11.dtd"><svg width="100%" height="100%" viewBox="0 0 500 500" version="1.1" xmlns="http://www.w3.org/2000/svg" xmlns:xlink="http://www.w3.org/1999/xlink" xml:space="preserve" xmlns:serif="http://www.serif.com/" style="fill-rule:evenodd;clip-rule:evenodd;stroke-linejoin:round;stroke-miterlimit:2;"><rect id="manica_chiusa" x="0" y="0" width="500" height="500" style="fill:none;"/><clipPath id="_clip1"><rect id="manica_chiusa1" serif:id="manica_chiusa" x="0" y="0" width="500" height="500"/></clipPath><g clip-path="url(#_clip1)"><g><rect id="manica-chiusa" serif:id="manica chiusa" x="32.5" y="32.5" width="435" height="435" style="fill:none;"/><path d="M243.121,36.467c4.257,-2.453 9.501,-2.453 13.758,0c29.487,17.029 145.116,83.787 174.603,100.816c4.257,2.453 6.879,6.995 6.879,11.907l0,201.62c0,4.912 -2.622,9.454 -6.879,11.907c-29.487,17.029 -145.116,83.787 -174.603,100.816c-4.257,2.453 -9.501,2.453 -13.758,0c-29.487,-17.029 -145.116,-83.787 -174.603,-100.816c-4.257,-2.453 -6.879,-6.995 -6.879,-11.907l0,-201.62c0,-4.912 2.622,-9.454 6.879,-11.907c29.487,-17.029 145.116,-83.787 174.603,-100.816Z" style="fill:url(#_Linear2);"/><path d="M237.101,461.056l7.343,-4.24l0,-330.791l-7.343,4.24l0,330.791Z" style="fill:#b3b3b3;"/><path d="M229.259,123.85l7.674,-4.431l7.679,4.431l-7.679,4.437l-7.674,-4.437Z" style="fill:#fff;"/><path d="M236.933,460.975l-7.674,-4.164l0,-330.786l7.674,4.24l0,330.71Z" style="fill:#8c8c8c;"/><path d="M236.95,128.287l7.662,-4.437l0,13.05l-7.662,-8.613Z" style="fill:url(#_Linear3);"/><path d="M432.294,240.772l0,111.18c0,4.408 -2.349,8.474 -6.16,10.678l-102.834,59.369l-94.041,-55.054l0,-243.095l203.035,116.922Z" style="fill:#fff;"/><path d="M407.69,317.274c0.366,-0.968 -0.284,-2.65 -1.247,-3.207l-29.928,-17.278c-0.551,-0.319 -0.968,-0.145 -1.183,0.278c-0.139,0.51 -0.064,1.235 0.325,1.978l21.164,40.437c0.685,1.3 1.833,1.665 2.204,0.691c0,0 0.273,-6.931 2.686,-13.306c2.412,-6.38 5.979,-9.593 5.979,-9.593" style="fill:#ff1a21;fill-rule:nonzero;"/><path d="M373.859,245.279c-0.893,-1.004 -1.868,-0.696 -1.868,0.586l0,39.904c0,0.736 0.308,1.461 0.72,1.995c0.446,0.435 0.957,0.632 1.345,0.342l21.164,-16.002c0.679,-0.516 0.447,-2.187 -0.44,-3.19c0,0 -5.313,-3.434 -11.142,-10.017c-5.829,-6.583 -9.779,-13.618 -9.779,-13.618" style="fill:#00983e;fill-rule:nonzero;"/><path d="M334.512,267.673c-0.371,0.968 0.278,2.65 1.241,3.207l29.934,17.284c0.545,0.313 0.963,0.139 1.177,-0.284c0.139,-0.511 0.064,-1.236 -0.325,-1.978l-21.164,-40.438c-0.678,-1.299 -1.833,-1.664 -2.204,-0.684c0,0 -0.272,6.925 -2.685,13.305c-2.413,6.374 -5.974,9.588 -5.974,9.588" style="fill:#1f191a;fill-rule:nonzero;"/><path d="M368.343,339.668c0.888,1.003 1.862,0.702 1.862,-0.586l0,-39.904c0,-0.731 -0.307,-1.461 -0.719,-1.995c-0.441,-0.435 -0.951,-0.632 -1.34,-0.342l-21.164,16.008c-0.685,0.51 -0.453,2.181 0.435,3.184c0,0 5.313,3.434 11.142,10.017c5.829,6.583 9.784,13.618 9.784,13.618" style="fill:#1f191a;fill-rule:nonzero;"/><path d="M347.179,241.561c-0.893,-0.023 -1.119,1.386 -0.441,2.685l21.164,40.438c0.389,0.742 0.899,1.137 1.346,1.212c0.412,-0.058 0.719,-0.429 0.719,-1.16l0,-39.904c0,-1.287 -0.974,-2.72 -1.867,-2.743c0,0 -3.95,2.471 -9.779,2.326c-5.823,-0.145 -11.142,-2.848 -11.142,-2.848" style="fill:#1f191a;fill-rule:nonzero;"/><path d="M343.276,308.307c0.365,1.398 1.519,2.373 2.204,1.856l21.164,-15.996c0.388,-0.296 0.458,-0.934 0.325,-1.607c-0.221,-0.678 -0.633,-1.328 -1.184,-1.641l-29.928,-17.278c-0.962,-0.557 -1.618,0.365 -1.247,1.769c0,0 3.562,7.325 5.974,16.489c2.419,9.164 2.692,16.408 2.692,16.408" style="fill:#1f191a;fill-rule:nonzero;"/><path d="M395.023,343.386c0.888,0.023 1.12,-1.386 0.435,-2.686l-21.164,-40.437c-0.389,-0.743 -0.899,-1.137 -1.34,-1.212c-0.412,0.058 -0.719,0.429 -0.719,1.165l0,39.904c0,1.282 0.974,2.721 1.862,2.744c0,0 3.955,-2.477 9.784,-2.326c5.829,0.145 11.142,2.848 11.142,2.848" style="fill:#1f191a;fill-rule:nonzero;"/><path d="M418.107,295.362l9.176,5.295l0,18.009c-1.816,0.592 -4.049,0.65 -6.705,0.186c-2.662,-0.47 -5.139,-1.369 -7.447,-2.703c-3.347,-1.931 -6.351,-4.64 -9.008,-8.12c-2.662,-3.48 -4.744,-7.366 -6.246,-11.658c-1.508,-4.292 -2.262,-8.584 -2.262,-12.888c0,-4.263 0.783,-7.65 2.355,-10.161c1.566,-2.517 3.729,-3.944 6.496,-4.275c2.766,-0.325 5.887,0.511 9.355,2.517c2.523,1.456 5.046,3.527 7.586,6.218c2.535,2.697 4.664,5.562 6.38,8.607l-6.037,6.287c-1.073,-2.059 -2.344,-3.926 -3.799,-5.614c-1.462,-1.676 -2.854,-2.9 -4.176,-3.66c-1.352,-0.783 -2.581,-1.032 -3.683,-0.748c-1.108,0.278 -1.972,1.044 -2.581,2.285c-0.615,1.241 -0.923,2.871 -0.923,4.878c0,2.053 0.314,4.066 0.94,6.044c0.632,1.983 1.502,3.758 2.604,5.312c1.108,1.566 2.355,2.744 3.735,3.538c1.172,0.679 2.581,1.004 4.24,0.975l0,-10.324Z" style="fill:#1f191a;fill-rule:nonzero;"/><path d="M404.976,380.5l-113.976,-65.801l0,25.015l94.297,54.445l19.679,-13.659Z" style="fill:#e6e6e6;"/><path d="M371.162,401.606l-72.657,-41.945l0,10.382l63.957,36.922l8.7,-5.359Z" style="fill:#e6e6e6;"/></g><g id="Symbol"><g id="Symbol1" serif:id="Symbol"><g id="border"><path id="border1" serif:id="border" d="M250,25l194.856,112.5l0,225l-194.856,112.5l-194.856,-112.5l0,-225l194.856,-112.5Zm0,25l173.205,100l0,200l-173.205,100l-173.205,-100l0,-200l173.205,-100Z" style="fill:url(#_Linear4);"/><path id="border2" serif:id="border" d="M250,25l194.856,112.5l0,225l-194.856,112.5l-194.856,-112.5l0,-225l194.856,-112.5Zm0,25l173.205,100l0,200l-173.205,100l-173.205,-100l0,-200l173.205,-100Z" style="fill:url(#_Linear5);"/></g></g><g id="Symbol2" serif:id="Symbol"><g id="border3" serif:id="border"><path id="border4" serif:id="border" d="M250,25l194.856,112.5l0,225l-194.856,112.5l-194.856,-112.5l0,-225l194.856,-112.5Zm0,25l173.205,100l0,200l-173.205,100l-173.205,-100l0,-200l173.205,-100Z" style="fill:url(#_Linear6);"/><path id="border5" serif:id="border" d="M250,25l194.856,112.5l0,225l-194.856,112.5l-194.856,-112.5l0,-225l194.856,-112.5Zm0,25l173.205,100l0,200l-173.205,100l-173.205,-100l0,-200l173.205,-100Z" style="fill:url(#_Linear7);"/></g></g></g></g><defs><linearGradient id="_Linear2" x1="0" y1="0" x2="1" y2="0" gradientUnits="userSpaceOnUse" gradientTransform="matrix(2.23742e-14,365.398,-365.398,2.23742e-14,156.818,99.925)"><stop offset="0" style="stop-color:#d4d4d4;stop-opacity:1"/><stop offset="1" style="stop-color:#fff;stop-opacity:1"/></linearGradient><linearGradient id="_Linear3" x1="0" y1="0" x2="1" y2="0" gradientUnits="userSpaceOnUse" gradientTransform="matrix(6.65902e-16,10.875,-10.875,6.65902e-16,241.748,124.938)"><stop offset="0" style="stop-color:#fff;stop-opacity:1"/><stop offset="1" style="stop-color:#b3b3b3;stop-opacity:1"/></linearGradient><linearGradient id="_Linear4" x1="0" y1="0" x2="1" y2="0" gradientUnits="userSpaceOnUse" gradientTransform="matrix(287.52,235.351,-235.351,287.52,114.24,123.48)"><stop offset="0" style="stop-color:#08415c;stop-opacity:1"/><stop offset="1" style="stop-color:#207ca8;stop-opacity:1"/></linearGradient><linearGradient id="_Linear5" x1="0" y1="0" x2="1" y2="0" gradientUnits="userSpaceOnUse" gradientTransform="matrix(287.52,235.351,-235.351,287.52,114.24,123.48)"><stop offset="0" style="stop-color:#08415c;stop-opacity:1"/><stop offset="1" style="stop-color:#207ca8;stop-opacity:1"/></linearGradient><linearGradient id="_Linear6" x1="0" y1="0" x2="1" y2="0" gradientUnits="userSpaceOnUse" gradientTransform="matrix(287.52,235.351,-235.351,287.52,114.24,123.48)"><stop offset="0" style="stop-color:#08415c;stop-opacity:1"/><stop offset="1" style="stop-color:#207ca8;stop-opacity:1"/></linearGradient><linearGradient id="_Linear7" x1="0" y1="0" x2="1" y2="0" gradientUnits="userSpaceOnUse" gradientTransform="matrix(287.52,235.351,-235.351,287.52,114.24,123.48)"><stop offset="0" style="stop-color:#08415c;stop-opacity:1"/><stop offset="1" style="stop-color:#207ca8;stop-opacity:1"/></linearGradient></defs></svg>