<?xml version="1.0" encoding="UTF-8" standalone="no"?><!DOCTYPE svg PUBLIC "-//W3C//DTD SVG 1.1//EN" "http://www.w3.org/Graphics/SVG/1.1/DTD/svg11.dtd"><svg width="100%" height="100%" viewBox="0 0 500 500" version="1.1" xmlns="http://www.w3.org/2000/svg" xmlns:xlink="http://www.w3.org/1999/xlink" xml:space="preserve" xmlns:serif="http://www.serif.com/" style="fill-rule:evenodd;clip-rule:evenodd;stroke-linejoin:round;stroke-miterlimit:2;"><rect id="manica_aperta" x="0" y="0" width="500" height="500" style="fill:none;"/><clipPath id="_clip1"><rect id="manica_aperta1" serif:id="manica_aperta" x="0" y="0" width="500" height="500"/></clipPath><g clip-path="url(#_clip1)"><g><rect id="manica-aperta" serif:id="manica aperta" x="32.5" y="32.5" width="435" height="435" style="fill:none;"/><path d="M243.121,36.467c4.257,-2.453 9.501,-2.453 13.758,0c29.487,17.029 145.116,83.787 174.603,100.816c4.257,2.453 6.879,6.995 6.879,11.907l0,201.62c0,4.912 -2.622,9.454 -6.879,11.907c-29.487,17.029 -145.116,83.787 -174.603,100.816c-4.257,2.453 -9.501,2.453 -13.758,0c-29.487,-17.029 -145.116,-83.787 -174.603,-100.816c-4.257,-2.453 -6.879,-6.995 -6.879,-11.907l0,-201.62c0,-4.912 2.622,-9.454 6.879,-11.907c29.487,-17.029 145.116,-83.787 174.603,-100.816Z" style="fill:url(#_Linear2);"/><path d="M227.844,451.985l7.679,-4.431l0,-345.744l-7.679,4.431l0,345.744Z" style="fill:#b3b3b3;"/><path d="M220.171,101.81l7.673,-4.431l7.679,4.431l-7.679,4.431l-7.673,-4.431Z" style="fill:#e6e6e6;"/><path d="M227.844,451.904l-7.673,-4.35l0,-345.744l7.673,4.431l0,345.663Z" style="fill:#8c8c8c;"/><path d="M228.117,120.213l7.406,-4.35l0,13.05l-7.406,-8.7Z" style="fill:url(#_Linear3);"/><path d="M423.205,232.559l0,110.322c0,4.408 -2.349,8.474 -6.165,10.678l-102.828,59.369l-94.041,-55.054l0,-242.237l203.034,116.922Z" style="fill:#fff;"/><g><path d="M398.602,308.203c0.365,-0.969 -0.284,-2.651 -1.253,-3.207l-29.928,-17.279c-0.551,-0.319 -0.963,-0.145 -1.183,0.279c-0.134,0.51 -0.058,1.235 0.33,1.978l21.165,40.437c0.678,1.299 1.832,1.665 2.198,0.685c0,0 0.278,-6.926 2.691,-13.3c2.413,-6.38 5.98,-9.593 5.98,-9.593" style="fill:#ff1a21;fill-rule:nonzero;"/><path d="M364.77,236.208c-0.893,-1.01 -1.867,-0.696 -1.867,0.585l0,39.904c0,0.737 0.307,1.462 0.719,1.996c0.447,0.435 0.957,0.632 1.34,0.336l21.17,-15.996c0.678,-0.517 0.446,-2.187 -0.441,-3.19c0,0 -5.313,-3.434 -11.142,-10.017c-5.829,-6.583 -9.779,-13.618 -9.779,-13.618" style="fill:#00983e;fill-rule:nonzero;"/><path d="M325.417,258.601c-0.365,0.969 0.285,2.651 1.247,3.208l29.934,17.284c0.545,0.313 0.957,0.139 1.178,-0.284c0.139,-0.511 0.063,-1.236 -0.325,-1.978l-21.164,-40.438c-0.679,-1.299 -1.833,-1.664 -2.204,-0.684c0,0 -0.273,6.925 -2.686,13.299c-2.413,6.38 -5.98,9.593 -5.98,9.593" style="fill:#1f191a;fill-rule:nonzero;"/><path d="M359.249,330.597c0.887,1.003 1.867,0.702 1.867,-0.586l0,-39.904c0,-0.731 -0.307,-1.462 -0.719,-1.995c-0.446,-0.435 -0.957,-0.632 -1.345,-0.342l-21.165,16.008c-0.678,0.51 -0.452,2.18 0.441,3.184c0,0 5.313,3.433 11.142,10.016c5.829,6.583 9.779,13.619 9.779,13.619" style="fill:#1f191a;fill-rule:nonzero;"/><path d="M338.09,232.49c-0.893,-0.023 -1.119,1.386 -0.44,2.685l21.164,40.438c0.383,0.742 0.899,1.137 1.345,1.212c0.406,-0.058 0.714,-0.429 0.72,-1.16l0,-39.904c0,-1.288 -0.975,-2.72 -1.868,-2.743c0,0 -3.95,2.47 -9.779,2.325c-5.829,-0.145 -11.142,-2.847 -11.142,-2.847" style="fill:#1f191a;fill-rule:nonzero;"/><path d="M334.187,299.236c0.365,1.398 1.52,2.372 2.204,1.856l21.158,-15.996c0.389,-0.296 0.464,-0.934 0.325,-1.607c-0.214,-0.678 -0.632,-1.328 -1.177,-1.641l-29.928,-17.278c-0.969,-0.557 -1.618,0.365 -1.247,1.769c0,0 3.561,7.325 5.974,16.489c2.413,9.164 2.691,16.408 2.691,16.408" style="fill:#1f191a;fill-rule:nonzero;"/><path d="M385.935,334.315c0.887,0.023 1.113,-1.387 0.435,-2.686l-21.165,-40.437c-0.388,-0.743 -0.899,-1.137 -1.339,-1.213c-0.412,0.058 -0.725,0.43 -0.725,1.166l0,39.904c0,1.282 0.98,2.72 1.867,2.744c0,0 3.956,-2.477 9.779,-2.326c5.829,0.145 11.148,2.848 11.148,2.848" style="fill:#1f191a;fill-rule:nonzero;"/><path d="M409.019,286.291l9.175,5.295l0,18.009c-1.815,0.592 -4.054,0.65 -6.71,0.186c-2.657,-0.47 -5.139,-1.369 -7.442,-2.703c-3.346,-1.932 -6.351,-4.64 -9.013,-8.12c-2.656,-3.48 -4.739,-7.366 -6.247,-11.658c-1.502,-4.292 -2.256,-8.584 -2.256,-12.888c0,-4.263 0.783,-7.65 2.355,-10.161c1.56,-2.518 3.729,-3.944 6.496,-4.275c2.767,-0.325 5.887,0.51 9.355,2.517c2.523,1.456 5.046,3.527 7.581,6.218c2.54,2.697 4.669,5.562 6.386,8.601l-6.038,6.293c-1.073,-2.059 -2.343,-3.926 -3.805,-5.614c-1.456,-1.682 -2.848,-2.9 -4.17,-3.66c-1.351,-0.783 -2.581,-1.032 -3.689,-0.748c-1.102,0.278 -1.966,1.044 -2.581,2.285c-0.609,1.241 -0.916,2.871 -0.916,4.878c0,2.053 0.313,4.066 0.939,6.043c0.633,1.984 1.503,3.759 2.605,5.313c1.107,1.566 2.349,2.744 3.735,3.538c1.166,0.679 2.581,1.004 4.24,0.975l0,-10.324Z" style="fill:#1f191a;fill-rule:nonzero;"/></g><path d="M395.882,371.429l-113.97,-65.801l0,25.015l94.296,54.445l19.674,-13.659Z" style="fill:#e6e6e6;"/><path d="M362.068,392.535l-72.651,-41.946l0,10.382l63.951,36.923l8.7,-5.359Z" style="fill:#e6e6e6;"/></g><g><g><g id="border"><path id="border1" serif:id="border" d="M250,25l194.856,112.5l0,225l-194.856,112.5l-194.856,-112.5l0,-225l194.856,-112.5Zm0,25l173.205,100l0,200l-173.205,100l-173.205,-100l0,-200l173.205,-100Z" style="fill:url(#_Linear4);"/><path id="border2" serif:id="border" d="M250,25l194.856,112.5l0,225l-194.856,112.5l-194.856,-112.5l0,-225l194.856,-112.5Zm0,25l173.205,100l0,200l-173.205,100l-173.205,-100l0,-200l173.205,-100Z" style="fill:url(#_Linear5);"/></g></g><g><g id="border3" serif:id="border"><path id="border4" serif:id="border" d="M250,25l194.856,112.5l0,225l-194.856,112.5l-194.856,-112.5l0,-225l194.856,-112.5Zm0,25l173.205,100l0,200l-173.205,100l-173.205,-100l0,-200l173.205,-100Z" style="fill:url(#_Linear6);"/><path id="border5" serif:id="border" d="M250,25l194.856,112.5l0,225l-194.856,112.5l-194.856,-112.5l0,-225l194.856,-112.5Zm0,25l173.205,100l0,200l-173.205,100l-173.205,-100l0,-200l173.205,-100Z" style="fill:url(#_Linear7);"/></g></g></g></g><defs><linearGradient id="_Linear2" x1="0" y1="0" x2="1" y2="0" gradientUnits="userSpaceOnUse" gradientTransform="matrix(2.23742e-14,365.398,-365.398,2.23742e-14,156.818,99.925)"><stop offset="0" style="stop-color:#d4d4d4;stop-opacity:1"/><stop offset="1" style="stop-color:#fff;stop-opacity:1"/></linearGradient><linearGradient id="_Linear3" x1="0" y1="0" x2="1" y2="0" gradientUnits="userSpaceOnUse" gradientTransform="matrix(6.65902e-16,10.875,-10.875,6.65902e-16,232.658,116.954)"><stop offset="0" style="stop-color:#fff;stop-opacity:1"/><stop offset="1" style="stop-color:#b3b3b3;stop-opacity:1"/></linearGradient><linearGradient id="_Linear4" x1="0" y1="0" x2="1" y2="0" gradientUnits="userSpaceOnUse" gradientTransform="matrix(287.52,235.351,-235.351,287.52,114.24,123.48)"><stop offset="0" style="stop-color:#08415c;stop-opacity:1"/><stop offset="1" style="stop-color:#207ca8;stop-opacity:1"/></linearGradient><linearGradient id="_Linear5" x1="0" y1="0" x2="1" y2="0" gradientUnits="userSpaceOnUse" gradientTransform="matrix(287.52,235.351,-235.351,287.52,114.24,123.48)"><stop offset="0" style="stop-color:#08415c;stop-opacity:1"/><stop offset="1" style="stop-color:#207ca8;stop-opacity:1"/></linearGradient><linearGradient id="_Linear6" x1="0" y1="0" x2="1" y2="0" gradientUnits="userSpaceOnUse" gradientTransform="matrix(287.52,235.351,-235.351,287.52,114.24,123.48)"><stop offset="0" style="stop-color:#08415c;stop-opacity:1"/><stop offset="1" style="stop-color:#207ca8;stop-opacity:1"/></linearGradient><linearGradient id="_Linear7" x1="0" y1="0" x2="1" y2="0" gradientUnits="userSpaceOnUse" gradientTransform="matrix(287.52,235.351,-235.351,287.52,114.24,123.48)"><stop offset="0" style="stop-color:#08415c;stop-opacity:1"/><stop offset="1" style="stop-color:#207ca8;stop-opacity:1"/></linearGradient></defs></svg>