<?xml version="1.0" encoding="UTF-8" standalone="no"?><!DOCTYPE svg PUBLIC "-//W3C//DTD SVG 1.1//EN" "http://www.w3.org/Graphics/SVG/1.1/DTD/svg11.dtd"><svg width="100%" height="100%" viewBox="0 0 500 500" version="1.1" xmlns="http://www.w3.org/2000/svg" xmlns:xlink="http://www.w3.org/1999/xlink" xml:space="preserve" xmlns:serif="http://www.serif.com/" style="fill-rule:evenodd;clip-rule:evenodd;stroke-linejoin:round;stroke-miterlimit:2;"><rect id="moschettoni" x="0" y="0" width="500" height="500" style="fill:none;"/><clipPath id="_clip1"><rect id="moschettoni1" serif:id="moschettoni" x="0" y="0" width="500" height="500"/></clipPath><g clip-path="url(#_clip1)"><g><rect id="moschettoni2" serif:id="moschettoni" x="32.5" y="32.5" width="435" height="435" style="fill:none;"/><path d="M243.121,36.467c4.257,-2.453 9.501,-2.453 13.758,0c29.487,17.029 145.116,83.787 174.603,100.816c4.257,2.453 6.879,6.995 6.879,11.907l0,201.62c0,4.912 -2.622,9.454 -6.879,11.907c-29.487,17.029 -145.116,83.787 -174.603,100.816c-4.257,2.453 -9.501,2.453 -13.758,0c-29.487,-17.029 -145.116,-83.787 -174.603,-100.816c-4.257,-2.453 -6.879,-6.995 -6.879,-11.907l0,-201.62c0,-4.912 2.622,-9.454 6.879,-11.907c29.487,-17.029 145.116,-83.787 174.603,-100.816Z" style="fill:url(#_Linear2);"/><path d="M223.772,64.58l0,381.692l34.528,8.746l137.959,-74.031l0,-7.012l9.094,-246.198l-167.04,-71.462l-14.541,8.265Z" style="fill:#fff;"/><g><path d="M343.856,215.536c0.371,-0.986 -0.29,-2.697 -1.265,-3.259l-30.369,-17.534c-0.562,-0.324 -0.98,-0.145 -1.2,0.285c-0.139,0.516 -0.064,1.252 0.33,2.006l21.478,41.03c0.69,1.322 1.856,1.687 2.233,0.701c0,0 0.278,-7.029 2.726,-13.502c2.447,-6.473 6.067,-9.727 6.067,-9.727" style="fill:#ff1a21;fill-rule:nonzero;"/><path d="M309.525,142.474c-0.904,-1.015 -1.89,-0.702 -1.89,0.597l0,40.496c0,0.742 0.307,1.479 0.725,2.018c0.452,0.447 0.974,0.644 1.363,0.348l21.477,-16.24c0.69,-0.516 0.458,-2.215 -0.441,-3.23c0,0 -5.394,-3.486 -11.31,-10.168c-5.916,-6.681 -9.924,-13.821 -9.924,-13.821" style="fill:#00983e;fill-rule:nonzero;"/><path d="M269.598,165.198c-0.371,0.986 0.29,2.691 1.265,3.26l30.374,17.533c0.551,0.319 0.975,0.145 1.195,-0.284c0.139,-0.522 0.064,-1.253 -0.331,-2.007l-21.471,-41.029c-0.69,-1.322 -1.868,-1.694 -2.239,-0.702c0,0 -0.278,7.03 -2.726,13.503c-2.448,6.467 -6.067,9.726 -6.067,9.726" style="fill:#1f191a;fill-rule:nonzero;"/><path d="M303.928,238.255c0.899,1.021 1.897,0.708 1.897,-0.592l0,-40.495c0,-0.743 -0.319,-1.485 -0.737,-2.019c-0.446,-0.446 -0.968,-0.643 -1.363,-0.348l-21.471,16.24c-0.69,0.517 -0.458,2.21 0.446,3.231c0,0 5.389,3.486 11.305,10.167c5.916,6.676 9.923,13.816 9.923,13.816" style="fill:#1f191a;fill-rule:nonzero;"/><path d="M282.457,138.71c-0.905,-0.024 -1.137,1.397 -0.453,2.72l21.478,41.035c0.394,0.748 0.916,1.154 1.363,1.229c0.417,-0.058 0.731,-0.435 0.736,-1.177l0,-40.496c0,-1.299 -0.991,-2.76 -1.896,-2.784c0,0 -4.008,2.512 -9.924,2.367c-5.91,-0.151 -11.304,-2.894 -11.304,-2.894" style="fill:#1f191a;fill-rule:nonzero;"/><path d="M278.495,206.43c0.372,1.421 1.543,2.407 2.233,1.885l21.478,-16.234c0.394,-0.296 0.47,-0.945 0.33,-1.624c-0.226,-0.69 -0.643,-1.345 -1.2,-1.67l-30.369,-17.534c-0.98,-0.562 -1.641,0.372 -1.264,1.798c0,0 3.613,7.43 6.061,16.733c2.453,9.298 2.731,16.646 2.731,16.646" style="fill:#1f191a;fill-rule:nonzero;"/><path d="M331.003,242.025c0.899,0.023 1.131,-1.404 0.441,-2.72l-21.472,-41.035c-0.394,-0.748 -0.911,-1.154 -1.363,-1.23c-0.418,0.058 -0.731,0.435 -0.731,1.178l0,40.495c0,1.299 0.992,2.761 1.891,2.784c0,0 4.014,-2.511 9.924,-2.36c5.916,0.145 11.31,2.888 11.31,2.888" style="fill:#1f191a;fill-rule:nonzero;"/><path d="M354.429,193.299l9.309,5.371l0,18.276c-1.839,0.603 -4.112,0.661 -6.809,0.185c-2.697,-0.475 -5.214,-1.392 -7.552,-2.737c-3.399,-1.966 -6.444,-4.716 -9.141,-8.242c-2.702,-3.532 -4.814,-7.476 -6.339,-11.832c-1.531,-4.35 -2.297,-8.712 -2.297,-13.079c0,-4.321 0.801,-7.755 2.39,-10.312c1.589,-2.552 3.787,-3.997 6.594,-4.333c2.808,-0.331 5.974,0.522 9.495,2.552c2.558,1.479 5.121,3.579 7.691,6.31c2.575,2.738 4.733,5.644 6.478,8.729l-6.124,6.38c-1.091,-2.082 -2.378,-3.978 -3.857,-5.689c-1.485,-1.706 -2.895,-2.947 -4.234,-3.718c-1.375,-0.795 -2.622,-1.05 -3.741,-0.76c-1.126,0.284 -1.996,1.061 -2.622,2.326c-0.621,1.258 -0.934,2.906 -0.934,4.941c0,2.083 0.319,4.13 0.957,6.137c0.644,2.012 1.52,3.81 2.645,5.394c1.119,1.583 2.384,2.778 3.787,3.59c1.184,0.684 2.616,1.015 4.304,0.986l0,-10.475Z" style="fill:#1f191a;fill-rule:nonzero;"/></g><path d="M302.6,275.706l-29.661,-17.122l0,190.333l29.661,-17.673l0,-155.538Z" style="fill:#e7e7e7;"/><path d="M332.87,292.125l-16.57,-9.57l0,146.996l16.57,-12.076l0,-125.35Z" style="fill:#e7e7e7;"/><path d="M234.647,445.75l0,-392.637l-10.875,1.514l0,383.832l10.875,7.291Z" style="fill:#ccc;"/><path d="M220.408,93.226l0,1.868c-2.755,-5.157 -8.752,-7.088 -9.593,-4.588l0,-1.868c0.412,-1.722 6.061,-1.386 9.593,4.588Z" style="fill:#e7e7e7;"/><path d="M223.32,89.798l-3.77,-2.175l0,11.061l3.77,2.175l0,-11.061Zm-0.864,0.963l-2.048,-1.183l0,8.143l2.048,1.183l0,-8.143Z" style="fill:#fff;"/><path d="M230.988,95.987l-9.263,-5.342l0,7.54l9.263,5.348l0,-7.546Z" style="fill:#a6a6a6;"/><path d="M220.408,93.226c0,0 -11.82,-3.526 -9.216,-5.116c2.599,-1.583 6.322,1.073 7.523,2.68c1.195,1.601 1.693,2.436 1.693,2.436Z" style="fill:none;"/><path d="M220.408,95.094c0,0 -11.82,-3.527 -9.216,-5.11c2.599,-1.589 6.322,1.067 7.523,2.674c1.195,1.6 1.693,2.436 1.693,2.436Z" style="fill:none;"/><path d="M220.408,93.226l0,1.868c-4.935,-1.607 -9.39,-3.196 -9.593,-4.588l0,-1.868c0.174,1.427 4.803,3.005 9.593,4.588Z" style="fill:#808080;"/><path d="M220.408,183.584l0,1.874c-2.755,-5.157 -8.752,-7.094 -9.593,-4.588l0,-1.874c0.412,-1.722 6.061,-1.38 9.593,4.588Z" style="fill:#e7e7e7;"/><path d="M223.32,180.162l-3.77,-2.175l0,11.055l3.77,2.175l0,-11.055Zm-0.864,0.963l-2.048,-1.183l0,8.143l2.048,1.183l0,-8.143Z" style="fill:#fff;"/><path d="M230.988,186.351l-9.263,-5.348l0,7.54l9.263,5.348l0,-7.54Z" style="fill:#a6a6a6;"/><path d="M220.408,183.584c0,0 -11.82,-3.52 -9.216,-5.11c2.599,-1.583 6.322,1.073 7.523,2.674c1.195,1.607 1.693,2.436 1.693,2.436Z" style="fill:none;"/><path d="M220.408,185.458c0,0 -11.82,-3.527 -9.216,-5.116c2.599,-1.583 6.322,1.073 7.523,2.674c1.195,1.606 1.693,2.442 1.693,2.442Z" style="fill:none;"/><path d="M220.408,183.584l0,1.874c-4.935,-1.613 -9.39,-3.196 -9.593,-4.588l0,-1.874c0.174,1.427 4.803,3.005 9.593,4.588Z" style="fill:#808080;"/><path d="M220.408,273.948l0,1.868c-2.755,-5.151 -8.752,-7.088 -9.593,-4.588l0,-1.868c0.412,-1.722 6.061,-1.386 9.593,4.588Z" style="fill:#e7e7e7;"/><path d="M223.32,270.526l-3.77,-2.175l0,11.055l3.77,2.175l0,-11.055Zm-0.864,0.957l-2.048,-1.183l0,8.143l2.048,1.183l0,-8.143Z" style="fill:#fff;"/><path d="M230.988,276.715l-9.263,-5.348l0,7.54l9.263,5.348l0,-7.54Z" style="fill:#a6a6a6;"/><path d="M220.408,273.948c0,0 -11.82,-3.526 -9.216,-5.11c2.599,-1.589 6.322,1.068 7.523,2.674c1.195,1.601 1.693,2.436 1.693,2.436Z" style="fill:none;"/><path d="M220.408,275.816c0,0 -11.82,-3.527 -9.216,-5.11c2.599,-1.583 6.322,1.073 7.523,2.674c1.195,1.606 1.693,2.436 1.693,2.436Z" style="fill:none;"/><path d="M220.408,273.948l0,1.868c-4.935,-1.607 -9.39,-3.196 -9.593,-4.588l0,-1.868c0.174,1.427 4.803,3.005 9.593,4.588Z" style="fill:#808080;"/><path d="M220.408,364.312l0,1.868c-2.755,-5.156 -8.752,-7.088 -9.593,-4.588l0,-1.868c0.412,-1.722 6.061,-1.386 9.593,4.588Z" style="fill:#e7e7e7;"/><path d="M223.32,360.884l-3.77,-2.175l0,11.061l3.77,2.175l0,-11.061Zm-0.864,0.963l-2.048,-1.183l0,8.143l2.048,1.183l0,-8.143Z" style="fill:#fff;"/><path d="M230.988,367.073l-9.263,-5.348l0,7.546l9.263,5.348l0,-7.546Z" style="fill:#a6a6a6;"/><path d="M220.408,364.312c0,0 -11.82,-3.526 -9.216,-5.115c2.599,-1.584 6.322,1.073 7.523,2.679c1.195,1.601 1.693,2.436 1.693,2.436Z" style="fill:none;"/><path d="M220.408,366.18c0,0 -11.82,-3.527 -9.216,-5.11c2.599,-1.589 6.322,1.067 7.523,2.674c1.195,1.601 1.693,2.436 1.693,2.436Z" style="fill:none;"/><path d="M220.408,364.312l0,1.868c-4.935,-1.607 -9.39,-3.196 -9.593,-4.588l0,-1.868c0.174,1.427 4.803,3.005 9.593,4.588Z" style="fill:#808080;"/></g><g id="Symbol"><g id="Symbol1" serif:id="Symbol"><g id="border"><path id="border1" serif:id="border" d="M250,25l194.856,112.5l0,225l-194.856,112.5l-194.856,-112.5l0,-225l194.856,-112.5Zm0,25l173.205,100l0,200l-173.205,100l-173.205,-100l0,-200l173.205,-100Z" style="fill:url(#_Linear3);"/><path id="border2" serif:id="border" d="M250,25l194.856,112.5l0,225l-194.856,112.5l-194.856,-112.5l0,-225l194.856,-112.5Zm0,25l173.205,100l0,200l-173.205,100l-173.205,-100l0,-200l173.205,-100Z" style="fill:url(#_Linear4);"/></g></g><g id="Symbol2" serif:id="Symbol"><g id="border3" serif:id="border"><path id="border4" serif:id="border" d="M250,25l194.856,112.5l0,225l-194.856,112.5l-194.856,-112.5l0,-225l194.856,-112.5Zm0,25l173.205,100l0,200l-173.205,100l-173.205,-100l0,-200l173.205,-100Z" style="fill:url(#_Linear5);"/><path id="border5" serif:id="border" d="M250,25l194.856,112.5l0,225l-194.856,112.5l-194.856,-112.5l0,-225l194.856,-112.5Zm0,25l173.205,100l0,200l-173.205,100l-173.205,-100l0,-200l173.205,-100Z" style="fill:url(#_Linear6);"/></g></g></g></g><defs><linearGradient id="_Linear2" x1="0" y1="0" x2="1" y2="0" gradientUnits="userSpaceOnUse" gradientTransform="matrix(2.23742e-14,365.398,-365.398,2.23742e-14,156.818,99.925)"><stop offset="0" style="stop-color:#d4d4d4;stop-opacity:1"/><stop offset="1" style="stop-color:#fff;stop-opacity:1"/></linearGradient><linearGradient id="_Linear3" x1="0" y1="0" x2="1" y2="0" gradientUnits="userSpaceOnUse" gradientTransform="matrix(287.52,235.351,-235.351,287.52,114.24,123.48)"><stop offset="0" style="stop-color:#08415c;stop-opacity:1"/><stop offset="1" style="stop-color:#207ca8;stop-opacity:1"/></linearGradient><linearGradient id="_Linear4" x1="0" y1="0" x2="1" y2="0" gradientUnits="userSpaceOnUse" gradientTransform="matrix(287.52,235.351,-235.351,287.52,114.24,123.48)"><stop offset="0" style="stop-color:#08415c;stop-opacity:1"/><stop offset="1" style="stop-color:#207ca8;stop-opacity:1"/></linearGradient><linearGradient id="_Linear5" x1="0" y1="0" x2="1" y2="0" gradientUnits="userSpaceOnUse" gradientTransform="matrix(287.52,235.351,-235.351,287.52,114.24,123.48)"><stop offset="0" style="stop-color:#08415c;stop-opacity:1"/><stop offset="1" style="stop-color:#207ca8;stop-opacity:1"/></linearGradient><linearGradient id="_Linear6" x1="0" y1="0" x2="1" y2="0" gradientUnits="userSpaceOnUse" gradientTransform="matrix(287.52,235.351,-235.351,287.52,114.24,123.48)"><stop offset="0" style="stop-color:#08415c;stop-opacity:1"/><stop offset="1" style="stop-color:#207ca8;stop-opacity:1"/></linearGradient></defs></svg>