<?xml version="1.0" encoding="UTF-8" standalone="no"?>
<svg
   xmlns:dc="http://purl.org/dc/elements/1.1/"
   xmlns:cc="http://creativecommons.org/ns#"
   xmlns:rdf="http://www.w3.org/1999/02/22-rdf-syntax-ns#"
   xmlns:svg="http://www.w3.org/2000/svg"
   xmlns="http://www.w3.org/2000/svg"
   xmlns:xlink="http://www.w3.org/1999/xlink"
   xmlns:sodipodi="http://sodipodi.sourceforge.net/DTD/sodipodi-0.dtd"
   xmlns:inkscape="http://www.inkscape.org/namespaces/inkscape"
   id="Layer_1"
   data-name="Layer 1"
   viewBox="0 0 270.64 308.76"
   version="1.1"
   sodipodi:docname="fettuccia_prova.svg"
   inkscape:version="0.92.3 (2405546, 2018-03-11)">
  <metadata
     id="metadata49">
    <rdf:RDF>
      <cc:Work
         rdf:about="">
        <dc:format>image/svg+xml</dc:format>
        <dc:type
           rdf:resource="http://purl.org/dc/dcmitype/StillImage" />
      </cc:Work>
    </rdf:RDF>
  </metadata>
  <sodipodi:namedview
     pagecolor="#ffffff"
     bordercolor="#666666"
     borderopacity="1"
     objecttolerance="10"
     gridtolerance="10"
     guidetolerance="10"
     inkscape:pageopacity="0"
     inkscape:pageshadow="2"
     inkscape:window-width="1920"
     inkscape:window-height="1007"
     id="namedview47"
     showgrid="false"
     inkscape:zoom="2.1619017"
     inkscape:cx="120.0801"
     inkscape:cy="181.99348"
     inkscape:window-x="0"
     inkscape:window-y="0"
     inkscape:window-maximized="1"
     inkscape:current-layer="Layer_1" />
  <defs
     id="defs14">
    <style
       id="style2">.cls-1{fill:url(#linear-gradient);}.cls-2{fill:#fff;}.cls-3{fill:#ccc;}.cls-4{fill:#ff1a21;}.cls-5{fill:#00983e;}.cls-6{fill:#1f191a;}.cls-7{fill:#e6e6e6;}.cls-8{fill:url(#linear-gradient-2);}</style>
    <linearGradient
       id="linear-gradient"
       x1="-176.49"
       y1="310.54"
       x2="-175.49"
       y2="310.54"
       gradientTransform="matrix(0, 261.92, 261.92, 0, -81201.4, 46273.88)"
       gradientUnits="userSpaceOnUse">
      <stop
         offset="0"
         stop-color="#d4d4d4"
         id="stop4" />
      <stop
         offset="1"
         stop-color="#fff"
         id="stop6" />
    </linearGradient>
    <linearGradient
       id="linear-gradient-2"
       x1="270.13254"
       y1="154.72896"
       x2="-0.46255571"
       y2="154.72896"
       gradientUnits="userSpaceOnUse"
       spreadMethod="pad">
      <stop
         offset="0"
         stop-color="#08415c"
         id="stop9" />
      <stop
         offset="1"
         stop-color="#207ca8"
         id="stop11" />
    </linearGradient>
    <linearGradient
       inkscape:collect="always"
       xlink:href="#linear-gradient"
       id="linearGradient4567"
       x1="0"
       y1="154.38475"
       x2="270.64001"
       y2="154.38475"
       gradientUnits="userSpaceOnUse" />
  </defs>
  <title
     id="title16">fettuccia_prova</title>
  <path
     class="cls-1"
     d="M130.39,1.32a9.87,9.87,0,0,1,9.86,0L265.41,73.58a9.86,9.86,0,0,1,4.93,8.54V226.64a9.86,9.86,0,0,1-4.93,8.54L140.25,307.44a9.87,9.87,0,0,1-9.86,0L5.23,235.18A9.86,9.86,0,0,1,.3,226.64V82.12a9.86,9.86,0,0,1,4.93-8.54Z"
     id="path18" />
  <path
     class="cls-2"
     d="M265,132.1v85.72a10.9,10.9,0,0,1-5.46,9.44l-91,52.51-56.24-33.09-11.55-6.74V37.56L265,132.1Z"
     id="path20" />
  <path
     class="cls-3"
     d="M108.51,244.46V42l-7.7-4.43V239.94l7.7,4.52Z"
     id="path22" />
  <path
     class="cls-4"
     d="M243.24,187.14a2.73,2.73,0,0,0-1.1-2.83L215.67,169a.68.68,0,0,0-1,.25,2.55,2.55,0,0,0,.29,1.75l18.72,35.77c.6,1.14,1.62,1.47,2,.61A42.73,42.73,0,0,1,238,195.63a23.29,23.29,0,0,1,5.29-8.49"
     id="path24" />
  <path
     class="cls-5"
     d="M213.32,123.47c-.79-.89-1.65-.62-1.65.51v35.3a3,3,0,0,0,.63,1.76c.4.39.85.56,1.19.31l18.72-14.16c.6-.45.4-1.93-.38-2.82a54.07,54.07,0,0,1-9.86-8.86,78.25,78.25,0,0,1-8.65-12"
     id="path26" />
  <path
     class="cls-6"
     d="M178.52,143.27a2.74,2.74,0,0,0,1.1,2.84l26.47,15.29a.69.69,0,0,0,1-.25,2.59,2.59,0,0,0-.29-1.75l-18.72-35.77c-.61-1.15-1.63-1.47-1.95-.6a42.48,42.48,0,0,1-2.38,11.76,23.1,23.1,0,0,1-5.28,8.48"
     id="path28" />
  <path
     class="cls-6"
     d="M208.44,207c.78.89,1.65.62,1.65-.52V171.14a3,3,0,0,0-.64-1.76c-.39-.39-.84-.57-1.19-.31l-18.71,14.16c-.6.45-.4,1.93.39,2.82a53.9,53.9,0,0,1,9.85,8.85,78.6,78.6,0,0,1,8.65,12"
     id="path30" />
  <path
     class="cls-6"
     d="M189.72,120.18c-.79,0-1,1.22-.39,2.37l18.72,35.77a1.85,1.85,0,0,0,1.19,1.07c.36,0,.63-.38.63-1V123.07c0-1.14-.86-2.4-1.64-2.43a16.8,16.8,0,0,1-8.65,2.06,26.14,26.14,0,0,1-9.86-2.52"
     id="path32" />
  <path
     class="cls-6"
     d="M186.27,179.21c.33,1.24,1.35,2.1,1.95,1.64l18.72-14.14a1.43,1.43,0,0,0,.28-1.43,2.62,2.62,0,0,0-1-1.45l-26.47-15.28c-.86-.49-1.44.32-1.11,1.57a88.07,88.07,0,0,1,5.29,14.58,74,74,0,0,1,2.38,14.51"
     id="path34" />
  <path
     class="cls-6"
     d="M232,210.24c.78,0,1-1.23.39-2.38L213.71,172.1a1.84,1.84,0,0,0-1.19-1.07c-.37.05-.64.37-.64,1v35.29c0,1.13.87,2.41,1.65,2.43a16.8,16.8,0,0,1,8.65-2.06,26.14,26.14,0,0,1,9.86,2.52"
     id="path36" />
  <path
     class="cls-6"
     d="M252.46,167.76l8.11,4.69v15.92a12.29,12.29,0,0,1-5.93.17,20,20,0,0,1-6.58-2.39,27.18,27.18,0,0,1-8-7.18,37.16,37.16,0,0,1-5.52-10.31,34.32,34.32,0,0,1-2-11.4c0-3.77.7-6.77,2.08-9a7.59,7.59,0,0,1,5.75-3.78c2.44-.29,5.2.46,8.28,2.22a30.23,30.23,0,0,1,6.7,5.5,39.45,39.45,0,0,1,5.65,7.62l-5.34,5.56a25.4,25.4,0,0,0-3.37-5,15.53,15.53,0,0,0-3.68-3.24,4.36,4.36,0,0,0-3.27-.66,3.52,3.52,0,0,0-2.28,2,9.87,9.87,0,0,0-.82,4.32,17.42,17.42,0,0,0,.84,5.34,16.73,16.73,0,0,0,2.3,4.7,10.38,10.38,0,0,0,3.31,3.13,7,7,0,0,0,3.75.86v-9.13Z"
     id="path38" />
  <path
     class="cls-7"
     d="M240.84,243.06,140,184.87V207l83.41,48.15,17.4-12.08Z"
     id="path40" />
  <path
     class="cls-7"
     d="M210.93,261.73l-64.26-37.1v9.18l56.57,32.66,7.69-4.74Z"
     id="path42" />
  <path
     class="cls-8"
     d="M135.48,0a10.13,10.13,0,0,1,4.62,1.24q63,35.69,125.45,72.42A10.13,10.13,0,0,1,270.34,82q.6,72.42,0,144.85a10.14,10.14,0,0,1-4.79,8.29q-62.43,36.74-125.45,72.43a10.11,10.11,0,0,1-9.57,0q-63-35.7-125.45-72.43A10.13,10.13,0,0,1,.3,226.82Q-.3,154.4.3,82a10.15,10.15,0,0,1,4.78-8.29Q67.51,36.94,130.53,1.26A9.22,9.22,0,0,1,135.48,0ZM15.58,80.17a8.83,8.83,0,0,0-4.42,7.65V221a8.85,8.85,0,0,0,4.42,7.65L130.9,295.21a8.84,8.84,0,0,0,8.84,0l115.31-66.58a8.83,8.83,0,0,0,4.42-7.65V87.82a8.81,8.81,0,0,0-4.42-7.65L139.74,13.59a8.84,8.84,0,0,0-8.84,0L15.58,80.17Z"
     id="path44"
     style="fill:url(#linearGradient4567);fill-opacity:1.0" />
</svg>
